SplineFontDB: 3.0
FontName: NimbusSanL-RegIta
FullName: Nimbus Sans L Regular Italic
FamilyName: Nimbus Sans L
Weight: Regular
Copyright: Copyright (URW)++,Copyright 2014 by (URW)++ Design & Development
Version: 1.00
ItalicAngle: -12
UnderlinePosition: -151
UnderlineWidth: 50
Ascent: 729
Descent: 271
LayerCount: 2
Layer: 0 0 "Back"  1
Layer: 1 0 "Fore"  0
FSType: 8
OS2Version: 0
OS2_WeightWidthSlopeOnly: 0
OS2_UseTypoMetrics: 0
CreationTime: 1464335511
ModificationTime: 1464335511
OS2TypoAscent: 0
OS2TypoAOffset: 1
OS2TypoDescent: 0
OS2TypoDOffset: 1
OS2TypoLinegap: 0
OS2WinAscent: 0
OS2WinAOffset: 1
OS2WinDescent: 0
OS2WinDOffset: 1
HheadAscent: 0
HheadAOffset: 1
HheadDescent: 0
HheadDOffset: 1
OS2Vendor: 'PfEd'
DEI: 91125
Encoding: UnicodeBmp
UnicodeInterp: none
NameList: Adobe Glyph List
DisplaySize: -24
AntiAlias: 1
FitToEm: 1
BeginPrivate: 4
BlueValues 31 [-23 0 524 539 729 741 686 709]
StdHW 4 [83]
StdVW 4 [89]
StemSnapH 31 [25 44 48 51 54 61 68 73 78 83]
EndPrivate
BeginChars: 65537 758

StartChar: exclam
Encoding: 33 33 1
Width: 278
Flags: MW
HStem: 0 103<146 208 124 230> 709 20<279 363 363 363>
LayerCount: 2
Fore
SplineSet
363 729 m 1
 289 379 l 1
 222 168 l 1
 182 168 l 1
 205 379 l 1
 279 729 l 1
 363 729 l 1
230 103 m 1
 208 0 l 1
 124 0 l 1
 146 103 l 1
 230 103 l 1
EndSplineSet
EndChar

StartChar: quotedbl
Encoding: 34 34 2
Width: 355
Flags: W
LayerCount: 2
Fore
SplineSet
202 709 m 1
 296 709 l 1
 272 598 l 1
 217 464 l 1
 177 464 l 1
 178 598 l 1
 202 709 l 1
361 709 m 1
 455 709 l 1
 431 598 l 1
 376 464 l 1
 336 464 l 1
 337 598 l 1
 361 709 l 1
EndSplineSet
EndChar

StartChar: numbersign
Encoding: 35 35 3
Width: 556
Flags: MW
HStem: -20 20 191 64<68 155 54 180 256 356 68 231 457 550> 439 64<157 253 144 278 157 330 355 454 555 635>
LayerCount: 2
Fore
SplineSet
632 697 m 1
 555 503 l 1
 649 503 l 1
 635 439 l 1
 530 439 l 1
 457 255 l 1
 564 255 l 1
 550 191 l 1
 432 191 l 1
 349 -20 l 1
 273 -20 l 1
 356 191 l 1
 231 191 l 1
 148 -20 l 1
 72 -20 l 1
 155 191 l 1
 54 191 l 1
 68 255 l 1
 180 255 l 1
 253 439 l 1
 144 439 l 1
 157 503 l 1
 278 503 l 1
 355 697 l 1
 431 697 l 1
 355 503 l 1
 479 503 l 1
 556 697 l 1
 632 697 l 1
454 439 m 1
 330 439 l 1
 256 255 l 1
 381 255 l 1
 454 439 l 1
EndSplineSet
EndChar

StartChar: dollar
Encoding: 36 36 4
Width: 556
Flags: W
VStem: 69 83<122.5 145.5> 152 83<476.5 502.5> 477 88<205.5 235> 530 83<557 581.5>
LayerCount: 2
Fore
SplineSet
407 770 m 1xe0
 466 770 l 1
 455 716 l 1
 555 711 613 655 613 565 c 0
 613 549 612 539 607 519 c 1
 528 519 l 1
 529 534 l 2
 530 543 530 551 530 555 c 0x50
 530 608 495 643 440 646 c 1
 387 397 l 1
 469 372 484 365 508 349 c 0
 549 322 565 291 565 243 c 0
 565 168 532 88 481 43 c 0
 437 3 371 -21 298 -23 c 1
 276 -126 l 1
 217 -126 l 1
 239 -23 l 1
 122 -5 69 43 69 134 c 0
 69 157 71 174 77 208 c 1
 156 208 l 1
 155 197 l 2
 153 178 152 159 152 150 c 0
 152 95 180 67 253 46 c 1
 311 318 l 1
 238 343 218 352 197 370 c 0
 166 396 152 428 152 469 c 0
 152 536 182 608 227 650 c 0
 267 687 328 711 396 716 c 1
 407 770 l 1xe0
330 405 m 1
 381 645 l 1
 297 638 235 577 235 501 c 0
 235 452 261 426 330 405 c 1
368 309 m 1x20
 312 46 l 1
 418 54 477 113 477 211 c 0
 477 259 449 285 368 309 c 1x20
EndSplineSet
EndChar

StartChar: percent
Encoding: 37 37 5
Width: 889
Flags: W
HStem: -20 20 -16 66<674.5 730.5 674.5 738> 254 66<708.5 766.5> 346 66<262.5 318.5 262.5 326> 616 66<296.5 354.5>
VStem: 134 70<470.5 525.5 470.5 530.5> 413 70<502.5 558.5> 546 70<108.5 163.5 108.5 168.5> 825 70<140.5 196.5>
LayerCount: 2
Fore
SplineSet
759 709 m 1xbf80
 825 709 l 1
 275 -20 l 1
 209 -20 l 1
 759 709 l 1xbf80
345 682 m 0
 423 682 483 625 483 552 c 0
 483 444 382 346 270 346 c 0
 192 346 134 402 134 478 c 0
 134 583 237 682 345 682 c 0
329 616 m 0
 264 616 204 557 204 494 c 0
 204 447 239 412 286 412 c 0
 351 412 413 471 413 534 c 0
 413 583 380 616 329 616 c 0
757 320 m 0
 835 320 895 263 895 190 c 0
 895 82 794 -16 682 -16 c 0x6780
 604 -16 546 40 546 116 c 0
 546 221 649 320 757 320 c 0
741 254 m 0
 676 254 616 195 616 132 c 0
 616 85 651 50 698 50 c 0
 763 50 825 109 825 172 c 0
 825 221 792 254 741 254 c 0
EndSplineSet
EndChar

StartChar: ampersand
Encoding: 38 38 6
Width: 667
Flags: W
HStem: -23 77<246 293.5> 0 20 639 70<406.5 457.5>
VStem: 83 88<125.5 168.5> 247 83<519 562.5 519 571.5> 505 83<547 594>
LayerCount: 2
Fore
SplineSet
565 334 m 1xbc
 644 334 l 1
 632 273 593 202 544 151 c 1
 634 0 l 1
 528 0 l 1x7c
 482 78 l 1
 391 2 334 -23 253 -23 c 0
 148 -23 83 34 83 128 c 0
 83 209 120 277 195 332 c 0
 221 351 249 368 288 390 c 1
 284 401 281 409 279 413 c 2
 261 455 l 2
 252 476 247 500 247 523 c 0
 247 620 346 709 455 709 c 0
 537 709 588 662 588 587 c 0
 588 499 532 435 407 378 c 1
 505 215 l 1
 537 252 553 285 565 334 c 1xbc
377 434 m 1
 467 479 505 520 505 574 c 0
 505 614 479 639 436 639 c 0
 377 639 330 592 330 533 c 0
 330 505 336 493 377 434 c 1
448 137 m 1x9c
 329 336 l 1
 216 275 171 224 171 158 c 0
 171 93 212 54 280 54 c 0
 330 54 375 77 448 137 c 1x9c
EndSplineSet
EndChar

StartChar: quoteright
Encoding: 8217 8217 7
Width: 222
Flags: MW
HStem: 605 103<215 241 193 309>
LayerCount: 2
Fore
SplineSet
215 708 m 1
 309 708 l 1
 288 608 l 2
 271 529 227 481 166 477 c 1
 174 515 l 1
 210 520 231 548 241 605 c 1
 193 605 l 1
 215 708 l 1
EndSplineSet
EndChar

StartChar: parenleft
Encoding: 40 40 8
Width: 333
Flags: MW
HStem: 709 20<391 446 446 446>
VStem: 113 78<56 180>
LayerCount: 2
Fore
SplineSet
391 729 m 1
 446 729 l 1
 278 523 191 302 191 79 c 0
 191 -24 208 -116 246 -213 c 1
 191 -213 l 1
 142 -126 113 -4 113 116 c 0
 113 244 148 365 223 501 c 0
 273 591 322 657 391 729 c 1
EndSplineSet
EndChar

StartChar: parenright
Encoding: 41 41 9
Width: 333
Flags: MW
HStem: 709 20<193 248 248 248>
VStem: 248 77<340.5 464 340.5 484.5>
LayerCount: 2
Fore
SplineSet
48 -213 m 1
 -7 -213 l 1
 159 -9 248 215 248 431 c 0
 248 538 231 631 193 729 c 1
 248 729 l 1
 295 646 325 521 325 407 c 0
 325 274 290 148 216 15 c 0
 170 -68 112 -147 48 -213 c 1
EndSplineSet
EndChar

StartChar: asterisk
Encoding: 42 42 10
Width: 389
Flags: MW
HStem: 709 20<319 381 381 381>
LayerCount: 2
Fore
SplineSet
319 729 m 1
 381 729 l 1
 352 617 l 1
 462 655 l 1
 471 593 l 1
 358 566 l 1
 411 475 l 1
 353 438 l 1
 309 534 l 1
 228 439 l 1
 181 479 l 1
 273 567 l 1
 169 598 l 1
 199 657 l 1
 299 617 l 1
 319 729 l 1
EndSplineSet
EndChar

StartChar: plus
Encoding: 43 43 11
Width: 584
Flags: MW
HStem: -11 20 197 72<107 299 92 314 384 576 107 369>
LayerCount: 2
Fore
SplineSet
591 269 m 1
 576 197 l 1
 369 197 l 1
 325 -11 l 1
 255 -11 l 1
 299 197 l 1
 92 197 l 1
 107 269 l 1
 314 269 l 1
 358 473 l 1
 428 473 l 1
 384 269 l 1
 591 269 l 1
EndSplineSet
EndChar

StartChar: comma
Encoding: 44 44 12
Width: 278
Flags: MW
HStem: 0 103<109 146 87 214>
LayerCount: 2
Fore
SplineSet
109 103 m 1
 214 103 l 1
 188 -16 l 1
 171 -101 121 -150 55 -147 c 1
 63 -109 l 1
 111 -109 132 -82 146 0 c 1
 87 0 l 1
 109 103 l 1
EndSplineSet
EndChar

StartChar: hyphen
Encoding: 45 45 13
Width: 333
Flags: MW
HStem: 240 72<112 336 97 351>
LayerCount: 2
Fore
SplineSet
351 312 m 1
 336 240 l 1
 97 240 l 1
 112 312 l 1
 351 312 l 1
EndSplineSet
EndChar

StartChar: period
Encoding: 46 46 14
Width: 278
Flags: MW
HStem: 0 103<109 191 87 213>
LayerCount: 2
Fore
SplineSet
213 103 m 1
 191 0 l 1
 87 0 l 1
 109 103 l 1
 213 103 l 1
EndSplineSet
EndChar

StartChar: slash
Encoding: 47 47 15
Width: 278
Flags: MW
HStem: -20 20 709 20<379 434 434 434>
LayerCount: 2
Fore
SplineSet
379 729 m 1
 434 729 l 1
 43 -20 l 1
 -12 -20 l 1
 379 729 l 1
EndSplineSet
EndChar

StartChar: zero
Encoding: 48 48 16
Width: 556
Flags: MW
HStem: -23 77<255.5 319> 632 77<376.5 439>
VStem: 98 88<141.5 228.5 141.5 242.5> 510 88<457 544.5>
LayerCount: 2
Fore
SplineSet
418 709 m 0
 531 709 598 637 598 514 c 0
 598 370 550 192 486 99 c 0
 428 15 362 -23 276 -23 c 0
 227 -23 179 -5 148 25 c 0
 116 55 98 109 98 170 c 0
 98 315 146 495 210 587 c 0
 266 669 335 709 418 709 c 0
406 632 m 0
 343 632 295 592 256 509 c 0
 218 426 186 276 186 181 c 0
 186 102 224 54 287 54 c 0
 352 54 399 92 439 178 c 0
 477 258 510 410 510 504 c 0
 510 585 472 632 406 632 c 0
EndSplineSet
EndChar

StartChar: one
Encoding: 49 49 17
Width: 556
Flags: MW
HStem: 0 20
LayerCount: 2
Fore
SplineSet
367 505 m 1
 208 505 l 1
 221 568 l 1
 365 588 386 601 440 709 c 1
 498 709 l 1
 347 0 l 1
 259 0 l 1
 367 505 l 1
EndSplineSet
EndChar

StartChar: two
Encoding: 50 50 18
Width: 556
Flags: MW
HStem: 0 87<147 505> 632 77<387 451>
VStem: 532 88<493 557.5>
LayerCount: 2
Fore
SplineSet
524 87 m 1
 505 0 l 1
 34 0 l 1
 78 161 124 215 297 307 c 1
 401 359 l 2
 485 401 532 461 532 525 c 0
 532 590 486 632 416 632 c 0
 358 632 308 607 277 563 c 0
 259 538 247 508 235 463 c 1
 147 463 l 1
 186 632 274 709 428 709 c 0
 496 709 544 691 578 653 c 0
 605 623 620 582 620 537 c 0
 620 437 555 355 422 287 c 2
 310 230 l 1
 219 185 164 136 147 87 c 1
 524 87 l 1
EndSplineSet
EndChar

StartChar: three
Encoding: 51 51 19
Width: 556
Flags: W
HStem: -23 77<241 309> 632 77<376.5 438>
VStem: 71 88<123.5 153> 467 88<216.5 264.5> 511 88<526.5 572.5>
LayerCount: 2
Fore
SplineSet
290 325 m 1xf0
 306 400 l 1
 318 400 l 1
 324 400 l 2
 398 400 450 416 477 447 c 0
 498 470 511 507 511 546 c 0
 511 599 471 632 405 632 c 0
 348 632 301 610 271 568 c 0
 256 548 247 524 237 480 c 1
 149 480 l 1
 168 552 186 590 215 624 c 0
 264 680 334 709 417 709 c 0
 528 709 599 652 599 563 c 0xc8
 599 474 562 415 477 367 c 1
 534 339 555 306 555 249 c 0
 555 184 527 113 482 63 c 1
 430 7 354 -23 264 -23 c 0
 139 -23 71 36 71 144 c 0
 71 162 72 176 76 206 c 1
 164 206 l 1
 160 174 159 165 159 154 c 0
 159 93 205 54 277 54 c 0
 389 54 467 128 467 236 c 0
 467 293 418 327 335 327 c 0
 321 327 310 327 290 325 c 1xf0
EndSplineSet
EndChar

StartChar: four
Encoding: 52 52 20
Width: 556
Flags: MW
HStem: 0 20 170 78<158 362 158 450 467 556>
LayerCount: 2
Fore
SplineSet
362 170 m 1
 63 170 l 1
 83 262 l 1
 499 709 l 1
 565 709 l 1
 467 248 l 1
 573 248 l 1
 556 170 l 1
 450 170 l 1
 414 0 l 1
 326 0 l 1
 362 170 l 1
379 248 m 1
 444 556 l 1
 158 248 l 1
 379 248 l 1
EndSplineSet
EndChar

StartChar: five
Encoding: 53 53 21
Width: 556
Flags: MW
HStem: -23 77<243 318> 390 77<357 393> 622 87<311 611 311 311>
VStem: 479 88<259 307.5>
LayerCount: 2
Fore
SplineSet
629 709 m 1
 611 622 l 1
 311 622 l 1
 241 424 l 1
 291 454 333 467 381 467 c 0
 494 467 567 400 567 295 c 0
 567 223 542 150 498 92 c 0
 439 15 365 -23 271 -23 c 0
 208 -23 157 -6 119 26 c 0
 84 55 70 93 70 152 c 2
 70 162 l 1
 70 174 l 1
 158 174 l 1
 161 94 203 54 283 54 c 0
 397 54 479 144 479 269 c 0
 479 346 433 390 353 390 c 0
 294 390 266 377 204 323 c 1
 124 323 l 1
 259 709 l 1
 629 709 l 1
EndSplineSet
EndChar

StartChar: six
Encoding: 54 54 22
Width: 556
Flags: W
HStem: -23 77<264 328.5> 365 77<355 398> 504 20<522 610 522 522> 632 77<388 432.5>
VStem: 93 88<138 227 138 230> 478 88<240.5 288.5> 523 88<528.5 599>
LayerCount: 2
Fore
SplineSet
610 524 m 1xfa
 522 524 l 1
 523 526 523 528 523 529 c 0xf2
 523 531 523 531 518 559 c 0
 512 589 504 601 481 616 c 0
 464 626 444 632 421 632 c 0
 320 632 238 527 209 358 c 1
 266 416 322 442 388 442 c 0
 495 442 566 374 566 271 c 0xf4
 566 210 540 139 499 86 c 0
 444 14 371 -23 286 -23 c 0
 168 -23 93 50 93 167 c 0
 93 293 140 469 198 560 c 0
 261 659 341 709 435 709 c 0
 542 709 611 647 611 551 c 0
 611 545 611 535 610 524 c 1xfa
364 365 m 0xfc
 262 365 181 281 181 173 c 0
 181 103 229 54 299 54 c 0
 399 54 478 144 478 256 c 0
 478 321 432 365 364 365 c 0xfc
EndSplineSet
EndChar

StartChar: seven
Encoding: 55 55 23
Width: 556
Flags: MW
HStem: 0 20 622 87<196 560 177 671>
LayerCount: 2
Fore
SplineSet
671 709 m 1
 654 628 l 1
 483 460 302 189 235 0 c 1
 137 0 l 1
 227 211 335 369 560 622 c 1
 177 622 l 1
 196 709 l 1
 671 709 l 1
EndSplineSet
EndChar

StartChar: eight
Encoding: 56 56 24
Width: 556
Flags: W
HStem: -23 77<249.5 323> 334 74<329.5 383> 632 77<382.5 441>
VStem: 74 88<128.5 196> 169 88<465 508> 472 88<210 259> 516 88<534 573>
LayerCount: 2
Fore
SplineSet
233 373 m 1xf4
 221 383 l 2
 179 418 169 436 169 480 c 0
 169 536 192 590 234 632 c 1
 285 685 344 709 421 709 c 0
 486 709 533 692 566 657 c 0
 590 631 604 596 604 561 c 0xea
 604 507 579 450 541 416 c 0
 535 410 514 396 477 373 c 1
 533 341 560 297 560 239 c 0
 560 181 535 120 492 72 c 0
 436 9 365 -23 281 -23 c 0
 155 -23 74 42 74 145 c 0
 74 247 128 325 233 373 c 1xf4
407 632 m 0
 319 632 257 574 257 491 c 0
 257 439 296 408 363 408 c 0
 416 408 455 424 483 458 c 0
 503 483 516 516 516 546 c 0
 516 600 475 632 407 632 c 0
344 334 m 0xf4
 243 334 162 257 162 160 c 0
 162 97 212 54 287 54 c 0
 392 54 472 129 472 226 c 0
 472 292 422 334 344 334 c 0xf4
EndSplineSet
EndChar

StartChar: nine
Encoding: 57 57 25
Width: 556
Flags: MW
HStem: -23 77<238 288.5> 244 77<291.5 325> 632 77<359 426>
VStem: 126 88<399.5 446.5> 511 88<494.5 548.5>
LayerCount: 2
Fore
SplineSet
84 162 m 1
 171 162 l 1
 171 93 206 54 270 54 c 0
 371 54 441 144 481 324 c 1
 451 298 438 288 425 279 c 0
 393 257 347 244 303 244 c 0
 194 244 126 311 126 417 c 0
 126 476 148 539 190 600 c 0
 240 671 314 709 404 709 c 0
 466 709 517 690 551 654 c 0
 581 621 599 573 599 525 c 0
 599 464 582 359 557 266 c 0
 529 161 492 97 428 43 c 0
 376 -1 319 -23 258 -23 c 0
 152 -23 83 39 83 135 c 0
 83 141 83 151 84 162 c 1
392 632 m 0
 295 632 214 543 214 436 c 0
 214 363 256 321 327 321 c 0
 429 321 511 407 511 515 c 0
 511 582 460 632 392 632 c 0
EndSplineSet
EndChar

StartChar: colon
Encoding: 58 58 26
Width: 278
Flags: MW
HStem: 0 103<132 214 110 236> 421 103<222 304 200 326>
LayerCount: 2
Fore
SplineSet
236 103 m 1
 214 0 l 1
 110 0 l 1
 132 103 l 1
 236 103 l 1
326 524 m 1
 304 421 l 1
 200 421 l 1
 222 524 l 1
 326 524 l 1
EndSplineSet
EndChar

StartChar: semicolon
Encoding: 59 59 27
Width: 278
Flags: MW
HStem: 0 103<132 169 110 237> 421 103<221 303 199 325>
LayerCount: 2
Fore
SplineSet
325 524 m 1
 303 421 l 1
 199 421 l 1
 221 524 l 1
 325 524 l 1
132 103 m 1
 237 103 l 1
 211 -16 l 1
 194 -101 144 -150 78 -147 c 1
 86 -109 l 1
 134 -109 155 -82 169 0 c 1
 110 0 l 1
 132 103 l 1
EndSplineSet
EndChar

StartChar: less
Encoding: 60 60 28
Width: 584
Flags: MW
HStem: -9 20
LayerCount: 2
Fore
SplineSet
87 198 m 1
 102 267 l 1
 635 474 l 1
 618 395 l 1
 196 231 l 1
 549 68 l 1
 532 -9 l 1
 87 198 l 1
EndSplineSet
EndChar

StartChar: equal
Encoding: 61 61 29
Width: 584
Flags: MW
HStem: 111 72<89 558 74 572> 283 72<125 594 111 609>
LayerCount: 2
Fore
SplineSet
609 355 m 1
 594 283 l 1
 111 283 l 1
 125 355 l 1
 609 355 l 1
572 183 m 1
 558 111 l 1
 74 111 l 1
 89 183 l 1
 572 183 l 1
EndSplineSet
EndChar

StartChar: greater
Encoding: 62 62 30
Width: 584
Flags: MW
HStem: -9 20
LayerCount: 2
Fore
SplineSet
596 267 m 1
 581 198 l 1
 48 -9 l 1
 65 70 l 1
 487 234 l 1
 134 397 l 1
 151 474 l 1
 596 267 l 1
EndSplineSet
EndChar

StartChar: question
Encoding: 63 63 31
Width: 556
Flags: MW
HStem: 0 103<261 329 239 351> 664 77<383 459>
VStem: 534 96<551 603.5>
LayerCount: 2
Fore
SplineSet
371 199 m 1
 281 199 l 1
 293 254 l 2
 307 315 322 334 429 417 c 1
 506 479 534 521 534 578 c 0
 534 629 491 664 427 664 c 0
 339 664 291 617 269 507 c 1
 184 507 l 1
 215 662 305 741 449 741 c 0
 502 741 543 730 572 707 c 0
 608 679 630 635 630 590 c 0
 630 512 588 448 485 370 c 0
 411 315 395 296 381 246 c 1
 371 199 l 1
351 103 m 1
 329 0 l 1
 239 0 l 1
 261 103 l 1
 351 103 l 1
EndSplineSet
EndChar

StartChar: at
Encoding: 64 64 32
Width: 1015
Flags: W
HStem: -142 77<389.5 488> 57 70<710 742> 62 62<456 469> 455 69<590.5 636.5> 664 77<602 745>
VStem: 80 88<143 247.5> 310 92<185 235 185 277> 953 83<391.5 486.5>
LayerCount: 2
Fore
SplineSet
771 501 m 1x37
 853 501 l 1
 704 221 l 2
 687 188 680 172 680 163 c 0
 680 144 699 127 721 127 c 0
 830 127 953 279 953 414 c 0
 953 559 830 664 660 664 c 0
 413 664 168 432 168 196 c 0
 168 40 291 -65 475 -65 c 0
 537 -65 590 -57 679 -33 c 1
 692 -100 l 1
 618 -127 529 -142 447 -142 c 0
 332 -142 224 -96 153 -17 c 0
 104 38 80 104 80 182 c 0
 80 313 143 454 252 563 c 0
 363 675 523 741 681 741 c 0
 886 741 1036 611 1036 435 c 0
 1036 348 1006 254 959 193 c 0
 898 114 788 57 696 57 c 0xdf
 664 57 638 63 623 73 c 0
 609 82 597 104 597 120 c 2
 597 125 l 1
 597 134 l 1
 590 129 584 124 582 122 c 0
 528 78 493 62 445 62 c 0
 363 62 310 117 310 201 c 0
 310 353 477 524 626 524 c 0
 685 524 723 494 735 435 c 1
 771 501 l 1x37
615 455 m 0
 566 455 516 427 473 377 c 1
 430 325 402 260 402 210 c 0
 402 160 434 124 478 124 c 0x37
 522 124 569 155 608 211 c 0
 651 271 682 346 682 390 c 0
 682 432 658 455 615 455 c 0
EndSplineSet
EndChar

StartChar: A
Encoding: 65 65 33
Width: 667
Flags: MW
HStem: 0 20 219 78<283 514 283 524 239 514> 709 20<432 552 552 552>
LayerCount: 2
Fore
SplineSet
524 219 m 1
 239 219 l 1
 116 0 l 1
 17 0 l 1
 432 729 l 1
 552 729 l 1
 653 0 l 1
 551 0 l 1
 524 219 l 1
514 297 m 1
 474 630 l 1
 283 297 l 1
 514 297 l 1
EndSplineSet
EndChar

StartChar: B
Encoding: 66 66 34
Width: 667
Flags: W
HStem: 0 82<190 409> 333 82<261 441 441 470 244 441> 647 82<311 491 311 311>
VStem: 576 96<225.5 272> 615 96<542.5 590.5>
LayerCount: 2
Fore
SplineSet
79 0 m 1xf0
 234 729 l 1
 530 729 l 2
 599 729 641 714 675 678 c 0
 700 651 711 623 711 585 c 0xe8
 711 495 663 423 575 384 c 1
 645 354 672 319 672 258 c 0
 672 193 650 135 607 87 c 0
 555 28 491 0 409 0 c 2
 79 0 l 1xf0
261 415 m 1
 441 415 l 2
 508 415 547 429 577 461 c 0
 601 488 615 524 615 561 c 0
 615 620 577 647 491 647 c 2
 311 647 l 1
 261 415 l 1
190 82 m 1xf0
 417 82 l 2
 473 82 511 99 542 139 c 0
 565 169 576 203 576 242 c 0
 576 302 539 333 470 333 c 2
 244 333 l 1
 190 82 l 1xf0
EndSplineSet
EndChar

StartChar: C
Encoding: 67 67 35
Width: 722
Flags: MW
HStem: -23 81<329 420> 660 81<473.5 565.5>
VStem: 112 96<207 305>
LayerCount: 2
Fore
SplineSet
770 503 m 1
 674 503 l 1
 666 611 616 660 515 660 c 0
 423 660 350 617 289 527 c 0
 238 451 208 352 208 260 c 0
 208 139 277 58 381 58 c 0
 460 58 536 95 578 154 c 0
 596 179 612 209 637 266 c 1
 735 266 l 1
 701 185 669 130 630 87 c 0
 565 16 473 -23 367 -23 c 0
 278 -23 215 4 169 62 c 0
 132 109 112 172 112 242 c 0
 112 368 161 505 240 600 c 0
 318 694 415 741 532 741 c 0
 627 741 697 704 738 634 c 0
 757 600 767 562 770 503 c 1
EndSplineSet
EndChar

StartChar: D
Encoding: 68 68 36
Width: 722
Flags: MW
HStem: 0 82<200 371> 647 82<321 492 321 321>
VStem: 663 96<434 524.5 425.5 532.5>
LayerCount: 2
Fore
SplineSet
89 0 m 1
 244 729 l 1
 526 729 l 2
 591 729 644 711 682 677 c 0
 729 635 759 561 759 488 c 0
 759 363 711 218 643 134 c 0
 570 45 479 0 371 0 c 2
 89 0 l 1
200 82 m 1
 372 82 l 2
 463 82 540 125 591 205 c 0
 632 268 663 388 663 480 c 0
 663 585 599 647 492 647 c 2
 321 647 l 1
 200 82 l 1
EndSplineSet
EndChar

StartChar: E
Encoding: 69 69 37
Width: 667
Flags: MW
HStem: 0 82<201 613> 332 82<255 668 272 650> 647 82<322 734 322 322>
LayerCount: 2
Fore
SplineSet
255 332 m 1
 201 82 l 1
 630 82 l 1
 613 0 l 1
 90 0 l 1
 245 729 l 1
 751 729 l 1
 734 647 l 1
 322 647 l 1
 272 414 l 1
 668 414 l 1
 650 332 l 1
 255 332 l 1
EndSplineSet
EndChar

StartChar: F
Encoding: 70 70 38
Width: 611
Flags: MW
HStem: 0 20 332 82<255 619 272 602> 647 82<322 717 322 322>
LayerCount: 2
Fore
SplineSet
255 332 m 1
 184 0 l 1
 90 0 l 1
 245 729 l 1
 734 729 l 1
 717 647 l 1
 322 647 l 1
 272 414 l 1
 619 414 l 1
 602 332 l 1
 255 332 l 1
EndSplineSet
EndChar

StartChar: G
Encoding: 71 71 39
Width: 778
Flags: MW
HStem: -23 81<374 410.5> 303 82<489 693 471 793> 660 81<497 567.5>
VStem: 109 96<248.5 321 248.5 326>
LayerCount: 2
Fore
SplineSet
793 385 m 1
 710 -4 l 1
 651 -4 l 1
 647 86 l 1
 609 54 590 40 566 26 c 0
 512 -5 443 -23 378 -23 c 0
 310 -23 244 -2 199 35 c 0
 143 81 109 167 109 261 c 0
 109 391 167 527 263 623 c 0
 341 701 439 741 555 741 c 0
 712 741 809 658 809 525 c 2
 809 519 l 1
 809 515 l 1
 809 508 l 1
 718 508 l 1
 717 554 707 581 681 608 c 0
 648 642 598 660 537 660 c 0
 440 660 354 617 293 538 c 0
 240 468 205 365 205 277 c 0
 205 220 218 167 242 132 c 0
 273 86 337 58 411 58 c 0
 480 58 538 79 592 123 c 0
 643 165 672 211 687 277 c 2
 693 303 l 1
 471 303 l 1
 489 385 l 1
 793 385 l 1
EndSplineSet
EndChar

StartChar: H
Encoding: 72 72 40
Width: 722
Flags: MW
HStem: 0 20 332 82<265 621 248 638> 709 20<238 332 332 332 705 799 799 799>
LayerCount: 2
Fore
SplineSet
621 332 m 1
 248 332 l 1
 177 0 l 1
 83 0 l 1
 238 729 l 1
 332 729 l 1
 265 414 l 1
 638 414 l 1
 705 729 l 1
 799 729 l 1
 644 0 l 1
 550 0 l 1
 621 332 l 1
EndSplineSet
EndChar

StartChar: I
Encoding: 73 73 41
Width: 278
Flags: MW
HStem: 0 20 709 20<255 349 349 349>
LayerCount: 2
Fore
SplineSet
349 729 m 1
 194 0 l 1
 100 0 l 1
 255 729 l 1
 349 729 l 1
EndSplineSet
EndChar

StartChar: J
Encoding: 74 74 42
Width: 500
Flags: MW
HStem: -23 81<206 251.5 206 279.5> 709 20<487 581 581 581>
VStem: 47 96<111 129>
LayerCount: 2
Fore
SplineSet
487 729 m 1
 581 729 l 1
 465 182 l 2
 437 51 346 -23 213 -23 c 0
 164 -23 129 -13 102 9 c 0
 68 37 47 79 47 122 c 0
 47 136 49 153 53 170 c 2
 67 234 l 1
 161 234 l 1
 147 168 l 2
 144 156 143 145 143 134 c 0
 143 88 179 58 233 58 c 0
 270 58 307 75 331 102 c 0
 353 127 366 160 378 216 c 2
 487 729 l 1
EndSplineSet
EndChar

StartChar: K
Encoding: 75 75 43
Width: 667
Flags: MW
HStem: 0 20 709 20<234 328 328 328 693 813 813 813>
LayerCount: 2
Fore
SplineSet
226 249 m 1
 173 0 l 1
 79 0 l 1
 234 729 l 1
 328 729 l 1
 249 356 l 1
 693 729 l 1
 813 729 l 1
 452 431 l 1
 658 0 l 1
 548 0 l 1
 380 376 l 1
 226 249 l 1
EndSplineSet
EndChar

StartChar: L
Encoding: 76 76 44
Width: 556
Flags: MW
HStem: 0 82<191 534> 709 20<235 329 329 329>
LayerCount: 2
Fore
SplineSet
329 729 m 1
 191 82 l 1
 551 82 l 1
 534 0 l 1
 80 0 l 1
 235 729 l 1
 329 729 l 1
EndSplineSet
EndChar

StartChar: M
Encoding: 77 77 45
Width: 833
Flags: MW
HStem: 0 20 709 20<230 359 359 359 785 916 916 916>
LayerCount: 2
Fore
SplineSet
467 0 m 1
 370 0 l 1
 293 605 l 1
 164 0 l 1
 75 0 l 1
 230 729 l 1
 359 729 l 1
 439 102 l 1
 785 729 l 1
 916 729 l 1
 761 0 l 1
 672 0 l 1
 801 605 l 1
 467 0 l 1
EndSplineSet
EndChar

StartChar: N
Encoding: 78 78 46
Width: 722
Flags: MW
HStem: 0 20 709 20<231 335 335 335 712 801 801 801>
LayerCount: 2
Fore
SplineSet
801 729 m 1
 646 0 l 1
 540 0 l 1
 291 591 l 1
 165 0 l 1
 76 0 l 1
 231 729 l 1
 335 729 l 1
 585 131 l 1
 712 729 l 1
 801 729 l 1
EndSplineSet
EndChar

StartChar: O
Encoding: 79 79 47
Width: 778
Flags: MW
HStem: -23 81<371.5 438> 660 81<480.5 559>
VStem: 104 96<241.5 317 241.5 327> 732 96<400 476>
LayerCount: 2
Fore
SplineSet
537 741 m 0
 628 741 707 713 756 664 c 0
 800 619 828 543 828 464 c 0
 828 306 752 144 635 54 c 0
 570 4 485 -23 391 -23 c 0
 306 -23 225 6 177 54 c 0
 131 100 104 176 104 263 c 0
 104 391 157 522 246 614 c 0
 327 699 424 741 537 741 c 0
525 660 m 0
 431 660 342 613 284 534 c 1
 231 460 200 363 200 271 c 0
 200 212 214 165 241 130 c 0
 276 86 339 58 404 58 c 0
 501 58 589 104 648 185 c 0
 701 258 732 354 732 446 c 0
 732 506 718 553 691 588 c 0
 657 632 593 660 525 660 c 0
EndSplineSet
EndChar

StartChar: P
Encoding: 80 80 48
Width: 667
Flags: MW
HStem: 0 20 309 82<251 462 268 462 462 479> 647 82<323 517 323 323>
VStem: 637 96<532 581.5>
LayerCount: 2
Fore
SplineSet
251 309 m 1
 185 0 l 1
 91 0 l 1
 246 729 l 1
 548 729 l 2
 671 729 733 674 733 568 c 0
 733 487 697 411 634 361 c 0
 589 325 542 309 479 309 c 2
 251 309 l 1
268 391 m 1
 462 391 l 2
 526 391 569 410 602 452 c 0
 626 482 637 514 637 550 c 0
 637 613 595 647 517 647 c 2
 323 647 l 1
 268 391 l 1
EndSplineSet
EndChar

StartChar: Q
Encoding: 81 81 49
Width: 778
Flags: MW
HStem: -23 81<343.5 429> 660 81<492 559>
VStem: 104 96<204 317.5 204 340.5> 732 96<386 476>
LayerCount: 2
Fore
SplineSet
733 -1 m 1
 673 -59 l 1
 586 28 l 1
 513 -11 468 -23 390 -23 c 0
 210 -23 104 83 104 264 c 0
 104 417 182 575 301 664 c 0
 370 716 448 741 536 741 c 0
 627 741 707 713 755 664 c 0
 801 617 828 540 828 456 c 0
 828 312 766 175 655 76 c 1
 733 -1 l 1
524 205 m 1
 598 132 l 1
 685 216 732 326 732 446 c 0
 732 506 718 553 691 588 c 0
 656 633 593 660 525 660 c 0
 431 660 342 613 284 533 c 0
 231 460 200 364 200 271 c 0
 200 137 278 58 409 58 c 0
 451 58 478 65 528 87 c 1
 466 149 l 1
 524 205 l 1
EndSplineSet
EndChar

StartChar: R
Encoding: 82 82 50
Width: 722
Flags: W
HStem: 0 20 314 82<254 502 271 493> 647 82<325 555 325 325>
VStem: 562 101<39 81.5> 594 96<254 263.5> 674 96<544 570>
LayerCount: 2
Fore
SplineSet
254 314 m 1xe8
 187 0 l 1
 93 0 l 1
 248 729 l 1
 584 729 l 2
 712 729 770 681 770 575 c 0xe4
 770 513 743 446 703 409 c 0
 685 393 669 382 630 360 c 1
 677 329 690 309 690 264 c 0xe8
 690 244 688 231 669 126 c 0
 665 104 663 87 663 76 c 0
 663 54 671 35 684 23 c 1
 679 0 l 1
 566 0 l 1
 563 20 562 31 562 47 c 0xf0
 562 79 562 79 586 179 c 0
 591 201 594 222 594 239 c 0
 594 288 558 314 493 314 c 2
 254 314 l 1xe8
271 396 m 1
 502 396 l 2
 566 396 609 413 638 449 c 0
 660 477 674 520 674 558 c 0
 674 582 666 605 653 619 c 0
 634 640 608 647 555 647 c 2
 325 647 l 1
 271 396 l 1
EndSplineSet
EndChar

StartChar: S
Encoding: 83 83 51
Width: 667
Flags: W
HStem: -23 81<289.5 383> 660 81<436.5 498>
VStem: 89 92<145 179.5> 178 96<496 517.5> 573 96<208.5 233.5> 622 92<563.5 565.5>
LayerCount: 2
Fore
SplineSet
706 515 m 1xd4
 618 515 l 1
 621 535 622 542 622 551 c 0
 622 580 609 612 590 629 c 0
 568 649 526 660 470 660 c 0
 403 660 355 644 318 611 c 0
 288 584 274 554 274 518 c 0xd4
 274 474 298 454 375 432 c 2
 547 383 l 2
 594 370 623 350 645 315 c 0
 661 290 669 264 669 237 c 0
 669 180 634 108 582 61 c 1
 523 6 436 -23 330 -23 c 0
 179 -23 89 48 89 169 c 0
 89 190 91 206 98 232 c 1
 185 232 l 1
 182 213 181 204 181 191 c 0
 181 99 233 58 346 58 c 0
 426 58 485 76 526 114 c 0
 555 141 573 178 573 209 c 0xe8
 573 258 541 286 460 309 c 2
 289 357 l 2
 222 376 178 429 178 492 c 0
 178 543 209 614 250 656 c 0
 304 712 385 741 488 741 c 0
 566 741 619 725 660 689 c 0
 693 660 714 615 714 571 c 0
 714 556 712 543 706 515 c 1xd4
EndSplineSet
EndChar

StartChar: T
Encoding: 84 84 52
Width: 611
Flags: MW
HStem: 0 20 647 82<175 399 158 748 493 731 493 493>
LayerCount: 2
Fore
SplineSet
493 647 m 1
 355 0 l 1
 261 0 l 1
 399 647 l 1
 158 647 l 1
 175 729 l 1
 748 729 l 1
 731 647 l 1
 493 647 l 1
EndSplineSet
EndChar

StartChar: U
Encoding: 85 85 53
Width: 722
Flags: MW
HStem: -23 81<332.5 438 332.5 447> 709 20<240 334 334 334 706 800 800 800>
VStem: 124 96<138.5 163>
LayerCount: 2
Fore
SplineSet
706 729 m 1
 800 729 l 1
 691 217 l 2
 660 71 531 -23 363 -23 c 0
 286 -23 220 -2 179 35 c 0
 147 64 124 114 124 155 c 0
 124 171 131 216 138 251 c 2
 240 729 l 1
 334 729 l 1
 225 217 l 2
 222 202 220 187 220 173 c 0
 220 104 284 58 381 58 c 0
 495 58 576 118 597 217 c 2
 706 729 l 1
EndSplineSet
EndChar

StartChar: V
Encoding: 86 86 54
Width: 667
Flags: MW
HStem: 0 20 709 20<185 282 282 282 701 800 800 800>
LayerCount: 2
Fore
SplineSet
392 0 m 1
 292 0 l 1
 185 729 l 1
 282 729 l 1
 365 112 l 1
 701 729 l 1
 800 729 l 1
 392 0 l 1
EndSplineSet
EndChar

StartChar: W
Encoding: 87 87 55
Width: 944
Flags: MW
HStem: 0 20 709 20<177 277 277 277 580 676 676 676 980 1084 1084 1084>
LayerCount: 2
Fore
SplineSet
744 0 m 1
 642 0 l 1
 601 592 l 1
 311 0 l 1
 209 0 l 1
 177 729 l 1
 277 729 l 1
 292 137 l 1
 580 729 l 1
 676 729 l 1
 717 137 l 1
 980 729 l 1
 1084 729 l 1
 744 0 l 1
EndSplineSet
EndChar

StartChar: X
Encoding: 88 88 56
Width: 667
Flags: MW
HStem: 0 20 709 20<194 307 307 307 680 794 794 794>
LayerCount: 2
Fore
SplineSet
471 374 m 1
 650 0 l 1
 535 0 l 1
 401 304 l 1
 137 0 l 1
 22 0 l 1
 361 374 l 1
 194 729 l 1
 307 729 l 1
 432 444 l 1
 680 729 l 1
 794 729 l 1
 471 374 l 1
EndSplineSet
EndChar

StartChar: Y
Encoding: 89 89 57
Width: 667
Flags: MW
HStem: 0 20 709 20<168 280 280 280 705 816 816 816>
LayerCount: 2
Fore
SplineSet
448 286 m 1
 387 0 l 1
 293 0 l 1
 354 286 l 1
 168 729 l 1
 280 729 l 1
 416 372 l 1
 705 729 l 1
 816 729 l 1
 448 286 l 1
EndSplineSet
EndChar

StartChar: Z
Encoding: 90 90 58
Width: 611
Flags: MW
HStem: 0 82<163 584> 647 82<212 601 195 737>
LayerCount: 2
Fore
SplineSet
737 729 m 1
 719 645 l 1
 163 82 l 1
 601 82 l 1
 584 0 l 1
 28 0 l 1
 46 84 l 1
 601 647 l 1
 195 647 l 1
 212 729 l 1
 737 729 l 1
EndSplineSet
EndChar

StartChar: bracketleft
Encoding: 91 91 59
Width: 278
Flags: MW
HStem: -213 72<118 205> 657 72<288 390 288 288>
LayerCount: 2
Fore
SplineSet
405 729 m 1
 390 657 l 1
 288 657 l 1
 118 -141 l 1
 220 -141 l 1
 205 -213 l 1
 19 -213 l 1
 219 729 l 1
 405 729 l 1
EndSplineSet
EndChar

StartChar: backslash
Encoding: 92 92 60
Width: 278
Flags: MW
HStem: -20 20 709 20<147 202 202 202>
LayerCount: 2
Fore
SplineSet
147 729 m 1
 202 729 l 1
 280 -20 l 1
 225 -20 l 1
 147 729 l 1
EndSplineSet
EndChar

StartChar: bracketright
Encoding: 93 93 61
Width: 278
Flags: MW
HStem: -213 72<-23 95 -8 95 -8 164> 657 72<177 265 162 364>
LayerCount: 2
Fore
SplineSet
-23 -213 m 1
 -8 -141 l 1
 95 -141 l 1
 265 657 l 1
 162 657 l 1
 177 729 l 1
 364 729 l 1
 164 -213 l 1
 -23 -213 l 1
EndSplineSet
EndChar

StartChar: asciicircum
Encoding: 94 94 62
Width: 469
Flags: W
LayerCount: 2
Fore
SplineSet
349 709 m 1
 422 709 l 1
 496 329 l 1
 427 329 l 1
 369 628 l 1
 187 329 l 1
 115 329 l 1
 349 709 l 1
EndSplineSet
EndChar

StartChar: underscore
Encoding: 95 95 63
Width: 556
Flags: MW
HStem: -176 50<-48 540 -59 551>
LayerCount: 2
Fore
SplineSet
551 -126 m 1
 540 -176 l 1
 -59 -176 l 1
 -48 -126 l 1
 551 -126 l 1
EndSplineSet
EndChar

StartChar: quoteleft
Encoding: 8216 8216 64
Width: 222
Flags: MW
HStem: 477 103<231 256 163 278>
LayerCount: 2
Fore
SplineSet
256 477 m 1
 163 477 l 1
 184 577 l 2
 202 658 246 705 308 709 c 1
 300 670 l 1
 262 666 242 640 231 580 c 1
 278 580 l 1
 256 477 l 1
EndSplineSet
EndChar

StartChar: a
Encoding: 97 97 65
Width: 556
Flags: MW
HStem: -23 72<213.5 226.5> 462 77<350.5 402>
VStem: 65 88<94 131.5 94 134> 478 90<396 460>
LayerCount: 2
Fore
SplineSet
552 51 m 1
 539 -14 l 1
 533 -15 527 -17 525 -17 c 0
 501 -23 498 -23 486 -23 c 0
 438 -23 410 1 410 43 c 2
 410 47 l 1
 410 54 l 1
 369 18 353 8 322 -3 c 0
 285 -16 245 -23 208 -23 c 0
 119 -23 65 25 65 105 c 0
 65 163 95 216 147 249 c 0
 196 280 238 290 372 302 c 0
 445 309 464 320 473 361 c 1
 476 379 l 2
 477 387 478 394 478 398 c 0
 478 435 432 462 372 462 c 0
 329 462 287 448 265 425 c 0
 251 411 244 397 235 369 c 1
 151 369 l 1
 170 480 254 539 394 539 c 0
 499 539 568 494 568 426 c 0
 568 416 568 416 562 389 c 2
 498 88 l 2
 497 85 497 81 497 78 c 0
 497 58 509 49 535 49 c 0
 539 49 543 49 552 51 c 1
431 164 m 2
 451 258 l 1
 407 243 399 242 305 229 c 0
 255 222 226 214 202 199 c 0
 172 181 153 148 153 115 c 0
 153 73 185 49 242 49 c 0
 330 49 418 102 431 164 c 2
EndSplineSet
EndChar

StartChar: b
Encoding: 98 98 66
Width: 556
Flags: W
HStem: -23 77<262 327.5> 0 20 462 77<390.5 419.5> 709 20<209 293 293 293>
VStem: 500 88<295 367>
LayerCount: 2
Fore
SplineSet
209 729 m 1x58
 293 729 l 1
 235 454 l 1
 266 487 279 499 296 509 c 0
 326 527 370 539 411 539 c 0
 512 539 588 455 588 343 c 0
 588 240 544 126 477 55 c 0
 432 7 361 -23 294 -23 c 0xb8
 220 -23 178 6 146 78 c 1
 129 0 l 1
 54 0 l 1
 209 729 l 1x58
383 462 m 0
 323 462 270 427 231 361 c 0
 203 313 185 245 185 183 c 0
 185 104 228 54 296 54 c 0
 361 54 413 87 454 155 c 0
 483 203 500 266 500 324 c 0
 500 410 456 462 383 462 c 0
EndSplineSet
EndChar

StartChar: c
Encoding: 99 99 67
Width: 500
Flags: MW
HStem: -23 77<242 304> 462 77<336 397.5>
VStem: 76 88<146 213 142 216> 468 86<390.5 398.5>
LayerCount: 2
Fore
SplineSet
551 348 m 1
 467 348 l 1
 468 357 468 364 468 370 c 0
 468 427 429 462 366 462 c 0
 305 462 256 432 218 373 c 0
 185 321 164 245 164 181 c 0
 164 103 207 54 277 54 c 0
 349 54 404 98 434 180 c 1
 518 180 l 1
 502 124 486 90 460 60 c 0
 414 6 345 -23 263 -23 c 0
 198 -23 154 -4 120 39 c 0
 92 74 76 122 76 170 c 0
 76 262 110 371 157 432 c 0
 210 501 291 539 381 539 c 0
 438 539 479 524 510 492 c 0
 536 465 554 425 554 392 c 0
 554 389 553 378 552 363 c 2
 551 348 l 1
EndSplineSet
EndChar

StartChar: d
Encoding: 100 100 68
Width: 556
Flags: W
HStem: -23 77<241 266> 0 20 462 77<323 392.5> 709 20<566 650 650 650>
VStem: 73 88<147 218.5 147 275.5>
LayerCount: 2
Fore
SplineSet
650 729 m 1xb8
 495 0 l 1
 414 0 l 1x78
 430 76 l 1
 416 48 403 33 373 15 c 0
 333 -10 288 -23 244 -23 c 0
 140 -23 73 53 73 170 c 0
 73 381 197 539 363 539 c 0
 434 539 474 513 506 448 c 1
 566 729 l 1
 650 729 l 1xb8
355 462 m 0
 291 462 243 430 205 361 c 0
 177 310 161 247 161 190 c 0
 161 104 204 54 278 54 c 0xa8
 339 54 388 88 427 155 c 0
 457 207 473 267 473 327 c 0
 473 412 430 462 355 462 c 0
EndSplineSet
EndChar

StartChar: e
Encoding: 101 101 69
Width: 556
Flags: MW
HStem: -23 77<256.5 329.5 256.5 342> 234 72<195 489 195 563 177 489> 462 77<345.5 411.5>
VStem: 84 88<146 199 145.5 214> 492 88<352 376.5>
LayerCount: 2
Fore
SplineSet
563 234 m 1
 177 234 l 1
 173 219 172 210 172 188 c 0
 172 103 217 54 296 54 c 0
 363 54 416 90 452 159 c 1
 536 159 l 1
 505 51 402 -23 282 -23 c 0
 225 -23 181 -7 146 27 c 0
 108 64 84 119 84 173 c 0
 84 255 121 368 168 431 c 0
 219 498 302 539 389 539 c 0
 497 539 580 465 580 368 c 0
 580 336 577 312 563 234 c 1
195 306 m 1
 489 306 l 1
 491 322 492 330 492 339 c 0
 492 414 447 462 376 462 c 0
 295 462 221 398 195 306 c 1
EndSplineSet
EndChar

StartChar: f
Encoding: 102 102 70
Width: 278
Flags: MW
HStem: 0 20 457 67<130 186 116 200 284 356> 660 72<349 374.5>
LayerCount: 2
Fore
SplineSet
370 524 m 1
 356 457 l 1
 270 457 l 1
 173 0 l 1
 89 0 l 1
 186 457 l 1
 116 457 l 1
 130 524 l 1
 200 524 l 1
 219 613 l 2
 235 687 291 732 368 732 c 0
 384 732 395 731 413 727 c 1
 398 658 l 1
 385 660 378 660 371 660 c 0
 327 660 310 644 299 593 c 2
 284 524 l 1
 370 524 l 1
EndSplineSet
EndChar

StartChar: g
Encoding: 103 103 71
Width: 556
Flags: W
HStem: -218 72<192 249> -17 72<237.5 278.5> 462 77<331 386 330.5 395.5> 504 20<525 601 601 601>
VStem: 74 88<144 214 144 214.5>
LayerCount: 2
Fore
SplineSet
525 524 m 1x18
 601 524 l 1x18
 508 85 l 2
 481 -42 454 -103 404 -151 c 0
 359 -194 289 -218 209 -218 c 0
 101 -218 32 -168 32 -91 c 0
 32 -88 33 -78 34 -60 c 1
 118 -60 l 1
 118 -68 l 1
 118 -74 l 2
 118 -119 158 -146 226 -146 c 0
 333 -146 386 -92 415 44 c 2
 419 63 l 1
 368 10 310 -17 247 -17 c 0
 145 -17 74 59 74 168 c 0
 74 261 111 372 165 439 c 0
 214 501 292 539 369 539 c 0xe8
 403 539 435 528 461 509 c 0
 483 493 493 479 508 446 c 1
 525 524 l 1x18
363 462 m 0x68
 299 462 244 426 208 360 c 1
 178 308 162 244 162 184 c 0
 162 104 204 55 271 55 c 0
 331 55 390 93 423 154 c 0
 451 204 469 277 469 339 c 0
 469 414 428 462 363 462 c 0x68
EndSplineSet
EndChar

StartChar: h
Encoding: 104 104 72
Width: 556
Flags: MW
HStem: 0 20 467 72<401.5 425.5> 709 20<225 309 309 309>
VStem: 485 89<407 407.5>
LayerCount: 2
Fore
SplineSet
225 729 m 1
 309 729 l 1
 252 459 l 1
 316 518 364 539 439 539 c 0
 524 539 574 492 574 413 c 0
 574 401 573 389 570 376 c 2
 490 0 l 1
 406 0 l 1
 479 343 l 2
 485 370 485 370 485 382 c 0
 485 433 451 467 400 467 c 0
 309 467 239 399 215 289 c 2
 154 0 l 1
 70 0 l 1
 225 729 l 1
EndSplineSet
EndChar

StartChar: i
Encoding: 105 105 73
Width: 222
Flags: MW
HStem: 0 20 504 20<177 261 261 261> 626 103<221 283 199 305>
LayerCount: 2
Fore
SplineSet
261 524 m 1
 150 0 l 1
 66 0 l 1
 177 524 l 1
 261 524 l 1
305 729 m 1
 283 626 l 1
 199 626 l 1
 221 729 l 1
 305 729 l 1
EndSplineSet
EndChar

StartChar: j
Encoding: 106 106 74
Width: 222
Flags: MW
HStem: -218 72<-28 0.5 -28 11.5> 504 20<180 264 264 264> 626 103<224 286 202 308>
LayerCount: 2
Fore
SplineSet
180 524 m 1
 264 524 l 1
 130 -109 l 2
 112 -191 69 -218 -46 -218 c 0
 -55 -218 -58 -218 -65 -215 c 1
 -50 -144 l 1
 -36 -146 -31 -146 -25 -146 c 0
 26 -146 41 -132 53 -76 c 2
 180 524 l 1
308 729 m 1
 286 626 l 1
 202 626 l 1
 224 729 l 1
 308 729 l 1
EndSplineSet
EndChar

StartChar: k
Encoding: 107 107 75
Width: 500
Flags: MW
HStem: 0 20 504 20<476 584 584 584> 709 20<213 297 297 297>
LayerCount: 2
Fore
SplineSet
297 729 m 1
 207 306 l 1
 476 524 l 1
 584 524 l 1
 362 343 l 1
 502 0 l 1
 406 0 l 1
 292 291 l 1
 185 203 l 1
 142 0 l 1
 58 0 l 1
 213 729 l 1
 297 729 l 1
EndSplineSet
EndChar

StartChar: l
Encoding: 108 108 76
Width: 222
Flags: MW
HStem: 0 20 709 20<223 307 307 307>
LayerCount: 2
Fore
SplineSet
307 729 m 1
 152 0 l 1
 68 0 l 1
 223 729 l 1
 307 729 l 1
EndSplineSet
EndChar

StartChar: m
Encoding: 109 109 77
Width: 833
Flags: W
HStem: 0 20 467 72<388.5 400.5 692 711.5> 504 20<182 258 258 258>
VStem: 764 88<382.5 441.5>
LayerCount: 2
Fore
SplineSet
182 524 m 1xb0
 258 524 l 1x30
 245 459 l 1
 309 519 354 539 423 539 c 0
 489 539 528 512 544 456 c 1
 603 513 659 539 725 539 c 0
 772 539 798 529 820 505 c 0
 840 483 852 455 852 428 c 0
 852 417 849 384 846 373 c 2
 767 0 l 1
 683 0 l 1
 755 341 l 1
 764 375 764 375 764 390 c 0
 764 438 735 467 688 467 c 0
 616 467 547 407 531 329 c 2
 461 0 l 1
 377 0 l 1
 454 361 l 2
 456 374 458 387 458 398 c 0
 458 440 425 467 376 467 c 0xd0
 309 467 241 405 225 329 c 2
 155 0 l 1
 71 0 l 1
 182 524 l 1xb0
EndSplineSet
EndChar

StartChar: n
Encoding: 110 110 78
Width: 556
Flags: W
HStem: 0 20 467 72<400 424> 504 20<181 257 257 257>
VStem: 486 88<407.5 409>
LayerCount: 2
Fore
SplineSet
181 524 m 1xb0
 257 524 l 1x30
 244 459 l 1
 296 512 362 539 438 539 c 0
 521 539 574 490 574 414 c 0
 574 401 573 389 570 376 c 2
 490 0 l 1
 406 0 l 1
 480 349 l 2
 484 366 486 380 486 386 c 0
 486 432 449 467 399 467 c 0xd0
 309 467 239 399 215 289 c 2
 154 0 l 1
 70 0 l 1
 181 524 l 1xb0
EndSplineSet
EndChar

StartChar: o
Encoding: 111 111 79
Width: 556
Flags: MW
HStem: -23 77<247.5 317> 462 77<338 408>
VStem: 80 88<143.5 206.5> 488 88<308.5 374>
LayerCount: 2
Fore
SplineSet
384 539 m 0
 442 539 487 523 521 490 c 0
 556 456 576 405 576 352 c 0
 576 265 543 156 497 93 c 0
 441 16 365 -23 269 -23 c 0
 157 -23 80 53 80 164 c 0
 80 249 113 359 158 423 c 0
 209 497 291 539 384 539 c 0
371 462 m 0
 305 462 248 425 212 357 c 0
 185 307 168 242 168 184 c 0
 168 103 212 54 283 54 c 0
 352 54 406 90 444 159 c 0
 472 209 488 274 488 333 c 0
 488 415 445 462 371 462 c 0
EndSplineSet
EndChar

StartChar: p
Encoding: 112 112 80
Width: 556
Flags: W
HStem: -23 77<265 333> 462 77<373 416.5> 504 20<164 245 245 245>
VStem: 498 88<296.5 367.5>
LayerCount: 2
Fore
SplineSet
7 -213 m 1xd0
 164 524 l 1
 245 524 l 1x30
 227 440 l 1
 254 496 334 539 412 539 c 0
 519 539 586 464 586 344 c 0
 586 245 552 142 498 75 c 0
 447 13 372 -23 294 -23 c 0
 223 -23 182 3 151 68 c 1
 91 -213 l 1
 7 -213 l 1xd0
379 462 m 0xd0
 317 462 267 428 230 361 c 1
 200 309 183 244 183 184 c 0
 183 104 228 54 302 54 c 0
 367 54 417 87 454 155 c 0
 481 205 498 269 498 324 c 0
 498 411 454 462 379 462 c 0xd0
EndSplineSet
EndChar

StartChar: q
Encoding: 113 113 81
Width: 556
Flags: W
HStem: -23 77<240.5 268.5> 462 77<332 397.5> 504 20<532 607 607 607>
VStem: 71 88<146 215 146 224.5>
LayerCount: 2
Fore
SplineSet
450 -213 m 1x30
 366 -213 l 1
 425 62 l 1
 391 28 379 17 363 7 c 0
 334 -11 289 -23 248 -23 c 0
 147 -23 71 61 71 173 c 0
 71 276 115 390 182 461 c 0
 227 509 298 539 366 539 c 0xd0
 439 539 490 504 513 438 c 1
 532 524 l 1
 607 524 l 1
 450 -213 l 1x30
364 462 m 0
 300 462 244 427 205 361 c 0
 178 316 159 244 159 186 c 0
 159 106 205 54 276 54 c 0
 336 54 389 89 428 155 c 0
 456 203 474 271 474 333 c 0
 474 412 431 462 364 462 c 0
EndSplineSet
EndChar

StartChar: r
Encoding: 114 114 82
Width: 333
Flags: W
HStem: 0 20 504 20<180 256 256 256> 519 20<375 409.5>
LayerCount: 2
Fore
SplineSet
180 524 m 1xc0
 256 524 l 1x40
 239 442 l 1
 302 513 346 539 404 539 c 0x20
 415 539 423 538 436 536 c 1
 418 451 l 1
 308 455 237 394 211 272 c 2
 153 0 l 1
 69 0 l 1
 180 524 l 1xc0
EndSplineSet
EndChar

StartChar: s
Encoding: 115 115 83
Width: 500
Flags: W
HStem: -23 77<227 283.5 227 321.5> 462 77<320.5 368.5>
VStem: 61 93<106 113> 123 88<354 368.5> 405 88<140.5 154.5> 431 89<414.5 420>
LayerCount: 2
Fore
SplineSet
514 378 m 1xd4
 430 378 l 1
 431 386 431 394 431 400 c 0
 431 440 398 462 339 462 c 0
 295 462 265 452 241 429 c 0
 223 412 211 387 211 367 c 0xd4
 211 341 240 321 296 307 c 2
 372 288 l 2
 460 266 493 234 493 173 c 0
 493 54 396 -23 247 -23 c 0
 130 -23 61 25 61 105 c 0
 61 121 62 133 67 156 c 1
 156 156 l 1
 155 146 154 137 154 131 c 0
 154 81 192 54 262 54 c 0
 305 54 348 67 373 88 c 0
 390 101 405 131 405 150 c 0xe8
 405 159 399 174 392 183 c 0
 383 194 368 200 335 209 c 2
 261 228 l 2
 158 255 123 284 123 345 c 0
 123 392 146 444 183 479 c 0
 224 518 285 539 356 539 c 0
 454 539 520 491 520 421 c 0
 520 408 519 399 514 378 c 1xd4
EndSplineSet
EndChar

StartChar: t
Encoding: 116 116 84
Width: 278
Flags: MW
HStem: -23 72<158.5 225.5> 457 67<122 179 108 193 277 352>
VStem: 97 86<31.5 77.5>
LayerCount: 2
Fore
SplineSet
366 524 m 1
 352 457 l 1
 263 457 l 1
 185 90 l 2
 184 84 183 79 183 76 c 0
 183 60 197 49 219 49 c 0
 232 49 234 49 267 57 c 1
 251 -16 l 1
 236 -20 207 -23 186 -23 c 0
 131 -23 97 7 97 56 c 0
 97 66 98 77 100 87 c 2
 179 457 l 1
 108 457 l 1
 122 524 l 1
 193 524 l 1
 224 668 l 1
 308 668 l 1
 277 524 l 1
 366 524 l 1
EndSplineSet
EndChar

StartChar: u
Encoding: 117 117 85
Width: 556
Flags: W
HStem: -23 72<240.5 265> 0 20 504 20<177 261 261 261 510 594 594 594>
VStem: 88 91<52 130>
LayerCount: 2
Fore
SplineSet
483 0 m 1x70
 407 0 l 1x50
 419 57 l 1
 361 1 304 -23 226 -23 c 0
 140 -23 88 18 88 86 c 0
 88 99 89 110 91 120 c 2
 177 524 l 1
 261 524 l 1
 182 153 l 2
 180 143 179 134 179 126 c 0
 179 78 213 49 268 49 c 0xb0
 354 49 424 119 447 227 c 2
 510 524 l 1
 594 524 l 1
 483 0 l 1x70
EndSplineSet
EndChar

StartChar: v
Encoding: 118 118 86
Width: 500
Flags: MW
HStem: 0 20 504 20<122 214 214 214 507 598 598 598>
LayerCount: 2
Fore
SplineSet
287 0 m 1
 196 0 l 1
 122 524 l 1
 214 524 l 1
 263 102 l 1
 507 524 l 1
 598 524 l 1
 287 0 l 1
EndSplineSet
EndChar

StartChar: w
Encoding: 119 119 87
Width: 722
Flags: MW
HStem: 0 20 504 20<118 209 209 209 417 522 522 522 729 820 820 820>
LayerCount: 2
Fore
SplineSet
556 0 m 1
 461 0 l 1
 449 418 l 1
 254 0 l 1
 158 0 l 1
 118 524 l 1
 209 524 l 1
 228 116 l 1
 417 524 l 1
 522 524 l 1
 533 116 l 1
 729 524 l 1
 820 524 l 1
 556 0 l 1
EndSplineSet
EndChar

StartChar: x
Encoding: 120 120 88
Width: 500
Flags: MW
HStem: 0 20 504 20<138 231 231 231 486 583 583 583>
LayerCount: 2
Fore
SplineSet
350 267 m 1
 473 0 l 1
 379 0 l 1
 289 200 l 1
 115 0 l 1
 17 0 l 1
 256 267 l 1
 138 524 l 1
 231 524 l 1
 319 332 l 1
 486 524 l 1
 583 524 l 1
 350 267 l 1
EndSplineSet
EndChar

StartChar: y
Encoding: 121 121 89
Width: 500
Flags: MW
HStem: -218 81<62 86.5 62 92.5> 504 20<132 222 222 222 501 590 590 590>
LayerCount: 2
Fore
SplineSet
501 524 m 1
 590 524 l 1
 222 -110 l 2
 179 -185 128 -218 57 -218 c 0
 38 -218 26 -216 8 -208 c 1
 24 -133 l 1
 53 -137 57 -137 67 -137 c 0
 106 -137 121 -127 148 -85 c 2
 200 -4 l 1
 132 524 l 1
 222 524 l 1
 268 117 l 1
 501 524 l 1
EndSplineSet
EndChar

StartChar: z
Encoding: 122 122 90
Width: 500
Flags: MW
HStem: 0 72<147 458> 452 72<165 444 150 557>
LayerCount: 2
Fore
SplineSet
557 524 m 1
 539 449 l 1
 147 72 l 1
 473 72 l 1
 458 0 l 1
 31 0 l 1
 49 74 l 1
 444 452 l 1
 150 452 l 1
 165 524 l 1
 557 524 l 1
EndSplineSet
EndChar

StartChar: braceleft
Encoding: 123 123 91
Width: 334
Flags: W
HStem: 709 20<384 431 431 431>
VStem: 98 77<-159.5 -109> 148 76<150 172.5>
LayerCount: 2
Fore
SplineSet
431 729 m 1xa0
 417 664 l 1
 401 664 l 2
 351 664 334 649 323 597 c 2
 284 416 l 1
 270 345 232 289 176 259 c 1
 213 234 224 212 224 161 c 0xa0
 224 139 222 119 218 100 c 2
 179 -81 l 2
 176 -93 175 -104 175 -114 c 0
 175 -138 191 -148 229 -148 c 2
 245 -148 l 1
 231 -213 l 1
 184 -213 l 2
 130 -213 98 -184 98 -135 c 0xc0
 98 -118 100 -99 104 -81 c 2
 139 85 l 2
 145 114 148 136 148 152 c 0
 148 193 129 217 91 223 c 1
 106 293 l 1
 164 303 194 342 212 431 c 1
 248 597 l 1
 262 677 315 728 384 729 c 1
 431 729 l 1xa0
EndSplineSet
EndChar

StartChar: bar
Encoding: 124 124 92
Width: 260
Flags: MW
HStem: 709 20<255 315 315 315>
LayerCount: 2
Fore
SplineSet
255 729 m 1
 315 729 l 1
 114 -212 l 1
 54 -212 l 1
 255 729 l 1
EndSplineSet
EndChar

StartChar: braceright
Encoding: 125 125 93
Width: 334
Flags: W
HStem: 709 20<184 231 231 256.5>
VStem: 191 76<340.5 369.5 340.5 370.5> 240 77<640 642>
LayerCount: 2
Fore
SplineSet
-16 -213 m 1xc0
 -2 -148 l 1
 14 -148 l 2
 64 -148 81 -133 92 -81 c 2
 131 100 l 1
 148 190 173 226 239 257 c 1
 206 286 191 319 191 362 c 0xc0
 191 379 193 397 197 416 c 2
 236 597 l 2
 239 609 240 620 240 630 c 0
 240 654 224 664 186 664 c 2
 170 664 l 1
 184 729 l 1
 231 729 l 2
 282 729 317 696 317 647 c 0xa0
 317 633 315 616 311 597 c 2
 276 431 l 2
 270 400 267 380 267 359 c 0
 267 322 287 299 324 293 c 1
 309 223 l 1
 251 214 217 169 203 85 c 1
 167 -81 l 2
 149 -168 99 -217 31 -213 c 1
 -16 -213 l 1xc0
EndSplineSet
EndChar

StartChar: asciitilde
Encoding: 126 126 94
Width: 584
Flags: MW
HStem: 268 68<467 477> 372 66<244.5 265>
LayerCount: 2
Fore
SplineSet
542 411 m 1
 594 411 l 1
 587 370 578 347 560 323 c 0
 535 289 496 268 458 268 c 0
 434 268 406 278 384 294 c 2
 299 357 l 2
 288 365 270 372 260 372 c 0
 229 372 205 345 189 293 c 1
 137 293 l 1
 162 387 211 438 275 438 c 0
 294 438 311 433 326 422 c 2
 428 353 l 2
 446 341 460 336 474 336 c 0
 510 336 531 359 542 411 c 1
EndSplineSet
EndChar

StartChar: exclamdown
Encoding: 161 161 95
Width: 333
Flags: MW
HStem: 421 103<211 317 233 295>
LayerCount: 2
Fore
SplineSet
76 -205 m 1
 150 145 l 1
 217 356 l 1
 257 356 l 1
 234 145 l 1
 160 -205 l 1
 76 -205 l 1
211 421 m 1
 233 524 l 1
 317 524 l 1
 295 421 l 1
 211 421 l 1
EndSplineSet
EndChar

StartChar: cent
Encoding: 162 162 96
Width: 556
Flags: MW
VStem: 96 88<148 226 148 228.5> 499 86<368 420.5>
LayerCount: 2
Fore
SplineSet
407 463 m 1
 320 53 l 1
 391 61 434 98 465 180 c 1
 549 180 l 1
 514 49 438 -15 304 -23 c 1
 283 -120 l 1
 243 -120 l 1
 264 -22 l 1
 161 -11 96 64 96 171 c 0
 96 286 142 402 214 467 c 0
 262 510 312 531 383 538 c 1
 402 628 l 1
 442 628 l 1
 423 538 l 1
 448 538 465 535 485 528 c 0
 542 507 585 449 585 392 c 0
 585 389 584 378 583 363 c 2
 582 348 l 1
 498 348 l 1
 499 357 499 365 499 371 c 0
 499 407 482 437 455 451 c 0
 444 457 443 457 407 463 c 1
281 56 m 1
 366 460 l 1
 328 453 302 440 276 415 c 0
 221 362 184 269 184 183 c 0
 184 113 221 64 281 56 c 1
EndSplineSet
EndChar

StartChar: sterling
Encoding: 163 163 97
Width: 556
Flags: W
HStem: -23 93<410 425.5> 321 55<107 190 107 208 95 190 298 435 298 298> 652 77<376.5 459.5>
VStem: 160 96<480 537.5 480 545> 218 83<266.5 278.5> 540 88<568 584>
LayerCount: 2
Fore
SplineSet
447 376 m 1xf4
 435 321 l 1
 298 321 l 1
 299 310 l 2
 300 297 301 287 301 283 c 0
 301 250 283 201 258 165 c 0
 243 145 227 130 183 96 c 1
 156 76 l 2
 149 71 142 66 136 61 c 1
 193 89 230 100 269 100 c 0
 292 100 299 99 322 91 c 0
 366 76 396 70 424 70 c 0
 456 70 475 77 518 101 c 1
 543 31 l 1
 500 -4 450 -23 401 -23 c 0
 364 -23 330 -14 262 12 c 0
 242 20 222 23 199 23 c 0
 162 23 128 12 81 -14 c 1
 44 52 l 1
 162 129 218 200 218 271 c 0xe8
 218 286 217 291 208 321 c 1
 95 321 l 1
 107 376 l 1
 190 376 l 1
 187 384 184 392 181 398 c 0
 164 439 160 455 160 480 c 0
 160 610 295 729 442 729 c 0
 553 729 628 669 628 579 c 0
 628 557 626 539 619 497 c 1
 531 497 l 1
 538 522 540 536 540 554 c 0
 540 614 495 652 424 652 c 0
 329 652 256 583 256 492 c 0
 256 468 257 462 272 420 c 0
 281 397 281 396 287 376 c 1
 447 376 l 1xf4
EndSplineSet
EndChar

StartChar: fraction
Encoding: 8260 8260 98
Width: 278
Flags: MW
HStem: -20 20
LayerCount: 2
Fore
SplineSet
484 709 m 1
 542 709 l 1
 -65 -20 l 1
 -123 -20 l 1
 484 709 l 1
EndSplineSet
EndChar

StartChar: yen
Encoding: 165 165 99
Width: 556
Flags: MW
HStem: 0 20 175 51<111 274 100 285 373 535> 303 51<138 292 138 302 127 292 419 562>
LayerCount: 2
Fore
SplineSet
573 354 m 1
 562 303 l 1
 390 303 l 1
 373 226 l 1
 545 226 l 1
 535 175 l 1
 362 175 l 1
 325 0 l 1
 237 0 l 1
 274 175 l 1
 100 175 l 1
 111 226 l 1
 285 226 l 1
 302 303 l 1
 127 303 l 1
 138 354 l 1
 292 354 l 1
 162 709 l 1
 247 709 l 1
 363 387 l 1
 611 709 l 1
 696 709 l 1
 419 354 l 1
 573 354 l 1
EndSplineSet
EndChar

StartChar: florin
Encoding: 402 402 100
Width: 556
Flags: MW
HStem: -212 77<43 76.5> 392 72<240 337 225 365 454 552 240 425> 661 77<578.5 610.5>
LayerCount: 2
Fore
SplineSet
567 464 m 1
 552 392 l 1
 425 392 l 1
 267 -5 l 2
 211 -147 133 -212 20 -212 c 0
 -3 -212 -15 -210 -32 -202 c 1
 3 -116 l 1
 20 -130 33 -135 53 -135 c 0
 103 -135 141 -99 172 -21 c 2
 337 392 l 1
 225 392 l 1
 240 464 l 1
 365 464 l 1
 408 567 l 2
 451 671 535 738 621 738 c 0
 647 738 671 732 696 719 c 1
 650 641 l 1
 630 656 619 661 602 661 c 0
 555 661 513 617 481 533 c 2
 454 464 l 1
 567 464 l 1
EndSplineSet
EndChar

StartChar: section
Encoding: 167 167 101
Width: 556
Flags: W
HStem: -213 77<212.5 257> 504 20<491 575 491 491> 652 77<390 443.5>
VStem: 63 88<-81.5 -64.5> 104 88<293 294.5> 221 92<541.5 579 541.5 589.5> 350 92<-36.5 -19.5> 471 88<245 246> 501 88<584.5 598.5>
LayerCount: 2
Fore
SplineSet
575 524 m 1xee80
 491 524 l 1
 498 544 501 558 501 575 c 0xe880
 501 622 469 652 418 652 c 0
 362 652 313 605 313 553 c 0
 313 530 321 518 355 491 c 2
 482 390 l 2
 516 363 525 354 535 342 c 1
 551 320 559 296 559 267 c 0
 559 223 537 166 507 131 c 0
 484 104 452 84 412 71 c 1
 434 41 442 18 442 -16 c 0
 442 -57 422 -104 388 -143 c 0
 348 -188 289 -213 225 -213 c 0
 127 -213 63 -159 63 -75 c 0
 63 -54 66 -40 74 -14 c 1
 159 -14 l 1
 153 -35 151 -46 151 -59 c 0xf7
 151 -104 187 -136 238 -136 c 0
 299 -136 350 -90 350 -34 c 0
 350 -5 340 14 312 38 c 2
 167 162 l 2
 121 201 104 232 104 274 c 0
 104 315 124 365 152 397 c 0
 175 423 187 431 247 463 c 1
 229 486 221 510 221 540 c 0
 221 639 324 729 436 729 c 0
 526 729 589 674 589 594 c 0
 589 575 588 566 579 541 c 1
 577 532 577 532 575 524 c 1xee80
236 229 m 2
 374 108 l 1
 438 141 471 183 471 231 c 0xe1
 471 261 451 296 418 322 c 2
 287 428 l 1
 217 388 192 357 192 309 c 0
 192 277 202 258 236 229 c 2
EndSplineSet
EndChar

StartChar: currency
Encoding: 164 164 102
Width: 556
Flags: MW
HStem: 160 77<299.5 328.5> 448 77<368 394>
VStem: 156 79<298.5 320.5> 458 79<357.5 387.5>
LayerCount: 2
Fore
SplineSet
526 191 m 1
 456 137 l 1
 414 190 l 1
 386 171 348 160 309 160 c 0
 269 160 239 168 219 185 c 1
 154 133 l 1
 110 191 l 1
 170 240 l 1
 161 258 156 280 156 305 c 0
 156 336 165 368 181 399 c 0
 183 402 194 418 214 445 c 1
 172 500 l 1
 238 556 l 1
 283 498 l 1
 311 514 351 525 385 525 c 0
 423 525 458 514 478 496 c 1
 546 552 l 1
 593 494 l 1
 524 438 l 1
 534 422 537 407 537 381 c 0
 537 334 513 274 483 245 c 1
 526 191 l 1
369 448 m 0
 300 448 235 388 235 323 c 0
 235 274 274 237 325 237 c 0
 394 237 458 298 458 364 c 0
 458 411 419 448 369 448 c 0
EndSplineSet
EndChar

StartChar: quotesingle
Encoding: 39 39 103
Width: 191
Flags: W
LayerCount: 2
Fore
SplineSet
198 709 m 1
 292 709 l 1
 268 598 l 1
 213 464 l 1
 173 464 l 1
 174 598 l 1
 198 709 l 1
EndSplineSet
EndChar

StartChar: quotedblleft
Encoding: 8220 8220 104
Width: 333
Flags: MW
HStem: 477 103<214 239 146 261 214 307 374 400>
LayerCount: 2
Fore
SplineSet
239 477 m 1
 146 477 l 1
 167 577 l 2
 184 656 228 704 288 709 c 1
 280 670 l 1
 245 665 224 638 214 580 c 1
 261 580 l 1
 239 477 l 1
400 477 m 1
 307 477 l 1
 328 577 l 2
 345 656 389 704 449 709 c 1
 441 670 l 1
 405 665 385 638 374 580 c 1
 422 580 l 1
 400 477 l 1
EndSplineSet
EndChar

StartChar: guillemotleft
Encoding: 171 171 105
Width: 556
Flags: W
LayerCount: 2
Fore
SplineSet
147 227 m 1
 166 316 l 1
 343 438 l 1
 325 355 l 1
 204 271 l 1
 290 188 l 1
 272 106 l 1
 147 227 l 1
352 227 m 1
 371 316 l 1
 548 438 l 1
 530 355 l 1
 409 271 l 1
 495 188 l 1
 477 106 l 1
 352 227 l 1
EndSplineSet
EndChar

StartChar: guilsinglleft
Encoding: 8249 8249 106
Width: 333
Flags: W
LayerCount: 2
Fore
SplineSet
140 227 m 1
 159 316 l 1
 336 438 l 1
 318 355 l 1
 197 271 l 1
 283 188 l 1
 265 106 l 1
 140 227 l 1
EndSplineSet
EndChar

StartChar: guilsinglright
Encoding: 8250 8250 107
Width: 333
Flags: W
LayerCount: 2
Fore
SplineSet
307 317 m 1
 288 228 l 1
 109 106 l 1
 127 189 l 1
 250 273 l 1
 162 356 l 1
 180 438 l 1
 307 317 l 1
EndSplineSet
EndChar

StartChar: fi
Encoding: 64257 64257 108
Width: 500
Flags: W
HStem: 0 20 457 67<124 180 110 194 278 350> 626 103<507 569 485 591> 660 72<343 368.5>
LayerCount: 2
Fore
SplineSet
364 524 m 1xd0
 350 457 l 1
 264 457 l 1
 167 0 l 1
 83 0 l 1
 180 457 l 1
 110 457 l 1
 124 524 l 1
 194 524 l 1
 213 613 l 2
 229 687 285 732 362 732 c 0
 378 732 389 731 407 727 c 1
 392 658 l 1
 379 660 372 660 365 660 c 0
 321 660 304 644 293 593 c 2
 278 524 l 1
 364 524 l 1xd0
547 524 m 1
 436 0 l 1
 352 0 l 1
 463 524 l 1
 547 524 l 1
591 729 m 1x20
 569 626 l 1
 485 626 l 1
 507 729 l 1
 591 729 l 1x20
EndSplineSet
EndChar

StartChar: fl
Encoding: 64258 64258 109
Width: 500
Flags: W
HStem: 0 20 457 67<130 186 116 200 284 356> 660 72<349 374.5> 709 20<501 585 585 585>
LayerCount: 2
Fore
SplineSet
370 524 m 1xe0
 356 457 l 1
 270 457 l 1
 173 0 l 1
 89 0 l 1
 186 457 l 1
 116 457 l 1
 130 524 l 1
 200 524 l 1
 219 613 l 2
 235 687 291 732 368 732 c 0
 384 732 395 731 413 727 c 1
 398 658 l 1
 385 660 378 660 371 660 c 0
 327 660 310 644 299 593 c 2
 284 524 l 1
 370 524 l 1xe0
585 729 m 1x90
 430 0 l 1
 346 0 l 1
 501 729 l 1
 585 729 l 1x90
EndSplineSet
EndChar

StartChar: endash
Encoding: 8211 8211 110
Width: 556
Flags: MW
HStem: 240 72<61 613 46 628>
LayerCount: 2
Fore
SplineSet
628 312 m 1
 613 240 l 1
 46 240 l 1
 61 312 l 1
 628 312 l 1
EndSplineSet
EndChar

StartChar: dagger
Encoding: 8224 8224 111
Width: 556
Flags: MW
HStem: 420 81<144 320 127 338 426 603 144 408>
LayerCount: 2
Fore
SplineSet
620 501 m 1
 603 420 l 1
 408 420 l 1
 282 -177 l 1
 194 -177 l 1
 320 420 l 1
 127 420 l 1
 144 501 l 1
 338 501 l 1
 382 709 l 1
 470 709 l 1
 426 501 l 1
 620 501 l 1
EndSplineSet
EndChar

StartChar: daggerdbl
Encoding: 8225 8225 112
Width: 556
Flags: MW
HStem: 31 81<68 241 51 258 346 520 68 329> 420 81<151 324 134 341 429 603 151 412>
LayerCount: 2
Fore
SplineSet
620 501 m 1
 603 420 l 1
 412 420 l 1
 346 112 l 1
 537 112 l 1
 520 31 l 1
 329 31 l 1
 285 -177 l 1
 197 -177 l 1
 241 31 l 1
 51 31 l 1
 68 112 l 1
 258 112 l 1
 324 420 l 1
 134 420 l 1
 151 501 l 1
 341 501 l 1
 385 709 l 1
 473 709 l 1
 429 501 l 1
 620 501 l 1
EndSplineSet
EndChar

StartChar: periodcentered
Encoding: 183 183 113
Width: 278
Flags: MW
HStem: 192 103<188 271 166 293>
LayerCount: 2
Fore
SplineSet
293 295 m 1
 271 192 l 1
 166 192 l 1
 188 295 l 1
 293 295 l 1
EndSplineSet
EndChar

StartChar: paragraph
Encoding: 182 182 114
Width: 537
Flags: MW
HStem: 665 64<460 543 460 460 607 663 607 607>
LayerCount: 2
Fore
SplineSet
677 729 m 1
 663 665 l 1
 607 665 l 1
 428 -178 l 1
 364 -178 l 1
 543 665 l 1
 460 665 l 1
 281 -178 l 1
 217 -178 l 1
 310 259 l 1
 206 262 145 328 145 436 c 0
 145 588 281 729 427 729 c 2
 677 729 l 1
EndSplineSet
EndChar

StartChar: bullet
Encoding: 8226 8226 115
Width: 350
Flags: W
LayerCount: 2
Fore
SplineSet
274 470 m 0
 334 470 376 430 376 372 c 0
 376 293 302 220 220 220 c 0
 164 220 120 263 120 317 c 0
 120 397 194 470 274 470 c 0
EndSplineSet
EndChar

StartChar: quotesinglbase
Encoding: 8218 8218 116
Width: 222
Flags: MW
HStem: 0 103<86 112 64 180>
LayerCount: 2
Fore
SplineSet
86 103 m 1
 180 103 l 1
 159 3 l 2
 142 -76 98 -124 37 -128 c 1
 45 -90 l 1
 81 -85 102 -57 112 0 c 1
 64 0 l 1
 86 103 l 1
EndSplineSet
EndChar

StartChar: quotedblbase
Encoding: 8222 8222 117
Width: 333
Flags: MW
HStem: 0 103<69 95 47 163 69 206 228 254>
LayerCount: 2
Fore
SplineSet
69 103 m 1
 163 103 l 1
 142 3 l 2
 125 -76 81 -124 20 -128 c 1
 28 -90 l 1
 64 -85 85 -57 95 0 c 1
 47 0 l 1
 69 103 l 1
228 103 m 1
 322 103 l 1
 301 3 l 2
 284 -76 240 -124 179 -128 c 1
 187 -90 l 1
 223 -85 244 -57 254 0 c 1
 206 0 l 1
 228 103 l 1
EndSplineSet
EndChar

StartChar: quotedblright
Encoding: 8221 8221 118
Width: 333
Flags: MW
HStem: 605 103<199 225 177 293 199 336 358 384>
LayerCount: 2
Fore
SplineSet
199 708 m 1
 293 708 l 1
 272 608 l 2
 255 529 211 481 150 477 c 1
 158 515 l 1
 194 520 215 548 225 605 c 1
 177 605 l 1
 199 708 l 1
358 708 m 1
 452 708 l 1
 431 608 l 2
 414 529 370 481 309 477 c 1
 317 515 l 1
 353 520 374 548 384 605 c 1
 336 605 l 1
 358 708 l 1
EndSplineSet
EndChar

StartChar: guillemotright
Encoding: 187 187 119
Width: 556
Flags: W
LayerCount: 2
Fore
SplineSet
319 317 m 1
 300 228 l 1
 121 106 l 1
 139 189 l 1
 262 273 l 1
 174 356 l 1
 192 438 l 1
 319 317 l 1
518 317 m 1
 499 228 l 1
 320 106 l 1
 338 189 l 1
 461 273 l 1
 373 356 l 1
 391 438 l 1
 518 317 l 1
EndSplineSet
EndChar

StartChar: ellipsis
Encoding: 8230 8230 120
Width: 1000
Flags: MW
HStem: 0 103<137 219 115 241 470 552 803 885>
LayerCount: 2
Fore
SplineSet
241 103 m 1
 219 0 l 1
 115 0 l 1
 137 103 l 1
 241 103 l 1
574 103 m 1
 552 0 l 1
 448 0 l 1
 470 103 l 1
 574 103 l 1
907 103 m 1
 885 0 l 1
 781 0 l 1
 803 103 l 1
 907 103 l 1
EndSplineSet
EndChar

StartChar: perthousand
Encoding: 8240 8240 121
Width: 1000
Flags: W
HStem: -20 20 -19 55<469.5 521 469.5 526 830.5 882> 221 55<500 550.5 861 911.5> 430 55<240.5 292 240.5 297> 670 55<271 321.5> 718 20<649 715 715 715>
VStem: 128 60<535 586.5 535 592.5> 357 60<86 137.5 86 143.5> 374 60<569.5 619.5> 603 60<120.5 170.5> 718 60<86 137.5 86 143.5> 964 60<120.5 170.5>
LayerCount: 2
Fore
SplineSet
649 738 m 1x8680
 715 738 l 1
 159 -20 l 1
 93 -20 l 1
 649 738 l 1x8680
314 725 m 0x7a80
 384 725 434 678 434 612 c 0
 434 515 347 430 247 430 c 0
 179 430 128 480 128 546 c 0
 128 639 218 725 314 725 c 0x7a80
301 670 m 0
 241 670 188 617 188 556 c 0
 188 514 219 485 262 485 c 0
 322 485 374 539 374 600 c 0
 374 639 342 670 301 670 c 0
543 276 m 0
 613 276 663 229 663 163 c 0
 663 66 576 -19 476 -19 c 0
 408 -19 357 31 357 97 c 0x7970
 357 190 447 276 543 276 c 0
530 221 m 0
 470 221 417 168 417 107 c 0
 417 65 448 36 491 36 c 0
 551 36 603 90 603 151 c 0
 603 190 571 221 530 221 c 0
904 276 m 0
 974 276 1024 229 1024 163 c 0
 1024 66 937 -19 837 -19 c 0
 769 -19 718 31 718 97 c 0
 718 190 808 276 904 276 c 0
891 221 m 0
 831 221 778 168 778 107 c 0
 778 65 809 36 852 36 c 0
 912 36 964 90 964 151 c 0
 964 190 932 221 891 221 c 0
EndSplineSet
EndChar

StartChar: questiondown
Encoding: 191 191 122
Width: 611
Flags: MW
HStem: -217 77<255.5 332 255.5 338> 421 103<364 476 386 454>
VStem: 86 95<-79.5 -49>
LayerCount: 2
Fore
SplineSet
344 325 m 1
 434 325 l 1
 422 270 l 2
 408 209 390 187 285 107 c 1
 213 50 181 1 181 -53 c 0
 181 -106 223 -140 288 -140 c 0
 376 -140 424 -93 446 17 c 1
 531 17 l 1
 500 -138 410 -217 266 -217 c 0
 199 -217 154 -200 121 -162 c 0
 99 -137 86 -104 86 -72 c 0
 86 -26 105 26 137 68 c 0
 157 94 182 117 230 154 c 1
 304 209 320 228 334 278 c 1
 344 325 l 1
364 421 m 1
 386 524 l 1
 476 524 l 1
 454 421 l 1
 364 421 l 1
EndSplineSet
EndChar

StartChar: grave
Encoding: 96 96 123
Width: 333
Flags: MW
HStem: 720 20<179 285 285 285>
LayerCount: 2
Fore
SplineSet
285 740 m 1
 357 592 l 1
 304 592 l 1
 179 740 l 1
 285 740 l 1
EndSplineSet
EndChar

StartChar: acute
Encoding: 180 180 124
Width: 333
Flags: MW
HStem: 720 20<346 458 458 458>
LayerCount: 2
Fore
SplineSet
346 740 m 1
 458 740 l 1
 278 592 l 1
 218 592 l 1
 346 740 l 1
EndSplineSet
EndChar

StartChar: circumflex
Encoding: 710 710 125
Width: 333
Flags: MW
HStem: 721 20<274 369 369 369>
LayerCount: 2
Fore
SplineSet
274 741 m 1
 369 741 l 1
 433 591 l 1
 370 591 l 1
 314 690 l 1
 210 591 l 1
 146 591 l 1
 274 741 l 1
EndSplineSet
EndChar

StartChar: tilde
Encoding: 732 732 126
Width: 333
Flags: W
HStem: 612 70<365 380 365 385.5> 644 70<221.5 236>
LayerCount: 2
Fore
SplineSet
418 719 m 1x80
 471 719 l 1
 450 654 408 612 363 612 c 0x80
 341 612 324 616 260 638 c 0
 249 642 239 644 233 644 c 0
 210 644 204 640 183 611 c 1
 130 611 l 1
 142 646 150 663 162 678 c 0
 178 699 208 714 234 714 c 0x40
 252 714 268 710 307 697 c 0
 333 688 360 682 370 682 c 0
 390 682 400 690 418 719 c 1x80
EndSplineSet
EndChar

StartChar: macron
Encoding: 175 175 127
Width: 333
Flags: MW
HStem: 627 69<175 435 160 450>
LayerCount: 2
Fore
SplineSet
450 696 m 1
 435 627 l 1
 160 627 l 1
 175 696 l 1
 450 696 l 1
EndSplineSet
EndChar

StartChar: breve
Encoding: 728 728 128
Width: 333
Flags: MW
HStem: 594 72<280.5 316.5> 709 20<170 223 223 223 415 471 471 471>
LayerCount: 2
Fore
SplineSet
170 729 m 1
 223 729 l 1
 223 721 l 1
 223 716 l 2
 223 686 256 666 305 666 c 0
 365 666 405 689 415 729 c 1
 471 729 l 1
 460 685 449 664 425 643 c 0
 392 613 341 594 292 594 c 0
 217 594 165 634 165 693 c 0
 165 703 166 711 170 729 c 1
EndSplineSet
EndChar

StartChar: dotaccent
Encoding: 729 729 129
Width: 333
Flags: MW
HStem: 612 103<266 348 244 370>
LayerCount: 2
Fore
SplineSet
370 715 m 1
 348 612 l 1
 244 612 l 1
 266 715 l 1
 370 715 l 1
EndSplineSet
EndChar

StartChar: dieresis
Encoding: 168 168 130
Width: 333
Flags: MW
HStem: 612 103<181 263 159 285 181 320 342 424>
LayerCount: 2
Fore
SplineSet
285 715 m 1
 263 612 l 1
 159 612 l 1
 181 715 l 1
 285 715 l 1
446 715 m 1
 424 612 l 1
 320 612 l 1
 342 715 l 1
 446 715 l 1
EndSplineSet
EndChar

StartChar: ring
Encoding: 730 730 131
Width: 333
Flags: MW
HStem: 579 44<287 311 287 315.5> 710 44<302.5 326>
VStem: 216 46<647.5 671 647.5 675.5> 351 45<662.5 686>
LayerCount: 2
Fore
SplineSet
324 754 m 0
 366 754 396 726 396 687 c 0
 396 630 344 579 287 579 c 0
 247 579 216 610 216 649 c 0
 216 702 270 754 324 754 c 0
316 710 m 0
 289 710 262 684 262 658 c 0
 262 637 277 623 297 623 c 0
 325 623 351 649 351 676 c 0
 351 696 336 710 316 710 c 0
EndSplineSet
EndChar

StartChar: cedilla
Encoding: 184 184 132
Width: 333
Flags: MW
HStem: -214 43<109 141.5 109 161.5> 0 20
VStem: 186 78<-132 -110>
LayerCount: 2
Fore
SplineSet
165 0 m 1
 206 0 l 1
 176 -56 l 1
 189 -54 193 -54 197 -54 c 0
 234 -54 264 -77 264 -105 c 0
 264 -169 204 -214 119 -214 c 0
 80 -214 53 -206 1 -180 c 1
 29 -142 l 1
 70 -164 95 -171 123 -171 c 0
 160 -171 186 -148 186 -116 c 0
 186 -104 172 -94 155 -94 c 0
 150 -94 149 -94 139 -96 c 0
 133 -97 133 -97 128 -98 c 1
 115 -92 l 1
 165 0 l 1
EndSplineSet
EndChar

StartChar: hungarumlaut
Encoding: 733 733 133
Width: 333
Flags: MW
HStem: 720 20<219 331 331 331 393 505 505 505>
LayerCount: 2
Fore
SplineSet
219 740 m 1
 331 740 l 1
 151 590 l 1
 91 590 l 1
 219 740 l 1
393 740 m 1
 505 740 l 1
 325 590 l 1
 265 590 l 1
 393 740 l 1
EndSplineSet
EndChar

StartChar: ogonek
Encoding: 731 731 134
Width: 333
Flags: MW
HStem: -205 45<156.5 183> 0 20
VStem: 35 75<-129 -111.5>
LayerCount: 2
Fore
SplineSet
165 0 m 1
 234 0 l 1
 227 -4 219 -8 212 -11 c 0
 161 -36 147 -46 130 -66 c 0
 117 -81 110 -100 110 -116 c 0
 110 -142 137 -160 176 -160 c 0
 203 -160 227 -157 246 -150 c 1
 237 -195 l 1
 216 -202 197 -205 169 -205 c 0
 84 -205 35 -178 35 -130 c 0
 35 -93 56 -59 94 -34 c 0
 113 -22 130 -13 165 0 c 1
EndSplineSet
EndChar

StartChar: caron
Encoding: 711 711 135
Width: 333
Flags: MW
HStem: 720 20<176 239 239 239 399 463 463 463>
LayerCount: 2
Fore
SplineSet
335 592 m 1
 240 592 l 1
 176 740 l 1
 239 740 l 1
 295 642 l 1
 399 740 l 1
 463 740 l 1
 335 592 l 1
EndSplineSet
EndChar

StartChar: emdash
Encoding: 8212 8212 136
Width: 1000
Flags: MW
HStem: 240 72<57 1053 42 1068>
LayerCount: 2
Fore
SplineSet
1068 312 m 1
 1053 240 l 1
 42 240 l 1
 57 312 l 1
 1068 312 l 1
EndSplineSet
EndChar

StartChar: AE
Encoding: 198 198 137
Width: 1000
Flags: MW
HStem: 0 82<579 950> 214 81<293 513 244 531> 332 82<650 983 632 1001> 647 82<505 605 505 505 699 1070 699 699>
LayerCount: 2
Fore
SplineSet
513 214 m 1
 244 214 l 1
 114 0 l 1
 11 0 l 1
 465 729 l 1
 1087 729 l 1
 1070 647 l 1
 699 647 l 1
 650 414 l 1
 1001 414 l 1
 983 332 l 1
 632 332 l 1
 579 82 l 1
 967 82 l 1
 950 0 l 1
 468 0 l 1
 513 214 l 1
531 295 m 1
 605 647 l 1
 505 647 l 1
 293 295 l 1
 531 295 l 1
EndSplineSet
EndChar

StartChar: ordfeminine
Encoding: 170 170 138
Width: 370
Flags: MW
HStem: 303 51<118 395 107 406> 399 50<231 252> 691 51<311 331>
VStem: 136 60<473.5 494.5 473.5 497.5>
LayerCount: 2
Fore
SplineSet
406 354 m 1
 395 303 l 1
 107 303 l 1
 118 354 l 1
 406 354 l 1
432 449 m 1
 423 405 l 1
 419 404 414 403 413 403 c 0
 395 399 394 399 387 399 c 0
 358 399 343 414 340 442 c 1
 310 413 273 399 231 399 c 0
 170 399 136 428 136 479 c 0
 136 516 154 548 186 568 c 0
 215 586 241 592 320 600 c 0
 364 605 371 608 378 633 c 2
 380 641 l 2
 381 646 382 651 382 656 c 0
 382 664 381 667 371 679 c 0
 365 685 342 691 320 691 c 0
 277 691 251 672 240 634 c 1
 184 634 l 1
 196 677 202 690 218 705 c 0
 243 729 285 742 337 742 c 0
 401 742 441 717 441 676 c 0
 441 669 441 661 440 658 c 2
 399 468 l 2
 398 465 398 463 398 461 c 0
 398 453 406 447 415 447 c 0
 417 447 420 447 424 448 c 2
 432 449 l 1
353 515 m 2
 363 566 l 1
 346 560 336 558 312 555 c 0
 255 547 242 544 224 533 c 0
 207 523 196 503 196 486 c 0
 196 461 213 449 249 449 c 0
 294 449 347 482 353 515 c 2
EndSplineSet
EndChar

StartChar: Lslash
Encoding: 321 321 139
Width: 556
Flags: MW
HStem: 0 82<211 552> 709 20<255 349 349 349>
LayerCount: 2
Fore
SplineSet
261 315 m 1
 211 82 l 1
 570 82 l 1
 552 0 l 1
 100 0 l 1
 158 276 l 1
 75 225 l 1
 92 304 l 1
 175 355 l 1
 255 729 l 1
 349 729 l 1
 278 394 l 1
 474 512 l 1
 457 433 l 1
 261 315 l 1
EndSplineSet
EndChar

StartChar: Oslash
Encoding: 216 216 140
Width: 778
Flags: MW
HStem: -23 81<358 422.5> 660 81<462.5 541.5>
VStem: 88 96<244 329> 716 96<399 464>
LayerCount: 2
Fore
SplineSet
32 15 m 1
 126 100 l 1
 102 142 88 204 88 268 c 0
 88 390 142 522 229 614 c 0
 309 698 406 741 519 741 c 0
 616 741 701 709 745 657 c 1
 832 735 l 1
 867 696 l 1
 775 613 l 1
 800 570 812 519 812 463 c 0
 812 305 734 140 618 54 c 0
 551 4 467 -23 378 -23 c 0
 285 -23 209 5 158 57 c 1
 67 -24 l 1
 32 15 l 1
202 168 m 1
 672 592 l 1
 636 635 575 660 508 660 c 0
 326 660 184 486 184 264 c 0
 184 224 189 198 202 168 c 1
700 546 m 1
 230 123 l 1
 264 82 325 58 391 58 c 0
 484 58 574 105 632 184 c 0
 684 256 716 355 716 443 c 0
 716 485 711 521 700 546 c 1
EndSplineSet
EndChar

StartChar: OE
Encoding: 338 338 141
Width: 1000
Flags: W
HStem: -23 81<304 375.5> 0 82<634 957> 327 82<687 1031 704 1013> 647 82<755 1091 755 755> 660 81<449.5 524>
VStem: 101 96<171 270 171 289>
LayerCount: 2
Fore
SplineSet
687 327 m 1x34
 634 82 l 1
 974 82 l 1
 957 0 l 1
 523 0 l 1x64
 539 77 l 1
 482 7 419 -23 332 -23 c 0
 193 -23 101 73 101 219 c 0
 101 359 158 529 235 616 c 0
 304 693 403 741 496 741 c 0x8c
 580 741 631 714 662 653 c 1
 678 729 l 1
 1108 729 l 1
 1091 647 l 1
 755 647 l 1
 704 409 l 1
 1031 409 l 1
 1013 327 l 1
 687 327 l 1x34
562 182 m 1x8c
 638 539 l 1
 619 621 568 660 480 660 c 0
 392 660 320 613 268 523 c 0
 229 454 197 318 197 222 c 0
 197 120 256 58 352 58 c 0
 436 58 505 99 562 182 c 1x8c
EndSplineSet
EndChar

StartChar: ordmasculine
Encoding: 186 186 142
Width: 365
Flags: MW
HStem: 303 51<125 377 114 388> 399 52<255 291.5> 690 52<308.5 347>
VStem: 149 60<501.5 537> 392 60<601.5 639.5>
LayerCount: 2
Fore
SplineSet
388 354 m 1
 377 303 l 1
 114 303 l 1
 125 354 l 1
 388 354 l 1
336 742 m 0
 369 742 399 732 417 716 c 0
 437 698 452 660 452 627 c 0
 452 576 431 508 404 470 c 0
 371 424 321 399 262 399 c 0
 195 399 149 443 149 509 c 0
 149 565 169 635 196 672 c 0
 229 716 281 742 336 742 c 0
327 690 m 0
 261 690 209 618 209 525 c 0
 209 478 234 451 276 451 c 0
 341 451 392 524 392 617 c 0
 392 662 367 690 327 690 c 0
EndSplineSet
EndChar

StartChar: ae
Encoding: 230 230 143
Width: 889
Flags: W
HStem: -23 72<207.5 244.5> -23 77<614.5 665 614.5 676.5> 234 72<530 824 530 898 512 824> 462 77<345.5 398.5 694 748>
VStem: 59 88<93.5 131.5 93.5 134> 827 88<353.5 377>
LayerCount: 2
Fore
SplineSet
225 369 m 1x9c
 141 369 l 1
 157 427 170 454 194 478 c 0
 235 517 304 539 387 539 c 0
 451 539 486 529 522 499 c 0
 541 483 543 481 546 474 c 1
 591 514 660 539 728 539 c 0
 830 539 915 463 915 370 c 0
 915 337 912 311 898 234 c 1
 512 234 l 1
 508 217 507 206 507 181 c 2
 507 169 l 1
 507 163 l 2
 507 135 524 101 550 79 c 0
 570 62 597 54 632 54 c 0
 698 54 751 90 787 159 c 1
 871 159 l 1
 839 50 737 -23 616 -23 c 0x7c
 536 -23 481 9 442 79 c 1
 375 14 288 -23 201 -23 c 0
 114 -23 59 26 59 105 c 0
 59 163 90 217 141 249 c 1
 191 279 234 289 363 300 c 0
 435 307 453 318 463 361 c 1
 468 386 l 2
 469 393 470 399 470 405 c 0
 470 441 431 462 366 462 c 0
 287 462 246 435 225 369 c 1x9c
421 164 m 2xbc
 441 257 l 1
 404 244 398 243 299 229 c 0
 247 222 220 214 196 199 c 0
 166 180 147 148 147 115 c 0
 147 72 178 49 237 49 c 0
 321 49 408 104 421 164 c 2xbc
530 306 m 1
 824 306 l 1
 826 321 827 328 827 339 c 0
 827 415 783 462 713 462 c 0
 629 462 561 404 530 306 c 1
EndSplineSet
EndChar

StartChar: dotlessi
Encoding: 305 305 144
Width: 278
Flags: MW
HStem: 0 20 507 20<206 290 290 290>
LayerCount: 2
Fore
SplineSet
290 527 m 1
 178 0 l 1
 94 0 l 1
 206 527 l 1
 290 527 l 1
EndSplineSet
EndChar

StartChar: lslash
Encoding: 322 322 145
Width: 222
Flags: MW
HStem: 0 20 709 20<222 306 306 306>
LayerCount: 2
Fore
SplineSet
239 414 m 1
 312 456 l 1
 298 389 l 1
 225 347 l 1
 151 0 l 1
 67 0 l 1
 134 314 l 1
 62 270 l 1
 76 337 l 1
 149 382 l 1
 222 729 l 1
 306 729 l 1
 239 414 l 1
EndSplineSet
EndChar

StartChar: oslash
Encoding: 248 248 146
Width: 611
Flags: W
HStem: -23 77<267 320> 462 77<337 392> 521 20<613 613>
VStem: 81 88<171.5 206.5> 489 88<309.5 333.5>
LayerCount: 2
Fore
SplineSet
19 -2 m 1xb8
 102 74 l 1
 87 106 81 133 81 164 c 0
 81 249 114 358 159 423 c 0
 210 498 291 539 383 539 c 0xd8
 454 539 504 517 537 472 c 1
 613 541 l 1
 639 511 l 1
 558 437 l 1
 571 408 577 383 577 354 c 0
 577 265 544 157 498 93 c 0
 443 17 366 -23 274 -23 c 0
 206 -23 153 -1 123 41 c 1
 45 -30 l 1
 19 -2 l 1xb8
175 141 m 1
 470 410 l 1
 451 444 415 462 369 462 c 0
 305 462 249 425 213 357 c 0
 185 306 169 242 169 180 c 0
 169 163 170 156 175 141 c 1
484 370 m 1
 190 102 l 1
 209 71 245 54 289 54 c 0
 353 54 410 93 446 159 c 0
 470 204 489 280 489 328 c 0
 489 339 488 350 484 370 c 1
EndSplineSet
EndChar

StartChar: oe
Encoding: 339 339 147
Width: 944
Flags: MW
HStem: -23 77<250.5 318 250.5 318.5 644 716> 234 72<581 875 581 949 563 875> 462 77<338.5 407 733.5 799>
VStem: 85 88<141.5 205.5> 878 88<352 376>
LayerCount: 2
Fore
SplineSet
838 159 m 1
 922 159 l 1
 890 50 788 -23 667 -23 c 0
 598 -23 550 0 508 55 c 0
 499 66 496 72 491 84 c 1
 441 16 362 -23 275 -23 c 0
 217 -23 171 -7 139 26 c 0
 105 61 85 112 85 165 c 0
 85 246 117 354 162 422 c 0
 212 498 291 539 386 539 c 0
 470 539 529 503 558 436 c 1
 601 496 692 539 775 539 c 0
 883 539 966 465 966 368 c 0
 966 336 963 312 949 234 c 1
 563 234 l 1
 558 209 556 196 556 176 c 0
 556 101 605 54 683 54 c 0
 749 54 802 89 838 159 c 1
371 462 m 0
 260 462 173 338 173 181 c 0
 173 102 216 54 285 54 c 0
 351 54 408 92 445 159 c 0
 471 207 487 275 487 334 c 0
 487 414 443 462 371 462 c 0
581 306 m 1
 875 306 l 1
 877 320 878 328 878 338 c 0
 878 414 834 462 764 462 c 0
 682 462 608 399 581 306 c 1
EndSplineSet
EndChar

StartChar: germandbls
Encoding: 223 223 148
Width: 611
Flags: W
HStem: -20 82<293.5 313 313 351> 0 20 651 78<424 469.5>
VStem: 517 90<235.5 268.5> 551 90<540.5 589.5>
LayerCount: 2
Fore
SplineSet
345 349 m 1xb0
 363 431 l 1
 373 431 l 2
 473 431 551 489 551 563 c 0
 551 616 505 651 434 651 c 0
 347 651 282 607 267 538 c 2
 153 0 l 1
 70 0 l 1x68
 184 538 l 2
 198 602 224 642 271 674 c 0
 323 709 390 729 458 729 c 0
 569 729 641 673 641 586 c 0xa8
 641 495 587 433 480 401 c 1
 515 390 530 383 550 369 c 0
 586 344 607 305 607 264 c 0
 607 207 579 133 538 85 c 1
 482 17 399 -20 303 -20 c 0
 284 -20 273 -19 255 -16 c 1
 272 62 l 1
 282 62 l 1
 313 62 l 2
 427 62 517 144 517 247 c 0
 517 290 497 321 460 336 c 0
 437 346 414 349 361 349 c 2
 345 349 l 1xb0
EndSplineSet
EndChar

StartChar: onesuperior
Encoding: 185 185 149
Width: 333
Flags: W
LayerCount: 2
Fore
SplineSet
273 580 m 1
 176 580 l 1
 186 626 l 1
 277 638 287 644 320 709 c 1
 364 709 l 1
 274 284 l 1
 210 284 l 1
 273 580 l 1
EndSplineSet
EndChar

StartChar: logicalnot
Encoding: 172 172 150
Width: 584
Flags: MW
HStem: 305 72<114 534 99 619>
LayerCount: 2
Fore
SplineSet
114 377 m 1
 619 377 l 1
 558 86 l 1
 488 86 l 1
 534 305 l 1
 99 305 l 1
 114 377 l 1
EndSplineSet
EndChar

StartChar: mu
Encoding: 956 956 151
Width: 556
Flags: MW
HStem: -23 73<239 266> 504 20<176 260 260 260 509 593 593 593>
LayerCount: 2
Fore
SplineSet
554 49 m 1
 540 -14 l 1
 534 -15 529 -17 527 -17 c 0
 505 -22 500 -23 486 -23 c 0
 432 -23 411 -5 411 41 c 0
 411 45 412 52 414 60 c 1
 360 4 301 -23 231 -23 c 0
 194 -23 171 -15 150 6 c 1
 102 -220 l 1
 18 -220 l 1
 176 524 l 1
 260 524 l 1
 183 160 l 2
 181 151 180 140 180 130 c 0
 180 80 212 50 266 50 c 0
 352 50 423 120 446 227 c 2
 509 524 l 1
 593 524 l 1
 500 88 l 2
 499 85 499 81 499 77 c 0
 499 56 512 46 537 46 c 0
 543 46 547 47 554 49 c 1
EndSplineSet
EndChar

StartChar: trademark
Encoding: 8482 8482 152
Width: 1000
Flags: MW
HStem: 674 55<220 362 208 594 430 583 430 430>
LayerCount: 2
Fore
SplineSet
430 674 m 1
 349 292 l 1
 281 292 l 1
 362 674 l 1
 208 674 l 1
 220 729 l 1
 594 729 l 1
 583 674 l 1
 430 674 l 1
814 292 m 1
 743 292 l 1
 695 633 l 1
 622 292 l 1
 555 292 l 1
 648 729 l 1
 742 729 l 1
 797 367 l 1
 1006 729 l 1
 1096 729 l 1
 1003 292 l 1
 936 292 l 1
 1009 633 l 1
 814 292 l 1
EndSplineSet
EndChar

StartChar: Eth
Encoding: 208 208 153
Width: 722
Flags: MW
HStem: 0 82<200 371> 341 67<106 161 93 176 270 422> 647 82<321 492 321 321>
VStem: 663 96<434 524.5 425.5 532.5>
LayerCount: 2
Fore
SplineSet
161 341 m 1
 93 341 l 1
 106 408 l 1
 176 408 l 1
 244 729 l 1
 526 729 l 2
 591 729 644 711 682 677 c 0
 729 635 759 561 759 488 c 0
 759 363 711 218 643 134 c 0
 570 45 479 0 371 0 c 2
 89 0 l 1
 161 341 l 1
255 341 m 1
 200 82 l 1
 372 82 l 2
 463 82 540 125 591 205 c 0
 631 268 663 388 663 480 c 0
 663 585 599 647 492 647 c 2
 321 647 l 1
 270 408 l 1
 436 408 l 1
 422 341 l 1
 255 341 l 1
EndSplineSet
EndChar

StartChar: onehalf
Encoding: 189 189 154
Width: 834
Flags: W
HStem: -20 20 0 58<588 805> 372 53<723.5 760.5>
VStem: 810 64<293.5 330>
LayerCount: 2
Fore
SplineSet
248 580 m 1x30
 149 580 l 1
 158 626 l 1
 248 633 261 642 294 709 c 1
 337 709 l 1
 247 284 l 1
 185 284 l 1
 248 580 l 1x30
734 709 m 1
 792 709 l 1
 185 -20 l 1
 127 -20 l 1xb0
 734 709 l 1
818 58 m 1x70
 805 0 l 1
 501 0 l 1
 526 97 562 137 668 187 c 2
 733 218 l 2
 783 242 810 275 810 312 c 0
 810 348 781 372 740 372 c 0
 707 372 676 358 657 333 c 0
 646 320 640 304 631 273 c 1
 569 273 l 1
 594 376 653 425 752 425 c 0
 828 425 874 387 874 324 c 0
 874 262 829 206 748 170 c 1
 679 138 l 2
 630 115 608 96 588 58 c 1
 818 58 l 1x70
EndSplineSet
EndChar

StartChar: plusminus
Encoding: 177 177 155
Width: 584
Flags: MW
HStem: 0 72<65 534 50 549> 357 72<141 333 126 348 418 610 141 403>
LayerCount: 2
Fore
SplineSet
625 429 m 1
 610 357 l 1
 403 357 l 1
 359 149 l 1
 288 149 l 1
 333 357 l 1
 126 357 l 1
 141 429 l 1
 348 429 l 1
 391 633 l 1
 462 633 l 1
 418 429 l 1
 625 429 l 1
549 72 m 1
 534 0 l 1
 50 0 l 1
 65 72 l 1
 549 72 l 1
EndSplineSet
EndChar

StartChar: Thorn
Encoding: 222 222 156
Width: 667
Flags: MW
HStem: 0 20 191 82<226 437 243 437 437 454> 529 82<315 492 297 523> 709 20<246 340 340 340>
VStem: 612 96<414 463.5>
LayerCount: 2
Fore
SplineSet
226 191 m 1
 185 0 l 1
 91 0 l 1
 246 729 l 1
 340 729 l 1
 315 611 l 1
 523 611 l 2
 646 611 708 557 708 450 c 0
 708 369 672 293 609 243 c 0
 564 207 517 191 454 191 c 2
 226 191 l 1
243 273 m 1
 437 273 l 2
 501 273 544 292 577 334 c 0
 601 364 612 396 612 432 c 0
 612 495 570 529 492 529 c 2
 297 529 l 1
 243 273 l 1
EndSplineSet
EndChar

StartChar: onequarter
Encoding: 188 188 157
Width: 834
Flags: W
HStem: -20 20 0 20 100 53<588 706 588 768 779 835>
LayerCount: 2
Fore
SplineSet
248 580 m 1x20
 149 580 l 1
 159 626 l 1
 248 633 261 642 295 709 c 1
 337 709 l 1
 247 284 l 1
 185 284 l 1
 248 580 l 1x20
758 709 m 1
 816 709 l 1
 209 -20 l 1
 151 -20 l 1xa0
 758 709 l 1
706 100 m 1
 518 100 l 1
 531 159 l 1
 791 425 l 1
 837 425 l 1
 779 153 l 1
 846 153 l 1
 835 100 l 1
 768 100 l 1
 747 0 l 1
 685 0 l 1x60
 706 100 l 1
717 153 m 1
 753 323 l 1
 588 153 l 1
 717 153 l 1
EndSplineSet
EndChar

StartChar: divide
Encoding: 247 247 158
Width: 584
Flags: W
HStem: 0 104<290.5 319> 197 72<107 576 92 591> 358 104<364.5 393>
VStem: 253 104<37.5 66 37 66.5> 327 104<395.5 424 395 424.5>
LayerCount: 2
Fore
SplineSet
591 269 m 1xf0
 576 197 l 1
 92 197 l 1
 107 269 l 1
 591 269 l 1xf0
305 104 m 0
 334 104 357 81 357 51 c 0
 357 23 333 0 305 0 c 0
 276 0 253 23 253 52 c 0
 253 81 276 104 305 104 c 0
379 462 m 0xe8
 408 462 431 439 431 409 c 0
 431 381 407 358 379 358 c 0
 350 358 327 381 327 410 c 0
 327 439 350 462 379 462 c 0xe8
EndSplineSet
EndChar

StartChar: brokenbar
Encoding: 166 166 159
Width: 260
Flags: MW
HStem: 709 20<255 315 315 315>
LayerCount: 2
Fore
SplineSet
255 729 m 1
 315 729 l 1
 229 328 l 1
 169 328 l 1
 255 729 l 1
140 189 m 1
 200 189 l 1
 114 -212 l 1
 54 -212 l 1
 140 189 l 1
EndSplineSet
EndChar

StartChar: degree
Encoding: 176 176 160
Width: 400
Flags: MW
HStem: 383 43<309.5 368 309.5 380.5> 643 43<310.5 369>
VStem: 188 45<505.5 564.5 505.5 576.5> 446 45<504.5 565>
LayerCount: 2
Fore
SplineSet
339 686 m 0
 423 686 491 618 491 535 c 0
 491 450 423 383 338 383 c 0
 256 383 188 452 188 535 c 0
 188 618 256 686 339 686 c 0
340 643 m 0
 281 643 233 594 233 535 c 0
 233 476 281 426 338 426 c 0
 398 426 446 474 446 535 c 0
 446 595 398 643 340 643 c 0
EndSplineSet
EndChar

StartChar: thorn
Encoding: 254 254 161
Width: 556
Flags: MW
HStem: -23 77<265 333> 462 77<374 416.5> 709 20<207 291 291 291>
VStem: 498 88<296.5 367.5>
LayerCount: 2
Fore
SplineSet
7 -213 m 1
 207 729 l 1
 291 729 l 1
 230 440 l 1
 260 498 336 539 412 539 c 0
 519 539 586 464 586 344 c 0
 586 245 552 142 498 75 c 0
 447 13 372 -23 294 -23 c 0
 223 -23 182 3 151 68 c 1
 91 -213 l 1
 7 -213 l 1
379 462 m 0
 317 462 267 428 230 361 c 1
 200 309 183 244 183 184 c 0
 183 104 228 54 302 54 c 0
 367 54 417 87 454 155 c 0
 481 205 498 269 498 324 c 0
 498 411 454 462 379 462 c 0
EndSplineSet
EndChar

StartChar: threequarters
Encoding: 190 190 162
Width: 834
Flags: W
HStem: -20 20 0 20 100 53<585 704 585 766 777 833> 270 53<221.5 278 221.5 286> 656 53<301.5 337.5>
VStem: 108 63<364 381> 356 64<393.5 441> 381 64<592 622.5>
LayerCount: 2
Fore
SplineSet
245 476 m 1xfe
 256 527 l 1
 307 527 327 530 347 541 c 0
 368 552 381 577 381 607 c 0
 381 638 357 656 318 656 c 0
 285 656 255 643 238 621 c 0
 229 608 223 594 217 567 c 1
 155 567 l 1
 176 661 235 709 328 709 c 0
 403 709 445 676 445 617 c 0xf9
 445 565 417 524 367 504 c 1
 404 491 420 469 420 432 c 0
 420 340 339 270 233 270 c 0
 151 270 108 307 108 375 c 0
 108 387 109 396 112 412 c 1
 174 412 l 1
 172 399 171 392 171 384 c 0
 171 344 197 323 246 323 c 0
 310 323 356 364 356 423 c 0
 356 459 331 476 277 476 c 2
 254 476 l 1
 245 476 l 1xfe
786 709 m 1
 844 709 l 1
 237 -20 l 1
 179 -20 l 1
 786 709 l 1
704 100 m 1
 516 100 l 1
 528 159 l 1
 789 425 l 1
 835 425 l 1
 777 153 l 1
 844 153 l 1
 833 100 l 1
 766 100 l 1
 744 0 l 1
 682 0 l 1
 704 100 l 1
715 153 m 1
 751 323 l 1
 585 153 l 1
 715 153 l 1
EndSplineSet
EndChar

StartChar: twosuperior
Encoding: 178 178 163
Width: 333
Flags: MW
HStem: 284 60<152 371> 654 55<278.5 327.5>
VStem: 374 65<576.5 612>
LayerCount: 2
Fore
SplineSet
383 344 m 1
 371 284 l 1
 71 284 l 1
 99 385 126 416 236 472 c 1
 299 503 l 1
 346 525 374 559 374 594 c 0
 374 630 348 654 307 654 c 0
 250 654 218 624 201 555 c 1
 138 555 l 1
 162 662 217 709 316 709 c 0
 392 709 439 668 439 603 c 0
 439 543 398 493 315 452 c 2
 247 419 l 2
 193 392 171 375 152 344 c 1
 383 344 l 1
EndSplineSet
EndChar

StartChar: registered
Encoding: 174 174 164
Width: 737
Flags: W
HStem: -22 62<303 476 303 484> 325 63<341 484 355 475> 522 63<383 512 383 383> 680 62<415 588.5>
VStem: 55 70<220 393 220 400.5> 510 75<162.5 199.5> 529 71<280.5 317.5> 575 76<483 492.5> 766 70<327.5 501>
LayerCount: 2
Fore
SplineSet
341 325 m 1xf2
 302 140 l 1
 232 140 l 1
 326 585 l 1
 532 585 l 2
 613 585 651 557 651 496 c 0xf980
 651 470 644 440 633 418 c 0
 621 395 606 381 571 360 c 1
 594 342 600 331 600 304 c 0xf2
 600 294 598 277 592 248 c 1
 587 216 585 205 585 194 c 0
 585 180 588 173 597 165 c 1
 592 140 l 1
 514 140 l 1
 511 152 510 157 510 168 c 0xf4
 510 194 511 197 524 253 c 0
 527 264 529 276 529 285 c 0
 529 312 511 325 475 325 c 2
 341 325 l 1xf2
355 388 m 1
 484 388 l 2
 519 388 540 396 556 416 c 0
 567 431 575 455 575 476 c 0
 575 509 556 522 512 522 c 2
 383 522 l 1
 355 388 l 1
530 742 m 0
 707 742 836 615 836 440 c 0
 836 200 607 -22 361 -22 c 0
 184 -22 55 106 55 281 c 0
 55 520 284 742 530 742 c 0
516 680 m 0
 314 680 125 493 125 293 c 0
 125 147 231 40 375 40 c 0
 577 40 766 227 766 428 c 0
 766 574 661 680 516 680 c 0
EndSplineSet
EndChar

StartChar: minus
Encoding: 8722 8722 165
Width: 584
Flags: MW
HStem: 197 72<96 586 81 601>
LayerCount: 2
Fore
SplineSet
601 269 m 1
 586 197 l 1
 81 197 l 1
 96 269 l 1
 601 269 l 1
EndSplineSet
EndChar

StartChar: eth
Encoding: 240 240 166
Width: 556
Flags: MW
HStem: -23 77<247.5 317.5 247.5 319> 462 72<338 382 326.5 408> 723 20<275 275>
VStem: 80 88<143.5 206.5> 488 88<306 374>
LayerCount: 2
Fore
SplineSet
251 564 m 1
 219 603 l 1
 308 644 l 1
 299 652 291 659 288 661 c 0
 286 663 276 669 261 679 c 0
 257 681 245 689 233 698 c 1
 275 743 l 1
 283 738 291 733 297 729 c 0
 316 718 328 710 332 707 c 0
 345 698 357 690 369 681 c 0
 370 681 373 679 377 676 c 1
 476 719 l 1
 515 681 l 1
 420 640 l 1
 525 550 576 454 576 347 c 0
 576 265 542 155 497 93 c 0
 443 17 365 -23 273 -23 c 0
 215 -23 168 -6 135 26 c 0
 101 60 80 111 80 164 c 0
 80 249 113 358 158 423 c 0
 206 493 284 534 369 534 c 0
 395 534 407 531 435 517 c 1
 403 559 387 576 351 609 c 1
 251 564 l 1
371 462 m 0
 305 462 248 425 212 357 c 0
 185 307 168 242 168 184 c 0
 168 103 212 54 283 54 c 0
 352 54 406 90 444 159 c 0
 472 209 488 274 488 333 c 0
 488 415 445 462 371 462 c 0
EndSplineSet
EndChar

StartChar: multiply
Encoding: 215 215 167
Width: 584
Flags: W
LayerCount: 2
Fore
SplineSet
529 427 m 1
 568 377 l 1
 390 231 l 1
 507 84 l 1
 446 34 l 1
 330 181 l 1
 152 35 l 1
 113 84 l 1
 291 231 l 1
 176 377 l 1
 236 426 l 1
 351 281 l 1
 529 427 l 1
EndSplineSet
EndChar

StartChar: threesuperior
Encoding: 179 179 168
Width: 333
Flags: W
HStem: 270 55<206.5 259.5 206.5 270.5> 654 55<283 318.5>
VStem: 94 65<364 378.5> 336 65<395 441> 361 65<593 621.5>
LayerCount: 2
Fore
SplineSet
227 474 m 1xf0
 238 527 l 1
 250 527 l 1
 254 527 l 2
 328 527 361 552 361 607 c 0
 361 636 338 654 299 654 c 0
 267 654 240 642 223 619 c 0
 214 608 209 596 202 565 c 1
 139 565 l 1
 151 613 162 636 182 657 c 0
 213 691 257 709 309 709 c 0
 380 709 426 674 426 619 c 0xc8
 426 567 407 536 357 504 c 1
 388 489 401 467 401 434 c 0
 401 340 323 270 218 270 c 0
 138 270 94 307 94 373 c 0
 94 384 95 393 97 414 c 1
 161 414 l 1
 160 402 l 2
 159 394 159 386 159 381 c 0
 159 347 186 325 227 325 c 0
 292 325 336 365 336 425 c 0
 336 457 308 475 258 475 c 0
 249 475 242 475 227 474 c 1xf0
EndSplineSet
EndChar

StartChar: copyright
Encoding: 169 169 169
Width: 737
Flags: MW
HStem: -22 62<303 476 303 484> 126 62<387.5 429.5> 530 62<469 514> 680 62<415 588.5>
VStem: 55 70<220 393 220 400.5> 249 72<267 327.5 267 329.5> 766 70<327.5 501>
LayerCount: 2
Fore
SplineSet
637 437 m 1
 566 437 l 1
 563 503 540 530 488 530 c 0
 440 530 398 504 366 456 c 0
 338 413 321 354 321 301 c 0
 321 233 359 188 416 188 c 0
 471 188 517 231 547 312 c 1
 618 312 l 1
 594 252 578 224 552 196 c 0
 509 149 459 126 400 126 c 0
 306 126 249 189 249 292 c 0
 249 367 278 448 326 506 c 1
 374 562 435 592 503 592 c 0
 593 592 635 543 637 437 c 1
530 742 m 0
 707 742 836 615 836 440 c 0
 836 200 607 -22 361 -22 c 0
 184 -22 55 106 55 281 c 0
 55 520 284 742 530 742 c 0
516 680 m 0
 314 680 125 493 125 293 c 0
 125 147 231 40 375 40 c 0
 577 40 766 227 766 428 c 0
 766 574 661 680 516 680 c 0
EndSplineSet
EndChar

StartChar: Aacute
Encoding: 193 193 170
Width: 667
Flags: MW
HStem: 0 20 219 78<283 514 283 524 239 514> 709 20<432 552 552 552>
LayerCount: 2
Fore
SplineSet
524 219 m 1
 239 219 l 1
 116 0 l 1
 17 0 l 1
 432 729 l 1
 552 729 l 1
 653 0 l 1
 551 0 l 1
 524 219 l 1
514 297 m 1
 474 630 l 1
 283 297 l 1
 514 297 l 1
555 939 m 1
 667 939 l 1
 487 791 l 1
 427 791 l 1
 555 939 l 1
EndSplineSet
EndChar

StartChar: Acircumflex
Encoding: 194 194 171
Width: 667
Flags: MW
HStem: 0 20 219 78<283 514 283 524 239 514> 709 20<432 552 552 552>
LayerCount: 2
Fore
SplineSet
524 219 m 1
 239 219 l 1
 116 0 l 1
 17 0 l 1
 432 729 l 1
 552 729 l 1
 653 0 l 1
 551 0 l 1
 524 219 l 1
514 297 m 1
 474 630 l 1
 283 297 l 1
 514 297 l 1
486 940 m 1
 580 940 l 1
 645 790 l 1
 581 790 l 1
 525 889 l 1
 422 790 l 1
 358 790 l 1
 486 940 l 1
EndSplineSet
EndChar

StartChar: Adieresis
Encoding: 196 196 172
Width: 667
Flags: MW
HStem: 0 20 219 78<283 514 283 524 239 514> 709 20<432 552 552 552> 811 103<397 479 375 501 397 536 558 640>
LayerCount: 2
Fore
SplineSet
524 219 m 1
 239 219 l 1
 116 0 l 1
 17 0 l 1
 432 729 l 1
 552 729 l 1
 653 0 l 1
 551 0 l 1
 524 219 l 1
514 297 m 1
 474 630 l 1
 283 297 l 1
 514 297 l 1
501 914 m 1
 479 811 l 1
 375 811 l 1
 397 914 l 1
 501 914 l 1
662 914 m 1
 640 811 l 1
 536 811 l 1
 558 914 l 1
 662 914 l 1
EndSplineSet
EndChar

StartChar: Agrave
Encoding: 192 192 173
Width: 667
Flags: MW
HStem: 0 20 219 78<283 514 283 524 239 514> 709 20<432 552 552 552>
LayerCount: 2
Fore
SplineSet
524 219 m 1
 239 219 l 1
 116 0 l 1
 17 0 l 1
 432 729 l 1
 552 729 l 1
 653 0 l 1
 551 0 l 1
 524 219 l 1
514 297 m 1
 474 630 l 1
 283 297 l 1
 514 297 l 1
483 939 m 1
 555 791 l 1
 501 791 l 1
 377 939 l 1
 483 939 l 1
EndSplineSet
EndChar

StartChar: Aring
Encoding: 197 197 174
Width: 667
Flags: MW
HStem: 0 20 219 78<283 514 283 524 239 514> 709 20<432 552 552 552> 778 44<496 520 496 524.5> 909 44<511.5 535>
VStem: 425 46<846.5 870 846.5 874.5> 560 45<861.5 885>
LayerCount: 2
Fore
SplineSet
524 219 m 1
 239 219 l 1
 116 0 l 1
 17 0 l 1
 432 729 l 1
 552 729 l 1
 653 0 l 1
 551 0 l 1
 524 219 l 1
514 297 m 1
 474 630 l 1
 283 297 l 1
 514 297 l 1
533 953 m 0
 575 953 605 925 605 886 c 0
 605 829 553 778 496 778 c 0
 456 778 425 809 425 848 c 0
 425 901 479 953 533 953 c 0
525 909 m 0
 498 909 471 883 471 857 c 0
 471 836 486 822 506 822 c 0
 534 822 560 848 560 875 c 0
 560 895 545 909 525 909 c 0
EndSplineSet
EndChar

StartChar: Atilde
Encoding: 195 195 175
Width: 667
Flags: W
HStem: 0 20 219 78<283 514 283 524 239 514> 709 20<432 552 552 552> 811 70<574 589 574 594.5> 843 70<430.5 445>
LayerCount: 2
Fore
SplineSet
524 219 m 1xf0
 239 219 l 1
 116 0 l 1
 17 0 l 1
 432 729 l 1
 552 729 l 1
 653 0 l 1
 551 0 l 1
 524 219 l 1xf0
514 297 m 1
 474 630 l 1
 283 297 l 1
 514 297 l 1
627 918 m 1
 680 918 l 1
 659 853 617 811 572 811 c 0x10
 550 811 533 815 469 837 c 0
 458 841 448 843 442 843 c 0
 419 843 413 839 392 810 c 1
 339 810 l 1
 351 845 359 862 371 877 c 0
 387 898 417 913 443 913 c 0x08
 461 913 477 909 516 896 c 0
 542 887 569 881 579 881 c 0
 599 881 609 889 627 918 c 1
EndSplineSet
EndChar

StartChar: Ccedilla
Encoding: 199 199 176
Width: 722
Flags: MW
HStem: -214 43<283.5 316.5 283.5 336> -94 152<329 338.5> 660 81<473.5 565.5>
VStem: 112 96<199.5 305> 361 78<-132 -110>
LayerCount: 2
Fore
SplineSet
368 -23 m 1
 351 -56 l 1
 363 -54 367 -54 372 -54 c 0
 409 -54 439 -77 439 -105 c 0
 439 -169 378 -214 294 -214 c 0
 255 -214 227 -206 176 -180 c 1
 204 -142 l 1
 245 -164 269 -171 298 -171 c 0
 335 -171 361 -148 361 -116 c 0
 361 -104 347 -94 330 -94 c 0
 325 -94 324 -94 314 -96 c 0
 308 -97 308 -97 303 -98 c 1
 290 -92 l 1
 328 -21 l 1
 261 -11 232 1 197 32 c 0
 142 81 112 156 112 242 c 0
 112 368 161 505 240 600 c 0
 318 694 415 741 532 741 c 0
 627 741 697 704 738 634 c 0
 757 600 767 562 770 503 c 1
 674 503 l 1
 666 611 616 660 515 660 c 0
 423 660 350 617 289 527 c 0
 238 451 208 352 208 260 c 0
 208 139 277 58 381 58 c 0
 460 58 536 95 578 154 c 0
 596 179 612 209 637 266 c 1
 735 266 l 1
 656 68 542 -21 368 -23 c 1
EndSplineSet
EndChar

StartChar: Eacute
Encoding: 201 201 177
Width: 667
Flags: MW
HStem: 0 82<201 613> 332 82<255 668 272 650> 647 82<322 734 322 322>
LayerCount: 2
Fore
SplineSet
582 939 m 1
 694 939 l 1
 515 791 l 1
 454 791 l 1
 582 939 l 1
255 332 m 1
 201 82 l 1
 630 82 l 1
 613 0 l 1
 90 0 l 1
 245 729 l 1
 751 729 l 1
 734 647 l 1
 322 647 l 1
 272 414 l 1
 668 414 l 1
 650 332 l 1
 255 332 l 1
EndSplineSet
EndChar

StartChar: Ecircumflex
Encoding: 202 202 178
Width: 667
Flags: MW
HStem: 0 82<201 613> 332 82<255 668 272 650> 647 82<322 734 322 322>
LayerCount: 2
Fore
SplineSet
495 940 m 1
 590 940 l 1
 654 790 l 1
 591 790 l 1
 535 889 l 1
 431 790 l 1
 367 790 l 1
 495 940 l 1
255 332 m 1
 201 82 l 1
 630 82 l 1
 613 0 l 1
 90 0 l 1
 245 729 l 1
 751 729 l 1
 734 647 l 1
 322 647 l 1
 272 414 l 1
 668 414 l 1
 650 332 l 1
 255 332 l 1
EndSplineSet
EndChar

StartChar: Edieresis
Encoding: 203 203 179
Width: 667
Flags: MW
HStem: 0 82<201 613> 332 82<255 668 272 650> 647 82<322 734 322 322> 811 103<401 483 379 505 401 540 562 644>
LayerCount: 2
Fore
SplineSet
505 914 m 1
 483 811 l 1
 379 811 l 1
 401 914 l 1
 505 914 l 1
666 914 m 1
 644 811 l 1
 540 811 l 1
 562 914 l 1
 666 914 l 1
255 332 m 1
 201 82 l 1
 630 82 l 1
 613 0 l 1
 90 0 l 1
 245 729 l 1
 751 729 l 1
 734 647 l 1
 322 647 l 1
 272 414 l 1
 668 414 l 1
 650 332 l 1
 255 332 l 1
EndSplineSet
EndChar

StartChar: Egrave
Encoding: 200 200 180
Width: 667
Flags: MW
HStem: 0 82<201 613> 332 82<255 668 272 650> 647 82<322 734 322 322>
LayerCount: 2
Fore
SplineSet
496 939 m 1
 567 791 l 1
 514 791 l 1
 389 939 l 1
 496 939 l 1
255 332 m 1
 201 82 l 1
 630 82 l 1
 613 0 l 1
 90 0 l 1
 245 729 l 1
 751 729 l 1
 734 647 l 1
 322 647 l 1
 272 414 l 1
 668 414 l 1
 650 332 l 1
 255 332 l 1
EndSplineSet
EndChar

StartChar: Iacute
Encoding: 205 205 181
Width: 278
Flags: MW
HStem: 0 20 709 20<255 349 349 349>
LayerCount: 2
Fore
SplineSet
349 729 m 1
 194 0 l 1
 100 0 l 1
 255 729 l 1
 349 729 l 1
367 939 m 1
 479 939 l 1
 299 791 l 1
 239 791 l 1
 367 939 l 1
EndSplineSet
EndChar

StartChar: Icircumflex
Encoding: 206 206 182
Width: 278
Flags: MW
HStem: 0 20 709 20<255 349 349 349>
LayerCount: 2
Fore
SplineSet
349 729 m 1
 194 0 l 1
 100 0 l 1
 255 729 l 1
 349 729 l 1
295 940 m 1
 390 940 l 1
 454 790 l 1
 391 790 l 1
 335 889 l 1
 231 790 l 1
 167 790 l 1
 295 940 l 1
EndSplineSet
EndChar

StartChar: Idieresis
Encoding: 207 207 183
Width: 278
Flags: MW
HStem: 0 20 709 20<255 349 349 349> 804 103<202 284 180 306 202 341 363 445>
LayerCount: 2
Fore
SplineSet
349 729 m 1
 194 0 l 1
 100 0 l 1
 255 729 l 1
 349 729 l 1
306 907 m 1
 284 804 l 1
 180 804 l 1
 202 907 l 1
 306 907 l 1
467 907 m 1
 445 804 l 1
 341 804 l 1
 363 907 l 1
 467 907 l 1
EndSplineSet
EndChar

StartChar: Igrave
Encoding: 204 204 184
Width: 278
Flags: MW
HStem: 0 20 709 20<255 349 349 349>
LayerCount: 2
Fore
SplineSet
349 729 m 1
 194 0 l 1
 100 0 l 1
 255 729 l 1
 349 729 l 1
306 939 m 1
 378 791 l 1
 325 791 l 1
 200 939 l 1
 306 939 l 1
EndSplineSet
EndChar

StartChar: Ntilde
Encoding: 209 209 185
Width: 722
Flags: W
HStem: 0 20 709 20<231 335 335 335 712 801 801 801> 811 70<616 631 616 636.5> 843 70<473 487>
LayerCount: 2
Fore
SplineSet
801 729 m 1xe0
 646 0 l 1
 540 0 l 1
 291 591 l 1
 165 0 l 1
 76 0 l 1
 231 729 l 1
 335 729 l 1
 585 131 l 1
 712 729 l 1
 801 729 l 1xe0
669 918 m 1
 722 918 l 1
 701 853 659 811 614 811 c 0x20
 593 811 575 815 511 837 c 0
 501 841 490 843 484 843 c 0
 462 843 456 839 435 810 c 1
 381 810 l 1
 393 845 401 862 413 877 c 0
 430 898 460 913 485 913 c 0x10
 503 913 519 909 558 896 c 0
 584 887 611 881 621 881 c 0
 641 881 651 889 669 918 c 1
EndSplineSet
EndChar

StartChar: Oacute
Encoding: 211 211 186
Width: 778
Flags: MW
HStem: -23 81<371.5 438> 660 81<480.5 559>
VStem: 104 96<241.5 317 241.5 327> 732 96<400 476>
LayerCount: 2
Fore
SplineSet
621 939 m 1
 733 939 l 1
 553 791 l 1
 493 791 l 1
 621 939 l 1
537 741 m 0
 628 741 707 713 756 664 c 0
 801 619 828 543 828 464 c 0
 828 306 752 144 635 54 c 0
 570 4 485 -23 391 -23 c 0
 306 -23 225 6 177 54 c 0
 131 100 104 176 104 263 c 0
 104 391 157 522 246 614 c 0
 327 699 424 741 537 741 c 0
525 660 m 0
 431 660 342 613 284 534 c 1
 231 460 200 363 200 271 c 0
 200 212 214 165 241 130 c 0
 276 86 339 58 404 58 c 0
 501 58 589 104 648 185 c 0
 701 258 732 354 732 446 c 0
 732 506 718 553 691 588 c 0
 657 632 593 660 525 660 c 0
EndSplineSet
EndChar

StartChar: Ocircumflex
Encoding: 212 212 187
Width: 778
Flags: MW
HStem: -23 81<371.5 438> 660 81<480.5 559>
VStem: 104 96<241.5 317 241.5 327> 732 96<400 476>
LayerCount: 2
Fore
SplineSet
538 940 m 1
 632 940 l 1
 697 790 l 1
 633 790 l 1
 577 889 l 1
 474 790 l 1
 410 790 l 1
 538 940 l 1
537 741 m 0
 628 741 707 713 756 664 c 0
 801 619 828 543 828 464 c 0
 828 306 752 144 635 54 c 0
 570 4 485 -23 391 -23 c 0
 306 -23 225 6 177 54 c 0
 131 100 104 176 104 263 c 0
 104 391 157 522 246 614 c 0
 327 699 424 741 537 741 c 0
525 660 m 0
 431 660 342 613 284 534 c 1
 231 460 200 363 200 271 c 0
 200 212 214 165 241 130 c 0
 276 86 339 58 404 58 c 0
 501 58 589 104 648 185 c 0
 701 258 732 354 732 446 c 0
 732 506 718 553 691 588 c 0
 657 632 593 660 525 660 c 0
EndSplineSet
EndChar

StartChar: Odieresis
Encoding: 214 214 188
Width: 778
Flags: MW
HStem: -23 81<371.5 438> 660 81<480.5 559> 811 103<446 527 424 550 446 585 607 688>
VStem: 104 96<241.5 317 241.5 327> 732 96<400 476>
LayerCount: 2
Fore
SplineSet
550 914 m 1
 527 811 l 1
 424 811 l 1
 446 914 l 1
 550 914 l 1
711 914 m 1
 688 811 l 1
 585 811 l 1
 607 914 l 1
 711 914 l 1
537 741 m 0
 628 741 707 713 756 664 c 0
 801 619 828 543 828 464 c 0
 828 306 752 144 635 54 c 0
 570 4 485 -23 391 -23 c 0
 306 -23 225 6 177 54 c 0
 131 100 104 176 104 263 c 0
 104 391 157 522 246 614 c 0
 327 699 424 741 537 741 c 0
525 660 m 0
 431 660 342 613 284 534 c 1
 231 460 200 363 200 271 c 0
 200 212 214 165 241 130 c 0
 276 86 339 58 404 58 c 0
 501 58 589 104 648 185 c 0
 701 258 732 354 732 446 c 0
 732 506 718 553 691 588 c 0
 657 632 593 660 525 660 c 0
EndSplineSet
EndChar

StartChar: Ograve
Encoding: 210 210 189
Width: 778
Flags: MW
HStem: -23 81<371.5 438> 660 81<480.5 559>
VStem: 104 96<241.5 317 241.5 327> 732 96<400 476>
LayerCount: 2
Fore
SplineSet
538 939 m 1
 610 791 l 1
 556 791 l 1
 432 939 l 1
 538 939 l 1
537 741 m 0
 628 741 707 713 756 664 c 0
 801 619 828 543 828 464 c 0
 828 306 752 144 635 54 c 0
 570 4 485 -23 391 -23 c 0
 306 -23 225 6 177 54 c 0
 131 100 104 176 104 263 c 0
 104 391 157 522 246 614 c 0
 327 699 424 741 537 741 c 0
525 660 m 0
 431 660 342 613 284 534 c 1
 231 460 200 363 200 271 c 0
 200 212 214 165 241 130 c 0
 276 86 339 58 404 58 c 0
 501 58 589 104 648 185 c 0
 701 258 732 354 732 446 c 0
 732 506 718 553 691 588 c 0
 657 632 593 660 525 660 c 0
EndSplineSet
EndChar

StartChar: Otilde
Encoding: 213 213 190
Width: 778
Flags: W
HStem: -23 81<371.5 438> 660 81<480.5 559> 811 70<640.5 656 640.5 661> 843 70<497.5 511.5>
VStem: 104 96<241.5 317 241.5 327> 732 96<400 476>
LayerCount: 2
Fore
SplineSet
537 741 m 0xec
 628 741 707 713 756 664 c 0
 801 619 828 543 828 464 c 0
 828 306 752 144 635 54 c 0
 570 4 485 -23 391 -23 c 0
 306 -23 225 6 177 54 c 0
 131 100 104 176 104 263 c 0
 104 391 157 522 246 614 c 0
 327 699 424 741 537 741 c 0xec
525 660 m 0
 431 660 342 613 284 534 c 1
 231 460 200 363 200 271 c 0
 200 212 214 165 241 130 c 0
 276 86 339 58 404 58 c 0
 501 58 589 104 648 185 c 0
 701 258 732 354 732 446 c 0
 732 506 718 553 691 588 c 0
 657 632 593 660 525 660 c 0
693 918 m 1
 747 918 l 1
 726 853 683 811 639 811 c 0x2c
 617 811 600 815 535 837 c 0
 525 841 514 843 509 843 c 0
 486 843 480 839 459 810 c 1
 406 810 l 1
 418 846 426 862 437 877 c 0
 454 898 484 913 510 913 c 0x1c
 527 913 543 909 582 896 c 0
 608 887 635 881 646 881 c 0
 666 881 675 889 693 918 c 1
EndSplineSet
EndChar

StartChar: Scaron
Encoding: 352 352 191
Width: 667
Flags: W
HStem: -23 81<289.5 382.5> 660 81<436.5 498>
VStem: 89 92<145.5 179.5> 178 96<496 517.5> 573 96<208.5 233.5> 622 92<563 565.5>
LayerCount: 2
Fore
SplineSet
547 791 m 1xd4
 452 791 l 1
 388 939 l 1
 451 939 l 1
 507 841 l 1
 611 939 l 1
 675 939 l 1
 547 791 l 1xd4
706 515 m 1
 618 515 l 1
 621 534 622 542 622 551 c 0
 622 580 609 612 590 629 c 0
 568 649 526 660 470 660 c 0
 403 660 355 644 318 611 c 0
 288 584 274 554 274 518 c 0xd4
 274 474 298 454 375 432 c 2
 547 383 l 2
 594 370 623 350 645 315 c 0
 661 290 669 264 669 237 c 0
 669 180 634 108 582 61 c 1
 523 6 435 -23 330 -23 c 0
 179 -23 89 48 89 169 c 0
 89 190 91 206 98 232 c 1
 185 232 l 1
 182 213 181 204 181 191 c 0
 181 100 233 58 346 58 c 0
 426 58 485 76 526 114 c 0
 554 140 573 178 573 209 c 0xe8
 573 258 541 286 460 309 c 2
 289 357 l 2
 222 376 178 429 178 492 c 0
 178 543 209 614 250 656 c 0
 304 712 385 741 488 741 c 0
 566 741 619 725 660 689 c 0
 693 660 714 614 714 571 c 0
 714 555 712 543 706 515 c 1
EndSplineSet
EndChar

StartChar: Uacute
Encoding: 218 218 192
Width: 722
Flags: MW
HStem: -23 81<332.5 438 332.5 447> 709 20<240 334 334 334 706 800 800 800>
VStem: 124 96<139 163.5>
LayerCount: 2
Fore
SplineSet
591 939 m 1
 703 939 l 1
 523 791 l 1
 463 791 l 1
 591 939 l 1
706 729 m 1
 800 729 l 1
 691 217 l 2
 660 71 531 -23 363 -23 c 0
 286 -23 220 -2 179 35 c 0
 147 64 124 114 124 155 c 0
 124 172 130 215 138 251 c 2
 240 729 l 1
 334 729 l 1
 225 217 l 2
 222 202 220 187 220 174 c 0
 220 104 284 58 381 58 c 0
 495 58 576 118 597 217 c 2
 706 729 l 1
EndSplineSet
EndChar

StartChar: Ucircumflex
Encoding: 219 219 193
Width: 722
Flags: MW
HStem: -23 81<332.5 438 332.5 447> 709 20<240 334 334 334 706 800 800 800>
VStem: 124 96<139 163.5>
LayerCount: 2
Fore
SplineSet
517 940 m 1
 611 940 l 1
 676 790 l 1
 612 790 l 1
 556 889 l 1
 453 790 l 1
 389 790 l 1
 517 940 l 1
706 729 m 1
 800 729 l 1
 691 217 l 2
 660 71 531 -23 363 -23 c 0
 286 -23 220 -2 179 35 c 0
 147 64 124 114 124 155 c 0
 124 172 130 215 138 251 c 2
 240 729 l 1
 334 729 l 1
 225 217 l 2
 222 202 220 187 220 174 c 0
 220 104 284 58 381 58 c 0
 495 58 576 118 597 217 c 2
 706 729 l 1
EndSplineSet
EndChar

StartChar: Udieresis
Encoding: 220 220 194
Width: 722
Flags: MW
HStem: -23 81<332.5 438 332.5 447> 709 20<240 334 334 334 706 800 800 800> 811 103<428 509 406 532 428 567 589 670>
VStem: 124 96<139 163.5>
LayerCount: 2
Fore
SplineSet
532 914 m 1
 509 811 l 1
 406 811 l 1
 428 914 l 1
 532 914 l 1
693 914 m 1
 670 811 l 1
 567 811 l 1
 589 914 l 1
 693 914 l 1
706 729 m 1
 800 729 l 1
 691 217 l 2
 660 71 531 -23 363 -23 c 0
 286 -23 220 -2 179 35 c 0
 147 64 124 114 124 155 c 0
 124 172 130 215 138 251 c 2
 240 729 l 1
 334 729 l 1
 225 217 l 2
 222 202 220 187 220 174 c 0
 220 104 284 58 381 58 c 0
 495 58 576 118 597 217 c 2
 706 729 l 1
EndSplineSet
EndChar

StartChar: Ugrave
Encoding: 217 217 195
Width: 722
Flags: MW
HStem: -23 81<332.5 438 332.5 447> 709 20<240 334 334 334 706 800 800 800>
VStem: 124 96<139 163.5>
LayerCount: 2
Fore
SplineSet
514 939 m 1
 586 791 l 1
 532 791 l 1
 408 939 l 1
 514 939 l 1
706 729 m 1
 800 729 l 1
 691 217 l 2
 660 71 531 -23 363 -23 c 0
 286 -23 220 -2 179 35 c 0
 147 64 124 114 124 155 c 0
 124 172 130 215 138 251 c 2
 240 729 l 1
 334 729 l 1
 225 217 l 2
 222 202 220 187 220 174 c 0
 220 104 284 58 381 58 c 0
 495 58 576 118 597 217 c 2
 706 729 l 1
EndSplineSet
EndChar

StartChar: Yacute
Encoding: 221 221 196
Width: 667
Flags: MW
HStem: 0 20 709 20<168 280 280 280 705 816 816 816>
LayerCount: 2
Fore
SplineSet
564 939 m 1
 676 939 l 1
 496 791 l 1
 436 791 l 1
 564 939 l 1
448 286 m 1
 387 0 l 1
 293 0 l 1
 354 286 l 1
 168 729 l 1
 280 729 l 1
 416 372 l 1
 705 729 l 1
 816 729 l 1
 448 286 l 1
EndSplineSet
EndChar

StartChar: Ydieresis
Encoding: 376 376 197
Width: 667
Flags: MW
HStem: 0 20 709 20<168 280 280 280 705 816 816 816> 811 103<400 481 378 504 400 539 561 642>
LayerCount: 2
Fore
SplineSet
448 286 m 1
 387 0 l 1
 293 0 l 1
 354 286 l 1
 168 729 l 1
 280 729 l 1
 416 372 l 1
 705 729 l 1
 816 729 l 1
 448 286 l 1
504 914 m 1
 481 811 l 1
 378 811 l 1
 400 914 l 1
 504 914 l 1
665 914 m 1
 642 811 l 1
 539 811 l 1
 561 914 l 1
 665 914 l 1
EndSplineSet
EndChar

StartChar: Zcaron
Encoding: 381 381 198
Width: 611
Flags: MW
HStem: 0 82<163 584> 647 82<212 601 195 737>
LayerCount: 2
Fore
SplineSet
737 729 m 1
 719 645 l 1
 163 82 l 1
 601 82 l 1
 584 0 l 1
 28 0 l 1
 46 84 l 1
 601 647 l 1
 195 647 l 1
 212 729 l 1
 737 729 l 1
531 791 m 1
 436 791 l 1
 372 939 l 1
 435 939 l 1
 491 841 l 1
 595 939 l 1
 659 939 l 1
 531 791 l 1
EndSplineSet
EndChar

StartChar: aacute
Encoding: 225 225 199
Width: 556
Flags: MW
HStem: -23 72<213.5 227> 462 77<350.5 402.5> 720 20<458 570 570 570>
VStem: 65 88<93.5 131.5 93.5 134> 478 90<395.5 460>
LayerCount: 2
Fore
SplineSet
458 740 m 1
 570 740 l 1
 390 592 l 1
 330 592 l 1
 458 740 l 1
552 51 m 1
 539 -14 l 1
 533 -15 527 -17 525 -17 c 0
 501 -23 498 -23 486 -23 c 0
 438 -23 410 1 410 43 c 2
 410 47 l 1
 410 54 l 1
 368 18 353 8 322 -3 c 0
 285 -16 245 -23 209 -23 c 0
 119 -23 65 25 65 105 c 0
 65 163 95 216 147 249 c 0
 196 280 238 290 372 302 c 0
 445 309 464 320 473 361 c 1
 476 379 l 2
 477 387 478 393 478 398 c 0
 478 435 433 462 372 462 c 0
 329 462 287 448 265 425 c 0
 251 411 244 397 235 369 c 1
 151 369 l 1
 170 480 254 539 394 539 c 0
 499 539 568 494 568 426 c 0
 568 415 568 415 562 389 c 2
 498 88 l 2
 497 85 497 81 497 78 c 0
 497 58 509 49 535 49 c 0
 539 49 543 49 552 51 c 1
431 164 m 2
 451 258 l 1
 407 243 399 242 304 229 c 0
 255 222 227 214 202 199 c 0
 172 181 153 148 153 115 c 0
 153 72 185 49 242 49 c 0
 330 49 418 102 431 164 c 2
EndSplineSet
EndChar

StartChar: acircumflex
Encoding: 226 226 200
Width: 556
Flags: MW
HStem: -23 72<213.5 227> 462 77<350.5 402.5> 721 20<393 488 488 488>
VStem: 65 88<93.5 131.5 93.5 134> 478 90<395.5 460>
LayerCount: 2
Fore
SplineSet
393 741 m 1
 488 741 l 1
 552 591 l 1
 489 591 l 1
 433 690 l 1
 329 591 l 1
 265 591 l 1
 393 741 l 1
552 51 m 1
 539 -14 l 1
 533 -15 527 -17 525 -17 c 0
 501 -23 498 -23 486 -23 c 0
 438 -23 410 1 410 43 c 2
 410 47 l 1
 410 54 l 1
 368 18 353 8 322 -3 c 0
 285 -16 245 -23 209 -23 c 0
 119 -23 65 25 65 105 c 0
 65 163 95 216 147 249 c 0
 196 280 238 290 372 302 c 0
 445 309 464 320 473 361 c 1
 476 379 l 2
 477 387 478 393 478 398 c 0
 478 435 433 462 372 462 c 0
 329 462 287 448 265 425 c 0
 251 411 244 397 235 369 c 1
 151 369 l 1
 170 480 254 539 394 539 c 0
 499 539 568 494 568 426 c 0
 568 416 568 416 562 389 c 2
 498 88 l 2
 497 85 497 81 497 78 c 0
 497 58 509 49 535 49 c 0
 539 49 543 49 552 51 c 1
431 164 m 2
 451 258 l 1
 407 243 399 242 304 229 c 0
 255 222 227 214 202 199 c 0
 172 181 153 148 153 115 c 0
 153 72 185 49 242 49 c 0
 330 49 418 102 431 164 c 2
EndSplineSet
EndChar

StartChar: adieresis
Encoding: 228 228 201
Width: 556
Flags: MW
HStem: -23 72<213.5 227> 462 77<350.5 402.5> 612 103<299 381 277 403 299 438 460 542>
VStem: 65 88<93.5 131.5 93.5 134> 478 90<395.5 460>
LayerCount: 2
Fore
SplineSet
403 715 m 1
 381 612 l 1
 277 612 l 1
 299 715 l 1
 403 715 l 1
564 715 m 1
 542 612 l 1
 438 612 l 1
 460 715 l 1
 564 715 l 1
552 51 m 1
 539 -14 l 1
 533 -15 527 -17 525 -17 c 0
 501 -23 498 -23 486 -23 c 0
 438 -23 410 1 410 43 c 2
 410 47 l 1
 410 54 l 1
 368 18 353 8 322 -3 c 0
 285 -16 245 -23 209 -23 c 0
 119 -23 65 25 65 105 c 0
 65 163 95 216 147 249 c 0
 196 280 238 290 372 302 c 0
 445 309 464 320 473 361 c 1
 476 379 l 2
 477 387 478 393 478 398 c 0
 478 435 433 462 372 462 c 0
 329 462 287 448 265 425 c 0
 251 411 244 397 235 369 c 1
 151 369 l 1
 170 480 254 539 394 539 c 0
 499 539 568 494 568 426 c 0
 568 416 568 416 562 389 c 2
 498 88 l 2
 497 85 497 81 497 78 c 0
 497 58 509 49 535 49 c 0
 539 49 543 49 552 51 c 1
431 164 m 2
 451 258 l 1
 407 243 399 242 304 229 c 0
 255 222 227 214 202 199 c 0
 172 181 153 148 153 115 c 0
 153 72 185 49 242 49 c 0
 330 49 418 102 431 164 c 2
EndSplineSet
EndChar

StartChar: agrave
Encoding: 224 224 202
Width: 556
Flags: MW
HStem: -23 72<213.5 227> 462 77<350.5 402.5> 720 20<285 392 392 392>
VStem: 65 88<93.5 131.5 93.5 134> 478 90<395.5 460>
LayerCount: 2
Fore
SplineSet
392 740 m 1
 463 592 l 1
 410 592 l 1
 285 740 l 1
 392 740 l 1
552 51 m 1
 539 -14 l 1
 533 -15 527 -17 525 -17 c 0
 501 -23 498 -23 486 -23 c 0
 438 -23 410 1 410 43 c 2
 410 47 l 1
 410 54 l 1
 368 18 353 8 322 -3 c 0
 285 -16 245 -23 209 -23 c 0
 119 -23 65 25 65 105 c 0
 65 163 95 216 147 249 c 0
 196 280 238 290 372 302 c 0
 445 309 464 320 473 361 c 1
 476 379 l 2
 477 387 478 393 478 398 c 0
 478 435 433 462 372 462 c 0
 329 462 287 448 265 425 c 0
 251 411 244 397 235 369 c 1
 151 369 l 1
 170 480 254 539 394 539 c 0
 499 539 568 494 568 426 c 0
 568 416 568 416 562 389 c 2
 498 88 l 2
 497 85 497 81 497 78 c 0
 497 58 509 49 535 49 c 0
 539 49 543 49 552 51 c 1
431 164 m 2
 451 258 l 1
 407 243 399 242 304 229 c 0
 255 222 227 214 202 199 c 0
 172 181 153 148 153 115 c 0
 153 72 185 49 242 49 c 0
 330 49 418 102 431 164 c 2
EndSplineSet
EndChar

StartChar: aring
Encoding: 229 229 203
Width: 556
Flags: W
HStem: -23 72<213.5 227> 462 77<350.5 402.5> 579 44<403.5 428 403.5 432.5> 710 44<419.5 443.5>
VStem: 65 88<93.5 131.5 93.5 134> 333 46<647.5 671 647.5 675.5> 468 45<662 685.5> 478 90<395.5 460>
LayerCount: 2
Fore
SplineSet
552 51 m 1xfd
 539 -14 l 1
 533 -15 527 -17 525 -17 c 0
 501 -23 498 -23 486 -23 c 0
 438 -23 410 1 410 43 c 2
 410 47 l 1
 410 54 l 1
 368 18 353 8 322 -3 c 0
 285 -16 245 -23 209 -23 c 0
 119 -23 65 25 65 105 c 0
 65 163 95 216 147 249 c 0
 196 280 238 290 372 302 c 0
 445 309 464 320 473 361 c 1
 476 379 l 2
 477 387 478 393 478 398 c 0
 478 435 433 462 372 462 c 0
 329 462 287 448 265 425 c 0
 251 411 244 397 235 369 c 1
 151 369 l 1
 170 480 254 539 394 539 c 0
 499 539 568 494 568 426 c 0
 568 415 568 415 562 389 c 2
 498 88 l 2
 497 85 497 81 497 78 c 0
 497 58 509 49 535 49 c 0
 539 49 543 49 552 51 c 1xfd
431 164 m 2
 451 258 l 1
 407 243 399 242 304 229 c 0
 255 222 227 214 202 199 c 0
 172 181 153 148 153 115 c 0
 153 72 185 49 242 49 c 0
 330 49 418 102 431 164 c 2
441 754 m 0
 483 754 513 725 513 687 c 0xf6
 513 630 461 579 404 579 c 0
 364 579 333 609 333 649 c 0
 333 702 387 754 441 754 c 0
433 710 m 0
 406 710 379 684 379 658 c 0
 379 637 393 623 414 623 c 0
 442 623 468 649 468 675 c 0
 468 696 454 710 433 710 c 0
EndSplineSet
EndChar

StartChar: atilde
Encoding: 227 227 204
Width: 556
Flags: W
HStem: -23 72<213 227> 462 77<350.5 402.5> 612 70<477 492 477 497.5> 644 70<334 348>
VStem: 65 88<93.5 131.5 93.5 134> 478 90<395.5 460>
LayerCount: 2
Fore
SplineSet
552 51 m 1xec
 539 -14 l 1
 533 -15 527 -17 525 -17 c 0
 501 -23 498 -23 486 -23 c 0
 438 -23 410 1 410 43 c 2
 410 47 l 1
 410 54 l 1
 368 18 353 8 322 -3 c 0
 285 -16 245 -23 209 -23 c 0
 119 -23 65 25 65 105 c 0
 65 163 95 216 147 249 c 0
 196 280 238 290 372 302 c 0
 445 309 464 320 473 361 c 1
 476 379 l 2
 477 386 478 393 478 398 c 0
 478 435 433 462 372 462 c 0
 329 462 287 448 265 425 c 0
 251 411 244 397 235 369 c 1
 151 369 l 1
 170 480 254 539 394 539 c 0
 500 539 568 494 568 426 c 0
 568 415 568 415 562 389 c 2
 498 88 l 2
 497 85 497 81 497 78 c 0
 497 58 509 49 535 49 c 0
 539 49 543 49 552 51 c 1xec
431 164 m 2
 451 258 l 1
 407 243 398 242 304 229 c 0
 255 222 227 214 202 199 c 0
 172 181 153 148 153 115 c 0
 153 72 184 49 242 49 c 0
 330 49 418 102 431 164 c 2
530 719 m 1
 583 719 l 1
 563 655 520 612 475 612 c 0x2c
 454 612 436 616 372 638 c 0
 362 642 351 644 345 644 c 0
 323 644 315 639 295 611 c 1
 242 611 l 1
 254 647 262 663 274 678 c 0
 291 699 320 714 346 714 c 0x1c
 364 714 380 710 419 697 c 0
 445 688 472 682 482 682 c 0
 502 682 513 691 530 719 c 1
EndSplineSet
EndChar

StartChar: ccedilla
Encoding: 231 231 205
Width: 500
Flags: MW
HStem: -214 43<185.5 218.5 185.5 238.5> -94 148<229.5 313> 462 77<336 397.5>
VStem: 76 88<142 213 142 216> 263 78<-132 -110> 468 86<391.5 398.5>
LayerCount: 2
Fore
SplineSet
271 -23 m 1
 253 -56 l 1
 266 -54 270 -54 274 -54 c 0
 311 -54 341 -77 341 -105 c 0
 341 -169 281 -214 196 -214 c 0
 157 -214 129 -206 78 -180 c 1
 106 -142 l 1
 147 -164 171 -171 200 -171 c 0
 237 -171 263 -148 263 -116 c 0
 263 -104 249 -94 232 -94 c 0
 227 -94 226 -94 216 -96 c 0
 210 -97 210 -97 205 -98 c 1
 192 -92 l 1
 230 -22 l 1
 183 -13 163 -4 139 19 c 0
 100 55 76 112 76 170 c 0
 76 262 110 371 157 432 c 0
 210 501 291 539 381 539 c 0
 438 539 479 524 510 492 c 0
 536 465 554 425 554 393 c 0
 554 390 553 379 552 363 c 2
 551 348 l 1
 467 348 l 1
 468 357 468 364 468 370 c 0
 468 427 429 462 366 462 c 0
 305 462 256 432 218 373 c 0
 185 321 164 245 164 181 c 0
 164 103 208 54 277 54 c 0
 349 54 404 98 434 180 c 1
 518 180 l 1
 486 51 400 -19 271 -23 c 1
EndSplineSet
EndChar

StartChar: eacute
Encoding: 233 233 206
Width: 556
Flags: MW
HStem: -23 77<256.5 329.5 256.5 342> 234 72<195 489 195 563 177 489> 462 77<345.5 411.5> 720 20<468 580 580 580>
VStem: 84 88<146 198 145 214> 492 88<351 376.5>
LayerCount: 2
Fore
SplineSet
468 740 m 1
 580 740 l 1
 400 592 l 1
 340 592 l 1
 468 740 l 1
563 234 m 1
 177 234 l 1
 173 219 172 209 172 187 c 0
 172 103 217 54 296 54 c 0
 363 54 416 90 452 159 c 1
 536 159 l 1
 505 51 402 -23 282 -23 c 0
 225 -23 181 -7 146 27 c 0
 108 64 84 119 84 173 c 0
 84 255 121 368 168 431 c 0
 219 498 302 539 389 539 c 0
 497 539 580 465 580 367 c 0
 580 335 577 309 563 234 c 1
195 306 m 1
 489 306 l 1
 491 322 492 329 492 339 c 0
 492 414 447 462 376 462 c 0
 295 462 221 398 195 306 c 1
EndSplineSet
EndChar

StartChar: ecircumflex
Encoding: 234 234 207
Width: 556
Flags: MW
HStem: -23 77<256.5 329.5 256.5 342> 234 72<195 489 195 563 177 489> 462 77<345.5 411.5> 721 20<389 483 483 483>
VStem: 84 88<146 198 145 214> 492 88<351 376.5>
LayerCount: 2
Fore
SplineSet
389 741 m 1
 483 741 l 1
 548 591 l 1
 484 591 l 1
 428 690 l 1
 325 591 l 1
 261 591 l 1
 389 741 l 1
563 234 m 1
 177 234 l 1
 173 219 172 209 172 187 c 0
 172 103 217 54 296 54 c 0
 363 54 416 90 452 159 c 1
 536 159 l 1
 505 51 402 -23 282 -23 c 0
 225 -23 181 -7 146 27 c 0
 108 64 84 119 84 173 c 0
 84 255 121 368 168 431 c 0
 219 498 302 539 389 539 c 0
 497 539 580 465 580 367 c 0
 580 335 577 309 563 234 c 1
195 306 m 1
 489 306 l 1
 491 322 492 329 492 339 c 0
 492 414 447 462 376 462 c 0
 295 462 221 398 195 306 c 1
EndSplineSet
EndChar

StartChar: edieresis
Encoding: 235 235 208
Width: 556
Flags: MW
HStem: -23 77<256.5 329.5 256.5 342> 234 72<195 489 195 563 177 489> 462 77<345.5 411.5> 612 103<296 377 274 400 296 435 457 538>
VStem: 84 88<146 198 145 214> 492 88<351 376.5>
LayerCount: 2
Fore
SplineSet
400 715 m 1
 377 612 l 1
 274 612 l 1
 296 715 l 1
 400 715 l 1
561 715 m 1
 538 612 l 1
 435 612 l 1
 457 715 l 1
 561 715 l 1
563 234 m 1
 177 234 l 1
 173 219 172 209 172 187 c 0
 172 103 217 54 296 54 c 0
 363 54 416 90 452 159 c 1
 536 159 l 1
 505 51 402 -23 282 -23 c 0
 225 -23 181 -7 146 27 c 0
 108 64 84 119 84 173 c 0
 84 255 121 368 168 431 c 0
 219 498 302 539 389 539 c 0
 497 539 580 465 580 367 c 0
 580 335 577 309 563 234 c 1
195 306 m 1
 489 306 l 1
 491 322 492 329 492 339 c 0
 492 414 447 462 376 462 c 0
 295 462 221 398 195 306 c 1
EndSplineSet
EndChar

StartChar: egrave
Encoding: 232 232 209
Width: 556
Flags: MW
HStem: -23 77<256.5 329.5 256.5 342> 234 72<195 489 195 563 177 489> 462 77<345.5 411.5> 720 20<278 384 384 384>
VStem: 84 88<146 198 145 214> 492 88<351 376.5>
LayerCount: 2
Fore
SplineSet
384 740 m 1
 456 592 l 1
 402 592 l 1
 278 740 l 1
 384 740 l 1
563 234 m 1
 177 234 l 1
 173 219 172 209 172 187 c 0
 172 103 217 54 296 54 c 0
 363 54 416 90 452 159 c 1
 536 159 l 1
 505 51 402 -23 282 -23 c 0
 225 -23 181 -7 146 27 c 0
 108 64 84 119 84 173 c 0
 84 255 121 368 168 431 c 0
 219 498 302 539 389 539 c 0
 497 539 580 465 580 367 c 0
 580 335 577 309 563 234 c 1
195 306 m 1
 489 306 l 1
 491 322 492 329 492 339 c 0
 492 414 447 462 376 462 c 0
 295 462 221 398 195 306 c 1
EndSplineSet
EndChar

StartChar: iacute
Encoding: 237 237 210
Width: 278
Flags: MW
HStem: 0 20 720 20<319 431 431 431>
LayerCount: 2
Fore
SplineSet
290 527 m 1
 178 0 l 1
 94 0 l 1
 206 527 l 1
 290 527 l 1
319 740 m 1
 431 740 l 1
 251 592 l 1
 191 592 l 1
 319 740 l 1
EndSplineSet
EndChar

StartChar: icircumflex
Encoding: 238 238 211
Width: 278
Flags: MW
HStem: 0 20 721 20<247 342 342 342>
LayerCount: 2
Fore
SplineSet
290 527 m 1
 178 0 l 1
 94 0 l 1
 206 527 l 1
 290 527 l 1
247 741 m 1
 342 741 l 1
 406 591 l 1
 343 591 l 1
 287 690 l 1
 183 591 l 1
 119 591 l 1
 247 741 l 1
EndSplineSet
EndChar

StartChar: idieresis
Encoding: 239 239 212
Width: 278
Flags: MW
HStem: 0 20 605 103<154 236 132 258 154 293 315 397>
LayerCount: 2
Fore
SplineSet
290 527 m 1
 178 0 l 1
 94 0 l 1
 206 527 l 1
 290 527 l 1
258 708 m 1
 236 605 l 1
 132 605 l 1
 154 708 l 1
 258 708 l 1
419 708 m 1
 397 605 l 1
 293 605 l 1
 315 708 l 1
 419 708 l 1
EndSplineSet
EndChar

StartChar: igrave
Encoding: 236 236 213
Width: 278
Flags: MW
HStem: 0 20 720 20<152 258 258 258>
LayerCount: 2
Fore
SplineSet
290 527 m 1
 178 0 l 1
 94 0 l 1
 206 527 l 1
 290 527 l 1
258 740 m 1
 330 592 l 1
 277 592 l 1
 152 740 l 1
 258 740 l 1
EndSplineSet
EndChar

StartChar: ntilde
Encoding: 241 241 214
Width: 556
Flags: W
HStem: 0 20 467 72<400 424> 504 20<181 257 257 257> 612 70<482.5 497.5 482.5 503> 644 70<339.5 353.5>
VStem: 486 88<407.5 409>
LayerCount: 2
Fore
SplineSet
181 524 m 1xa4
 257 524 l 1x34
 244 459 l 1
 296 512 362 539 438 539 c 0
 521 539 574 490 574 414 c 0
 574 401 573 389 570 376 c 2
 490 0 l 1
 406 0 l 1
 480 349 l 2
 484 366 486 380 486 386 c 0
 486 432 449 467 399 467 c 0xc4
 309 467 239 399 215 289 c 2
 154 0 l 1
 70 0 l 1
 181 524 l 1xa4
535 719 m 1
 589 719 l 1
 568 655 525 612 481 612 c 0x14
 459 612 442 616 377 638 c 0
 367 642 356 644 351 644 c 0
 328 644 322 640 301 611 c 1
 248 611 l 1
 260 647 268 663 279 678 c 0
 296 699 326 714 352 714 c 0x0c
 369 714 385 710 424 697 c 0
 450 688 477 682 488 682 c 0
 507 682 517 690 535 719 c 1
EndSplineSet
EndChar

StartChar: oacute
Encoding: 243 243 215
Width: 556
Flags: MW
HStem: -23 77<247.5 317> 462 77<338 408> 720 20<464 576 576 576>
VStem: 80 88<143.5 206.5> 488 88<308.5 373.5>
LayerCount: 2
Fore
SplineSet
464 740 m 1
 576 740 l 1
 396 592 l 1
 336 592 l 1
 464 740 l 1
384 539 m 0
 442 539 487 523 521 490 c 0
 556 456 576 405 576 352 c 0
 576 265 543 156 497 93 c 0
 441 16 365 -23 269 -23 c 0
 157 -23 80 53 80 164 c 0
 80 249 113 359 158 423 c 0
 209 497 291 539 384 539 c 0
371 462 m 0
 305 462 248 425 212 357 c 0
 185 307 168 242 168 184 c 0
 168 103 212 54 283 54 c 0
 352 54 406 90 444 159 c 0
 472 209 488 274 488 333 c 0
 488 414 445 462 371 462 c 0
EndSplineSet
EndChar

StartChar: ocircumflex
Encoding: 244 244 216
Width: 556
Flags: MW
HStem: -23 77<247.5 317> 462 77<338 408> 721 20<383 477 477 477>
VStem: 80 88<143.5 206.5> 488 88<308.5 373.5>
LayerCount: 2
Fore
SplineSet
383 741 m 1
 477 741 l 1
 542 591 l 1
 478 591 l 1
 422 690 l 1
 319 591 l 1
 255 591 l 1
 383 741 l 1
384 539 m 0
 442 539 487 523 521 490 c 0
 556 456 576 405 576 352 c 0
 576 265 543 156 497 93 c 0
 441 16 365 -23 269 -23 c 0
 157 -23 80 53 80 164 c 0
 80 249 113 359 158 423 c 0
 209 497 291 539 384 539 c 0
371 462 m 0
 305 462 248 425 212 357 c 0
 185 307 168 242 168 184 c 0
 168 103 212 54 283 54 c 0
 352 54 406 90 444 159 c 0
 472 209 488 274 488 333 c 0
 488 414 445 462 371 462 c 0
EndSplineSet
EndChar

StartChar: odieresis
Encoding: 246 246 217
Width: 556
Flags: MW
HStem: -23 77<247.5 317> 462 77<338 408> 612 103<291 372 269 395 291 430 452 533>
VStem: 80 88<143.5 206.5> 488 88<308.5 373.5>
LayerCount: 2
Fore
SplineSet
395 715 m 1
 372 612 l 1
 269 612 l 1
 291 715 l 1
 395 715 l 1
556 715 m 1
 533 612 l 1
 430 612 l 1
 452 715 l 1
 556 715 l 1
384 539 m 0
 442 539 487 523 521 490 c 0
 556 456 576 405 576 352 c 0
 576 265 543 156 497 93 c 0
 441 16 365 -23 269 -23 c 0
 157 -23 80 53 80 164 c 0
 80 249 113 359 158 423 c 0
 209 497 291 539 384 539 c 0
371 462 m 0
 305 462 248 425 212 357 c 0
 185 307 168 242 168 184 c 0
 168 103 212 54 283 54 c 0
 352 54 406 90 444 159 c 0
 472 209 488 274 488 333 c 0
 488 414 445 462 371 462 c 0
EndSplineSet
EndChar

StartChar: ograve
Encoding: 242 242 218
Width: 556
Flags: MW
HStem: -23 77<247.5 317> 462 77<338 408> 720 20<274 380 380 380>
VStem: 80 88<143.5 206.5> 488 88<308.5 373.5>
LayerCount: 2
Fore
SplineSet
380 740 m 1
 452 592 l 1
 398 592 l 1
 274 740 l 1
 380 740 l 1
384 539 m 0
 442 539 487 523 521 490 c 0
 556 456 576 405 576 352 c 0
 576 265 543 156 497 93 c 0
 441 16 365 -23 269 -23 c 0
 157 -23 80 53 80 164 c 0
 80 249 113 359 158 423 c 0
 209 497 291 539 384 539 c 0
371 462 m 0
 305 462 248 425 212 357 c 0
 185 307 168 242 168 184 c 0
 168 103 212 54 283 54 c 0
 352 54 406 90 444 159 c 0
 472 209 488 274 488 333 c 0
 488 414 445 462 371 462 c 0
EndSplineSet
EndChar

StartChar: otilde
Encoding: 245 245 219
Width: 556
Flags: W
HStem: -23 77<247.5 317> 462 77<338 408> 612 70<477 492 477 497.5> 644 70<333.5 348>
VStem: 80 88<143.5 206.5> 488 88<308.5 373.5>
LayerCount: 2
Fore
SplineSet
384 539 m 0xec
 442 539 488 523 521 490 c 1
 556 457 576 405 576 352 c 0
 576 265 543 156 497 93 c 0
 441 16 365 -23 269 -23 c 0
 157 -23 80 53 80 164 c 0
 80 249 113 359 158 423 c 0
 209 497 291 539 384 539 c 0xec
371 462 m 0
 305 462 248 425 212 357 c 0
 185 307 168 242 168 184 c 0
 168 103 212 54 283 54 c 0
 352 54 406 90 444 159 c 0
 472 209 488 274 488 333 c 0
 488 414 445 462 371 462 c 0
530 719 m 1
 583 719 l 1
 563 655 520 612 475 612 c 0x2c
 453 612 436 616 372 638 c 0
 361 642 351 644 345 644 c 0
 322 644 316 640 295 611 c 1
 242 611 l 1
 255 648 262 663 274 678 c 0
 291 699 320 714 346 714 c 0x1c
 364 714 380 710 419 697 c 0
 444 689 472 682 482 682 c 0
 502 682 512 690 530 719 c 1
EndSplineSet
EndChar

StartChar: scaron
Encoding: 353 353 220
Width: 500
Flags: W
HStem: -23 77<227 283.5 227 321.5> 462 77<320.5 368.5> 720 20<260 323 323 323 483 547 547 547>
VStem: 61 93<106 113> 123 88<354 368.5> 405 88<140.5 154.5>
LayerCount: 2
Fore
SplineSet
419 592 m 1xec
 324 592 l 1
 260 740 l 1
 323 740 l 1
 379 642 l 1
 483 740 l 1
 547 740 l 1
 419 592 l 1xec
514 378 m 1
 430 378 l 1
 431 389 l 1
 431 394 l 1
 431 400 l 2
 431 440 398 462 339 462 c 0
 295 462 265 452 241 429 c 0
 223 412 211 387 211 367 c 0xe8
 211 341 240 321 296 307 c 2
 372 288 l 2
 460 266 493 234 493 173 c 0
 493 54 396 -23 247 -23 c 0
 130 -23 61 25 61 105 c 0
 61 121 62 133 67 156 c 1
 156 156 l 1
 155 146 154 137 154 131 c 0xf4
 154 81 192 54 262 54 c 0
 305 54 348 67 373 88 c 0
 390 101 405 131 405 150 c 0
 405 159 399 174 392 183 c 0
 383 194 368 200 335 209 c 2
 261 228 l 2
 158 255 123 284 123 345 c 0
 123 392 146 444 183 479 c 0
 224 518 285 539 356 539 c 0
 454 539 520 491 520 421 c 0
 520 408 519 399 514 378 c 1
EndSplineSet
EndChar

StartChar: uacute
Encoding: 250 250 221
Width: 556
Flags: W
HStem: -23 72<240.5 265> 0 20 504 20<177 261 261 261 510 594 594 594> 720 20<463 575 575 575>
VStem: 88 91<52 130>
LayerCount: 2
Fore
SplineSet
463 740 m 1x78
 575 740 l 1
 395 592 l 1
 335 592 l 1
 463 740 l 1x78
483 0 m 1
 407 0 l 1x48
 419 57 l 1
 361 1 304 -23 226 -23 c 0
 140 -23 88 18 88 86 c 0
 88 99 89 110 91 120 c 2
 177 524 l 1
 261 524 l 1
 182 153 l 2
 180 144 179 134 179 126 c 0
 179 78 213 49 268 49 c 0xa8
 353 49 424 119 447 227 c 2
 510 524 l 1
 594 524 l 1
 483 0 l 1
EndSplineSet
EndChar

StartChar: ucircumflex
Encoding: 251 251 222
Width: 556
Flags: W
HStem: -23 72<240.5 265> 0 20 504 20<177 261 261 261 510 594 594 594> 721 20<380 474 474 474>
VStem: 88 91<52 130>
LayerCount: 2
Fore
SplineSet
380 741 m 1x78
 474 741 l 1
 539 591 l 1
 475 591 l 1
 419 690 l 1
 316 591 l 1
 252 591 l 1
 380 741 l 1x78
483 0 m 1
 407 0 l 1x48
 419 57 l 1
 361 1 304 -23 226 -23 c 0
 140 -23 88 18 88 86 c 0
 88 99 89 110 91 120 c 2
 177 524 l 1
 261 524 l 1
 182 153 l 2
 180 144 179 134 179 126 c 0
 179 78 213 49 268 49 c 0xa8
 353 49 424 119 447 227 c 2
 510 524 l 1
 594 524 l 1
 483 0 l 1
EndSplineSet
EndChar

StartChar: udieresis
Encoding: 252 252 223
Width: 556
Flags: W
HStem: -23 72<240.5 265> 0 20 504 20<177 261 261 261 510 594 594 594> 612 103<290 371 268 394 290 429 451 532>
VStem: 88 91<52 130>
LayerCount: 2
Fore
SplineSet
394 715 m 1x78
 371 612 l 1
 268 612 l 1
 290 715 l 1
 394 715 l 1x78
555 715 m 1
 532 612 l 1
 429 612 l 1
 451 715 l 1
 555 715 l 1
483 0 m 1
 407 0 l 1x48
 419 57 l 1
 361 1 304 -23 226 -23 c 0
 140 -23 88 18 88 86 c 0
 88 99 89 110 91 120 c 2
 177 524 l 1
 261 524 l 1
 182 153 l 2
 180 144 179 134 179 126 c 0
 179 78 213 49 268 49 c 0xa8
 353 49 424 119 447 227 c 2
 510 524 l 1
 594 524 l 1
 483 0 l 1
EndSplineSet
EndChar

StartChar: ugrave
Encoding: 249 249 224
Width: 556
Flags: W
HStem: -23 72<240.5 265> 0 20 504 20<177 261 261 261 510 594 594 594> 720 20<270 376 376 376>
VStem: 88 91<52 130>
LayerCount: 2
Fore
SplineSet
376 740 m 1x78
 448 592 l 1
 395 592 l 1
 270 740 l 1
 376 740 l 1x78
483 0 m 1
 407 0 l 1x48
 419 57 l 1
 361 1 304 -23 226 -23 c 0
 140 -23 88 18 88 86 c 0
 88 99 89 110 91 120 c 2
 177 524 l 1
 261 524 l 1
 182 153 l 2
 180 144 179 134 179 126 c 0
 179 78 213 49 268 49 c 0xa8
 353 49 424 119 447 227 c 2
 510 524 l 1
 594 524 l 1
 483 0 l 1
EndSplineSet
EndChar

StartChar: yacute
Encoding: 253 253 225
Width: 500
Flags: MW
HStem: -218 20 504 20<132 222 222 222 501 590 590 590> 720 20<434 546 546 546>
LayerCount: 2
Fore
SplineSet
501 524 m 1
 590 524 l 1
 222 -110 l 2
 178 -185 128 -218 58 -218 c 0
 37 -218 26 -216 8 -208 c 1
 24 -133 l 1
 29 -134 34 -134 49 -136 c 1
 59 -136 l 1
 71 -136 l 1
 108 -135 125 -124 148 -85 c 1
 200 -4 l 1
 132 524 l 1
 222 524 l 1
 268 117 l 1
 501 524 l 1
434 740 m 1
 546 740 l 1
 366 592 l 1
 306 592 l 1
 434 740 l 1
EndSplineSet
EndChar

StartChar: ydieresis
Encoding: 255 255 226
Width: 500
Flags: MW
HStem: -218 20 504 20<132 222 222 222 501 590 590 590> 612 103<268 349 246 372 268 407 429 510>
LayerCount: 2
Fore
SplineSet
501 524 m 1
 590 524 l 1
 222 -110 l 2
 178 -185 128 -218 58 -218 c 0
 37 -218 26 -216 8 -208 c 1
 24 -133 l 1
 29 -134 34 -134 49 -136 c 1
 59 -136 l 1
 71 -136 l 1
 108 -135 125 -124 148 -85 c 1
 200 -4 l 1
 132 524 l 1
 222 524 l 1
 268 117 l 1
 501 524 l 1
372 715 m 1
 349 612 l 1
 246 612 l 1
 268 715 l 1
 372 715 l 1
533 715 m 1
 510 612 l 1
 407 612 l 1
 429 715 l 1
 533 715 l 1
EndSplineSet
EndChar

StartChar: zcaron
Encoding: 382 382 227
Width: 500
Flags: MW
HStem: 0 72<147 458> 452 72<165 444 150 557> 720 20<261 324 324 324 483 548 548 548>
LayerCount: 2
Fore
SplineSet
557 524 m 1
 539 449 l 1
 147 72 l 1
 473 72 l 1
 458 0 l 1
 31 0 l 1
 49 74 l 1
 444 452 l 1
 150 452 l 1
 165 524 l 1
 557 524 l 1
419 592 m 1
 325 592 l 1
 261 740 l 1
 324 740 l 1
 380 642 l 1
 483 740 l 1
 548 740 l 1
 419 592 l 1
EndSplineSet
EndChar

StartChar: nsuperior
Encoding: 8319 8319 228
Width: 365
Flags: MW
HStem: 557 52<318.5 328.5>
VStem: 364 64<512 555>
LayerCount: 2
Fore
SplineSet
177 600 m 1
 233 600 l 1
 227 570 l 1
 258 596 297 609 340 609 c 0
 393 609 428 578 428 532 c 0
 428 525 427 517 425 509 c 2
 378 284 l 1
 317 284 l 1
 361 493 l 2
 363 501 364 510 364 514 c 0
 364 539 343 557 314 557 c 0
 261 557 221 519 208 458 c 2
 171 284 l 1
 110 284 l 1
 177 600 l 1
EndSplineSet
EndChar

StartChar: ff
Encoding: 64256 64256 229
Width: 556
Flags: MW
HStem: 0 20 457 67<130 186 116 200 284 356 408 464 562 634> 660 72<349 374.5 627 652.5>
LayerCount: 2
Fore
SplineSet
370 524 m 1
 356 457 l 1
 270 457 l 1
 173 0 l 1
 89 0 l 1
 186 457 l 1
 116 457 l 1
 130 524 l 1
 200 524 l 1
 219 613 l 2
 235 687 291 732 368 732 c 0
 384 732 395 731 413 727 c 1
 398 658 l 1
 385 660 378 660 371 660 c 0
 327 660 310 644 299 593 c 2
 284 524 l 1
 370 524 l 1
648 524 m 1
 634 457 l 1
 548 457 l 1
 451 0 l 1
 367 0 l 1
 464 457 l 1
 394 457 l 1
 408 524 l 1
 478 524 l 1
 497 613 l 2
 513 687 569 732 646 732 c 0
 662 732 673 731 691 727 c 1
 676 658 l 1
 663 660 656 660 649 660 c 0
 605 660 588 644 577 593 c 2
 562 524 l 1
 648 524 l 1
EndSplineSet
EndChar

StartChar: ffi
Encoding: 64259 64259 230
Width: 778
Flags: W
HStem: 0 20 457 67<130 186 116 200 284 356 408 464 562 634> 626 103<777 839 755 861> 660 72<349 374.5 627 652.5>
LayerCount: 2
Fore
SplineSet
370 524 m 1xd0
 356 457 l 1
 270 457 l 1
 173 0 l 1
 89 0 l 1
 186 457 l 1
 116 457 l 1
 130 524 l 1
 200 524 l 1
 219 613 l 2
 235 687 291 732 368 732 c 0
 384 732 395 731 413 727 c 1
 398 658 l 1
 385 660 378 660 371 660 c 0
 327 660 310 644 299 593 c 2
 284 524 l 1
 370 524 l 1xd0
648 524 m 1
 634 457 l 1
 548 457 l 1
 451 0 l 1
 367 0 l 1
 464 457 l 1
 394 457 l 1
 408 524 l 1
 478 524 l 1
 497 613 l 2
 513 687 569 732 646 732 c 0
 662 732 673 731 691 727 c 1
 676 658 l 1
 663 660 656 660 649 660 c 0
 605 660 588 644 577 593 c 2
 562 524 l 1
 648 524 l 1
817 524 m 1
 706 0 l 1
 622 0 l 1
 733 524 l 1
 817 524 l 1
861 729 m 1x20
 839 626 l 1
 755 626 l 1
 777 729 l 1
 861 729 l 1x20
EndSplineSet
EndChar

StartChar: ffl
Encoding: 64260 64260 231
Width: 778
Flags: W
HStem: 0 20 457 67<130 186 116 200 284 356 408 464 562 634> 660 72<349 374.5 627 652.5> 709 20<779 863 863 863>
LayerCount: 2
Fore
SplineSet
370 524 m 1xe0
 356 457 l 1
 270 457 l 1
 173 0 l 1
 89 0 l 1
 186 457 l 1
 116 457 l 1
 130 524 l 1
 200 524 l 1
 219 613 l 2
 235 687 291 732 368 732 c 0
 384 732 395 731 413 727 c 1
 398 658 l 1
 385 660 378 660 371 660 c 0
 327 660 310 644 299 593 c 2
 284 524 l 1
 370 524 l 1xe0
648 524 m 1
 634 457 l 1
 548 457 l 1
 451 0 l 1
 367 0 l 1
 464 457 l 1
 394 457 l 1
 408 524 l 1
 478 524 l 1
 497 613 l 2
 513 687 569 732 646 732 c 0
 662 732 673 731 691 727 c 1
 676 658 l 1
 663 660 656 660 649 660 c 0
 605 660 588 644 577 593 c 2
 562 524 l 1
 648 524 l 1
863 729 m 1x90
 708 0 l 1
 624 0 l 1
 779 729 l 1
 863 729 l 1x90
EndSplineSet
EndChar

StartChar: oneeighth
Encoding: 8539 8539 232
Width: 834
Flags: W
HStem: -20 20 -14 47<638 691 638 697.5> 201 44<687 719.5> 378 47<709.5 754>
VStem: 533 55<77.5 119> 590 55<280 319 280 326.5> 770 55<107.5 156.5> 796 55<310.5 343>
LayerCount: 2
Fore
SplineSet
741 709 m 1x9d
 799 709 l 1
 192 -20 l 1
 134 -20 l 1
 741 709 l 1x9d
277 580 m 1
 178 580 l 1
 188 626 l 1
 277 633 291 642 324 709 c 1
 367 709 l 1
 276 284 l 1
 214 284 l 1
 277 580 l 1
771 224 m 1
 807 205 825 178 825 142 c 0
 825 58 745 -14 650 -14 c 0x72
 578 -14 533 25 533 89 c 0
 533 149 567 196 632 224 c 1
 599 247 590 261 590 289 c 0
 590 364 660 425 745 425 c 0
 810 425 851 391 851 335 c 0
 851 286 829 255 771 224 c 1
735 378 m 0
 684 378 645 342 645 296 c 0
 645 264 668 245 706 245 c 0
 757 245 796 280 796 327 c 0x75
 796 359 773 378 735 378 c 0
697 201 m 0
 636 201 588 155 588 97 c 0
 588 58 616 33 660 33 c 0
 722 33 770 78 770 137 c 0x7a
 770 176 742 201 697 201 c 0
EndSplineSet
EndChar

StartChar: threeeighths
Encoding: 8540 8540 233
Width: 834
Flags: W
HStem: -20 20 -14 47<640.5 693 640.5 700> 201 44<689.5 721.5> 270 53<232.5 289 232.5 297> 378 47<712 756.5> 656 53<312.5 348.5>
VStem: 119 63<364 381> 367 64<393.5 441> 392 64<592 622.5> 536 55<77.5 119> 593 55<280 319 280 326.5> 772 55<107.5 156.5> 798 55<310.5 343>
LayerCount: 2
Fore
SplineSet
770 709 m 1x8c68
 828 709 l 1
 221 -20 l 1
 163 -20 l 1
 770 709 l 1x8c68
774 224 m 1
 810 205 827 178 827 142 c 0
 827 58 747 -14 653 -14 c 0x7c10
 581 -14 536 25 536 89 c 0
 536 149 570 195 634 224 c 1
 602 247 593 261 593 289 c 0
 593 364 662 425 747 425 c 0
 812 425 853 391 853 335 c 0
 853 286 831 255 774 224 c 1
737 378 m 0
 687 378 648 342 648 296 c 0
 648 264 670 245 709 245 c 0
 760 245 798 280 798 327 c 0x7c28
 798 359 776 378 737 378 c 0
699 201 m 0
 639 201 591 155 591 97 c 0
 591 58 619 33 662 33 c 0
 724 33 772 78 772 137 c 0x7f50
 772 176 744 201 699 201 c 0
256 476 m 1
 267 527 l 1
 318 527 338 530 358 541 c 0
 379 552 392 577 392 607 c 0
 392 638 368 656 329 656 c 0
 296 656 266 643 249 621 c 0
 240 608 234 594 228 567 c 1
 166 567 l 1
 187 661 246 709 339 709 c 0
 414 709 456 676 456 617 c 0x7c80
 456 565 428 524 378 504 c 1
 415 491 431 469 431 432 c 0
 431 340 350 270 244 270 c 0
 162 270 119 307 119 375 c 0
 119 387 120 396 123 412 c 1
 185 412 l 1
 183 399 182 392 182 384 c 0
 182 344 208 323 257 323 c 0
 321 323 367 364 367 423 c 0
 367 459 342 476 288 476 c 2
 265 476 l 1
 256 476 l 1
EndSplineSet
EndChar

StartChar: fiveeighths
Encoding: 8541 8541 234
Width: 834
Flags: W
HStem: -20 20 -14 47<640 693 640 699.5> 201 44<689 721.5> 286 47<224.5 281 224.5 288.5> 378 47<711.5 756> 533 47<295 314.5> 673 52<268 445 268 268>
VStem: 365 56<424 484> 535 55<77.5 119> 592 55<280 319 280 326.5> 772 55<107.5 156.5> 798 55<310.5 343>
LayerCount: 2
Fore
SplineSet
770 709 m 1x88d0
 828 709 l 1
 221 -20 l 1
 163 -20 l 1
 770 709 l 1x88d0
774 224 m 1
 810 205 827 178 827 142 c 0
 827 58 747 -14 652 -14 c 0x7e20
 580 -14 535 25 535 89 c 0
 535 149 569 196 634 224 c 1
 601 247 592 261 592 289 c 0
 592 364 662 425 747 425 c 0
 812 425 853 391 853 335 c 0
 853 286 831 255 774 224 c 1
737 378 m 0
 686 378 647 342 647 296 c 0
 647 264 670 245 708 245 c 0
 759 245 798 280 798 327 c 0x7e50
 798 359 775 378 737 378 c 0
699 201 m 0
 638 201 590 155 590 97 c 0
 590 58 618 33 662 33 c 0
 724 33 772 78 772 137 c 0x7fa0
 772 176 744 201 699 201 c 0
456 725 m 1
 445 673 l 1
 268 673 l 1
 226 555 l 1
 254 572 280 580 310 580 c 0
 378 580 421 540 421 475 c 0
 421 372 338 286 239 286 c 0
 164 286 123 324 123 393 c 2
 123 404 l 1
 176 404 l 1
 178 357 202 333 247 333 c 0
 315 333 365 387 365 461 c 0
 365 507 338 533 291 533 c 0
 257 533 235 523 204 494 c 1
 155 494 l 1
 237 725 l 1
 456 725 l 1
EndSplineSet
EndChar

StartChar: seveneighths
Encoding: 8542 8542 235
Width: 834
Flags: W
HStem: -20 20 -14 47<630.5 683 630.5 690> 201 44<679.5 711.5> 378 47<702 746.5> 673 52<209 427 197 493>
VStem: 526 55<77.5 119> 583 55<280 319 280 326.5> 762 55<107.5 156.5> 788 55<310.5 343>
LayerCount: 2
Fore
SplineSet
707 709 m 1x9680
 765 709 l 1
 158 -20 l 1
 100 -20 l 1
 707 709 l 1x9680
764 224 m 1
 800 205 817 178 817 142 c 0
 817 58 737 -14 643 -14 c 0x79
 571 -14 526 25 526 89 c 0
 526 149 560 195 624 224 c 1
 592 247 583 261 583 289 c 0
 583 364 652 425 737 425 c 0
 802 425 843 391 843 335 c 0
 843 286 821 255 764 224 c 1
727 378 m 0
 677 378 638 342 638 296 c 0
 638 264 660 245 699 245 c 0
 750 245 788 280 788 327 c 0x7a80
 788 359 766 378 727 378 c 0
689 201 m 0
 629 201 581 155 581 97 c 0
 581 58 609 33 652 33 c 0
 714 33 762 78 762 137 c 0x7d
 762 176 734 201 689 201 c 0
493 725 m 1
 484 681 l 1
 360 553 283 437 230 300 c 1
 173 300 l 1
 236 441 294 527 427 673 c 1
 197 673 l 1
 209 725 l 1
 493 725 l 1
EndSplineSet
EndChar

StartChar: zerosuperior
Encoding: 8304 8304 236
Width: 333
Flags: MW
HStem: 270 55<215 251.5 215 251.5> 654 55<287 319>
VStem: 110 65<374.5 434.5> 360 65<554 604.5>
LayerCount: 2
Fore
SplineSet
309 709 m 0
 383 709 425 664 425 586 c 0
 425 502 396 398 357 344 c 0
 321 293 279 270 224 270 c 0
 153 270 110 316 110 392 c 0
 110 477 139 581 178 635 c 0
 213 684 257 709 309 709 c 0
300 654 m 0
 274 654 250 641 234 618 c 0
 201 572 175 474 175 397 c 0
 175 352 197 325 233 325 c 0
 270 325 297 346 320 394 c 0
 342 440 360 526 360 582 c 0
 360 627 338 654 300 654 c 0
EndSplineSet
EndChar

StartChar: foursuperior
Encoding: 8308 8308 237
Width: 333
Flags: MW
HStem: 384 55<162 272 162 335 347 400>
LayerCount: 2
Fore
SplineSet
272 384 m 1
 88 384 l 1
 101 444 l 1
 357 709 l 1
 404 709 l 1
 347 439 l 1
 412 439 l 1
 400 384 l 1
 335 384 l 1
 314 284 l 1
 251 284 l 1
 272 384 l 1
284 439 m 1
 318 600 l 1
 162 439 l 1
 284 439 l 1
EndSplineSet
EndChar

StartChar: fivesuperior
Encoding: 8309 8309 238
Width: 333
Flags: MW
HStem: 270 55<206 251.5> 512 55<275 292.5> 649 60<246 432 246 246>
VStem: 343 65<439 466>
LayerCount: 2
Fore
SplineSet
444 709 m 1
 432 649 l 1
 246 649 l 1
 210 547 l 1
 243 563 261 567 289 567 c 0
 361 567 408 525 408 460 c 0
 408 418 393 374 366 340 c 0
 328 293 281 270 222 270 c 0
 169 270 126 289 106 322 c 0
 97 337 93 352 93 382 c 2
 93 395 l 1
 157 395 l 1
 159 347 182 325 230 325 c 0
 296 325 343 375 343 444 c 0
 343 488 316 512 269 512 c 0
 234 512 218 505 180 473 c 1
 124 473 l 1
 208 709 l 1
 444 709 l 1
EndSplineSet
EndChar

StartChar: sixsuperior
Encoding: 8310 8310 239
Width: 333
Flags: W
HStem: 270 55<220.5 258> 497 55<273 295.5> 654 55<290 328>
VStem: 107 65<372 421.5 372 424.5> 342 65<428.5 454.5> 369 64<608.5 617.5>
LayerCount: 2
Fore
SplineSet
432 591 m 1xf4
 368 591 l 1
 369 602 l 1xe4
 369 633 345 654 311 654 c 0
 253 654 208 601 189 510 c 1
 225 540 254 552 292 552 c 0
 361 552 407 510 407 447 c 0xe8
 407 410 391 368 366 336 c 0
 331 293 285 270 231 270 c 0
 155 270 107 315 107 386 c 0
 107 463 135 565 170 619 c 0
 210 679 260 709 320 709 c 0
 389 709 433 671 433 611 c 0
 433 606 433 603 432 591 c 1xf4
276 497 m 0xf8
 217 497 172 451 172 392 c 0
 172 352 200 325 241 325 c 0
 297 325 342 374 342 436 c 0
 342 473 315 497 276 497 c 0xf8
EndSplineSet
EndChar

StartChar: sevensuperior
Encoding: 8311 8311 240
Width: 333
Flags: MW
HStem: 649 60<169 387 156 471>
LayerCount: 2
Fore
SplineSet
471 709 m 1
 460 656 l 1
 356 559 243 395 204 284 c 1
 134 284 l 1
 191 413 251 500 387 649 c 1
 156 649 l 1
 169 709 l 1
 471 709 l 1
EndSplineSet
EndChar

StartChar: eightsuperior
Encoding: 8312 8312 241
Width: 333
Flags: W
HStem: 270 55<212.5 263.5 212.5 275.5> 480 52<258.5 287> 654 55<276 321>
VStem: 96 65<366 402.5> 152 65<563.5 600.5 563.5 609> 339 65<392.5 438> 364 65<593 621>
LayerCount: 2
Fore
SplineSet
357 508 m 1xea
 387 490 404 462 404 428 c 0
 404 343 323 270 228 270 c 0
 148 270 96 310 96 373 c 0xf4
 96 432 129 480 188 508 c 1
 160 529 152 542 152 570 c 0
 152 648 223 709 312 709 c 0
 382 709 429 672 429 617 c 0
 429 569 407 536 357 508 c 1xea
301 654 m 0
 251 654 217 623 217 578 c 0
 217 549 239 532 278 532 c 0
 328 532 364 563 364 606 c 0
 364 636 341 654 301 654 c 0
264 480 m 0xf4
 206 480 161 438 161 383 c 0
 161 349 191 325 234 325 c 0
 293 325 339 366 339 419 c 0
 339 457 310 480 264 480 c 0xf4
EndSplineSet
EndChar

StartChar: ninesuperior
Encoding: 8313 8313 242
Width: 333
Flags: MW
HStem: 270 55<206 233> 427 55<235.5 259> 654 55<272.5 311.5>
VStem: 126 65<526 551.5> 361 65<577.5 607>
LayerCount: 2
Fore
SplineSet
102 388 m 1
 165 388 l 1
 165 382 l 1
 165 378 l 1
 166 346 189 325 223 325 c 0
 279 325 322 376 342 467 c 1
 312 440 278 427 240 427 c 0
 170 427 126 468 126 534 c 0
 126 569 140 607 166 643 c 0
 197 686 244 709 301 709 c 0
 376 709 426 664 426 596 c 0
 426 559 416 498 402 444 c 0
 385 382 361 342 322 310 c 0
 290 284 252 270 214 270 c 0
 146 270 101 309 101 367 c 0
 101 372 101 380 102 388 c 1
292 654 m 0
 236 654 191 606 191 546 c 0
 191 506 215 482 256 482 c 0
 315 482 361 529 361 588 c 0
 361 626 331 654 292 654 c 0
EndSplineSet
EndChar

StartChar: IJ
Encoding: 306 306 243
Width: 733
Flags: W
HStem: -23 81<392 437.5 392 465.5> 0 20 709 20<196 290 290 290 673 767 767 767>
VStem: 233 96<111 128.5>
LayerCount: 2
Fore
SplineSet
290 729 m 1x70
 135 0 l 1
 41 0 l 1
 196 729 l 1
 290 729 l 1x70
673 729 m 1
 767 729 l 1
 651 182 l 2
 623 51 532 -23 399 -23 c 0
 350 -23 316 -13 288 9 c 0
 253 37 233 79 233 122 c 0
 233 135 235 152 239 170 c 2
 253 234 l 1
 347 234 l 1
 333 168 l 2
 330 156 329 144 329 134 c 0
 329 88 365 58 419 58 c 0xb0
 456 58 493 75 517 102 c 0
 539 127 552 160 564 216 c 2
 673 729 l 1
EndSplineSet
EndChar

StartChar: Abreve
Encoding: 258 258 244
Width: 667
Flags: MW
HStem: 0 20 219 78<283 514 283 524 239 514> 709 20<432 552 552 552> 793 72<492.5 528.5>
LayerCount: 2
Fore
SplineSet
524 219 m 1
 239 219 l 1
 116 0 l 1
 17 0 l 1
 432 729 l 1
 552 729 l 1
 653 0 l 1
 551 0 l 1
 524 219 l 1
514 297 m 1
 474 630 l 1
 283 297 l 1
 514 297 l 1
382 928 m 1
 435 928 l 1
 435 920 l 1
 435 915 l 2
 435 885 468 865 517 865 c 0
 577 865 617 888 627 928 c 1
 683 928 l 1
 672 884 661 863 637 842 c 0
 604 812 553 793 504 793 c 0
 429 793 377 833 377 892 c 0
 377 902 378 910 382 928 c 1
EndSplineSet
EndChar

StartChar: Aogonek
Encoding: 260 260 245
Width: 667
Flags: MW
HStem: -205 45<574.5 593.5> 0 20 219 78<283 514 283 524 226 514> 709 20<432 552 552 552>
VStem: 452 75<-129.5 -113>
LayerCount: 2
Fore
SplineSet
524 219 m 1
 226 219 l 1
 116 0 l 1
 17 0 l 1
 432 729 l 1
 552 729 l 1
 653 0 l 1
 564 -39 527 -73 527 -116 c 0
 527 -143 554 -160 595 -160 c 0
 620 -160 642 -157 663 -150 c 1
 654 -195 l 1
 612 -204 605 -205 582 -205 c 0
 502 -205 452 -176 452 -130 c 0
 452 -96 474 -59 509 -35 c 0
 529 -21 545 -13 582 0 c 1
 551 0 l 1
 524 219 l 1
514 297 m 1
 474 630 l 1
 283 297 l 1
 514 297 l 1
EndSplineSet
EndChar

StartChar: Cacute
Encoding: 262 262 246
Width: 722
Flags: MW
HStem: -23 81<329 420> 660 81<473.5 565.5>
VStem: 112 96<207 305>
LayerCount: 2
Fore
SplineSet
770 503 m 1
 674 503 l 1
 666 611 616 660 515 660 c 0
 423 660 350 617 289 527 c 0
 238 451 208 352 208 260 c 0
 208 139 277 58 381 58 c 0
 460 58 536 95 578 154 c 0
 596 179 612 209 637 266 c 1
 735 266 l 1
 701 185 669 130 630 87 c 0
 565 16 473 -23 367 -23 c 0
 278 -23 215 4 169 62 c 0
 132 109 112 172 112 242 c 0
 112 368 161 505 240 600 c 0
 318 694 415 741 532 741 c 0
 627 741 697 704 738 634 c 0
 757 600 767 562 770 503 c 1
621 939 m 1
 733 939 l 1
 553 791 l 1
 493 791 l 1
 621 939 l 1
EndSplineSet
EndChar

StartChar: Ccaron
Encoding: 268 268 247
Width: 722
Flags: MW
HStem: -23 81<329 420> 660 81<473.5 565.5>
VStem: 112 96<207 305>
LayerCount: 2
Fore
SplineSet
770 503 m 1
 674 503 l 1
 666 611 616 660 515 660 c 0
 423 660 350 617 289 527 c 0
 238 451 208 352 208 260 c 0
 208 139 277 58 381 58 c 0
 460 58 536 95 578 154 c 0
 596 179 612 209 637 266 c 1
 735 266 l 1
 701 185 669 130 630 87 c 0
 565 16 473 -23 367 -23 c 0
 278 -23 215 4 169 62 c 0
 132 109 112 172 112 242 c 0
 112 368 161 505 240 600 c 0
 318 694 415 741 532 741 c 0
 627 741 697 704 738 634 c 0
 757 600 767 562 770 503 c 1
596 791 m 1
 501 791 l 1
 437 939 l 1
 500 939 l 1
 556 841 l 1
 660 939 l 1
 724 939 l 1
 596 791 l 1
EndSplineSet
EndChar

StartChar: Cdotaccent
Encoding: 266 266 248
Width: 722
Flags: MW
HStem: -23 82<365.5 427.5 365.5 464.5> 659 82<474 534.5> 811 104<525 606 502 629>
VStem: 113 93<217 301 217 314> 674 95<503 547>
LayerCount: 2
Fore
SplineSet
769 503 m 1
 673 503 l 1
 674 510 674 519 674 521 c 0
 674 573 659 610 628 630 c 1
 602 648 557 659 512 659 c 0
 422 659 347 615 287 527 c 0
 236 452 206 350 206 252 c 0
 206 182 226 130 265 99 c 0
 297 73 342 59 389 59 c 0
 466 59 534 93 580 154 c 0
 602 183 618 216 638 266 c 1
 733 266 l 1
 669 66 557 -23 372 -23 c 0
 279 -23 218 4 171 65 c 0
 131 118 113 178 113 255 c 0
 113 373 161 508 237 603 c 0
 309 694 411 741 537 741 c 0
 687 741 769 662 769 517 c 2
 769 503 l 1
629 915 m 1
 606 811 l 1
 502 811 l 1
 525 915 l 1
 629 915 l 1
EndSplineSet
EndChar

StartChar: Dcaron
Encoding: 270 270 249
Width: 722
Flags: MW
HStem: 0 82<200 371> 647 82<321 492 321 321>
VStem: 663 96<434 524.5 425.5 532.5>
LayerCount: 2
Fore
SplineSet
89 0 m 1
 244 729 l 1
 526 729 l 2
 591 729 644 711 682 677 c 0
 729 635 759 561 759 488 c 0
 759 363 711 218 643 134 c 0
 570 45 479 0 371 0 c 2
 89 0 l 1
200 82 m 1
 372 82 l 2
 463 82 540 125 591 205 c 0
 632 268 663 388 663 480 c 0
 663 585 599 647 492 647 c 2
 321 647 l 1
 200 82 l 1
536 791 m 1
 441 791 l 1
 377 939 l 1
 440 939 l 1
 496 841 l 1
 600 939 l 1
 664 939 l 1
 536 791 l 1
EndSplineSet
EndChar

StartChar: Dcroat
Encoding: 272 272 250
Width: 722
Flags: MW
HStem: 0 82<200 371> 341 67<106 161 93 176 270 422> 647 82<321 492 321 321>
VStem: 663 96<434 524.5 425.5 532.5>
LayerCount: 2
Fore
SplineSet
161 341 m 1
 93 341 l 1
 106 408 l 1
 176 408 l 1
 244 729 l 1
 526 729 l 2
 591 729 644 711 682 677 c 0
 729 635 759 561 759 488 c 0
 759 363 711 218 643 134 c 0
 570 45 479 0 371 0 c 2
 89 0 l 1
 161 341 l 1
255 341 m 1
 200 82 l 1
 372 82 l 2
 463 82 540 125 591 205 c 0
 631 268 663 388 663 480 c 0
 663 585 599 647 492 647 c 2
 321 647 l 1
 270 408 l 1
 436 408 l 1
 422 341 l 1
 255 341 l 1
EndSplineSet
EndChar

StartChar: Ecaron
Encoding: 282 282 251
Width: 667
Flags: MW
HStem: 0 82<201 613> 332 82<255 668 272 650> 647 82<322 734 322 322>
LayerCount: 2
Fore
SplineSet
255 332 m 1
 201 82 l 1
 630 82 l 1
 613 0 l 1
 90 0 l 1
 245 729 l 1
 751 729 l 1
 734 647 l 1
 322 647 l 1
 272 414 l 1
 668 414 l 1
 650 332 l 1
 255 332 l 1
555 791 m 1
 460 791 l 1
 396 939 l 1
 459 939 l 1
 515 841 l 1
 619 939 l 1
 683 939 l 1
 555 791 l 1
EndSplineSet
EndChar

StartChar: Edotaccent
Encoding: 278 278 252
Width: 667
Flags: MW
HStem: 0 82<201 613> 332 82<255 668 272 650> 647 82<322 734 322 322> 811 103<481 563 459 585>
LayerCount: 2
Fore
SplineSet
255 332 m 1
 201 82 l 1
 630 82 l 1
 613 0 l 1
 90 0 l 1
 245 729 l 1
 751 729 l 1
 734 647 l 1
 322 647 l 1
 272 414 l 1
 668 414 l 1
 650 332 l 1
 255 332 l 1
585 914 m 1
 563 811 l 1
 459 811 l 1
 481 914 l 1
 585 914 l 1
EndSplineSet
EndChar

StartChar: Eogonek
Encoding: 280 280 253
Width: 667
Flags: MW
HStem: -205 45<534 553.5> 0 82<201 542 613 613> 332 82<255 668 272 650> 647 82<322 734 322 322>
VStem: 412 75<-129.5 -113>
LayerCount: 2
Fore
SplineSet
255 332 m 1
 201 82 l 1
 630 82 l 1
 613 0 l 1
 551 -30 539 -37 521 -52 c 1
 499 -73 487 -94 487 -116 c 0
 487 -143 513 -160 555 -160 c 0
 580 -160 602 -157 623 -150 c 1
 614 -195 l 1
 572 -204 565 -205 542 -205 c 0
 462 -205 412 -176 412 -130 c 0
 412 -96 434 -59 469 -35 c 0
 489 -21 505 -14 542 0 c 1
 90 0 l 1
 245 729 l 1
 751 729 l 1
 734 647 l 1
 322 647 l 1
 272 414 l 1
 668 414 l 1
 650 332 l 1
 255 332 l 1
EndSplineSet
EndChar

StartChar: Gbreve
Encoding: 286 286 254
Width: 778
Flags: MW
HStem: -23 81<374 410.5> 303 82<489 693 471 793> 660 81<497 567.5> 793 72<552.5 589.5>
VStem: 109 96<248.5 321 248.5 326>
LayerCount: 2
Fore
SplineSet
793 385 m 1
 710 -4 l 1
 651 -4 l 1
 647 86 l 1
 609 54 590 40 566 26 c 0
 512 -5 443 -23 378 -23 c 0
 310 -23 244 -2 199 35 c 0
 143 81 109 167 109 261 c 0
 109 391 167 527 263 623 c 0
 341 701 439 741 555 741 c 0
 712 741 809 658 809 525 c 2
 809 519 l 1
 809 515 l 1
 809 508 l 1
 718 508 l 1
 717 555 707 581 681 608 c 0
 648 642 598 660 537 660 c 0
 440 660 354 617 293 538 c 0
 240 468 205 365 205 277 c 0
 205 220 218 167 242 132 c 0
 273 86 337 58 411 58 c 0
 480 58 538 79 592 123 c 0
 643 165 672 211 687 277 c 2
 693 303 l 1
 471 303 l 1
 489 385 l 1
 793 385 l 1
443 928 m 1
 496 928 l 1
 496 920 l 1
 496 915 l 2
 496 885 528 865 577 865 c 0
 637 865 678 888 688 928 c 1
 744 928 l 1
 732 884 721 863 697 842 c 1
 665 812 614 793 565 793 c 0
 490 793 438 833 438 892 c 0
 438 902 439 910 443 928 c 1
EndSplineSet
EndChar

StartChar: Gdotaccent
Encoding: 288 288 255
Width: 778
Flags: MW
HStem: -23 82<371.5 427.5> 303 82<487 691 470 791> 659 82<492 574> 811 104<532 614 510 636>
VStem: 110 94<240.5 318.5 240.5 326.5>
LayerCount: 2
Fore
SplineSet
791 385 m 1
 708 -4 l 1
 650 -4 l 1
 647 93 l 1
 591 25 479 -23 376 -23 c 0
 215 -23 110 89 110 261 c 0
 110 392 168 534 259 625 c 1
 334 702 433 741 551 741 c 0
 653 741 726 708 771 641 c 0
 797 604 807 566 807 508 c 1
 712 508 l 1
 712 543 709 557 699 578 c 0
 674 630 614 659 534 659 c 0
 442 659 360 617 295 535 c 0
 237 462 204 367 204 270 c 0
 204 211 216 163 238 130 c 1
 269 87 335 59 408 59 c 0
 477 59 534 80 588 126 c 0
 640 170 675 225 687 283 c 2
 691 303 l 1
 470 303 l 1
 487 385 l 1
 791 385 l 1
636 915 m 1
 614 811 l 1
 510 811 l 1
 532 915 l 1
 636 915 l 1
EndSplineSet
EndChar

StartChar: Idotaccent
Encoding: 304 304 256
Width: 278
Flags: MW
HStem: 0 20 709 20<255 349 349 349> 811 103<285 367 263 389>
LayerCount: 2
Fore
SplineSet
349 729 m 1
 194 0 l 1
 100 0 l 1
 255 729 l 1
 349 729 l 1
389 914 m 1
 367 811 l 1
 263 811 l 1
 285 914 l 1
 389 914 l 1
EndSplineSet
EndChar

StartChar: Lacute
Encoding: 313 313 257
Width: 556
Flags: MW
HStem: 0 82<191 534> 709 20<235 329 329 329>
LayerCount: 2
Fore
SplineSet
329 729 m 1
 191 82 l 1
 551 82 l 1
 534 0 l 1
 80 0 l 1
 235 729 l 1
 329 729 l 1
368 939 m 1
 480 939 l 1
 300 791 l 1
 240 791 l 1
 368 939 l 1
EndSplineSet
EndChar

StartChar: Lcaron
Encoding: 317 317 258
Width: 556
Flags: MW
HStem: 0 82<191 534> 631 98<429 463 235 408>
LayerCount: 2
Fore
SplineSet
329 729 m 1
 191 82 l 1
 551 82 l 1
 534 0 l 1
 80 0 l 1
 235 729 l 1
 329 729 l 1
429 729 m 1
 529 729 l 1
 509 636 l 2
 491 554 444 505 381 505 c 1
 389 543 l 1
 428 543 452 572 463 631 c 1
 408 631 l 1
 429 729 l 1
EndSplineSet
EndChar

StartChar: Nacute
Encoding: 323 323 259
Width: 722
Flags: MW
HStem: 0 20 709 20<231 335 335 335 712 801 801 801>
LayerCount: 2
Fore
SplineSet
801 729 m 1
 646 0 l 1
 540 0 l 1
 291 591 l 1
 165 0 l 1
 76 0 l 1
 231 729 l 1
 335 729 l 1
 585 131 l 1
 712 729 l 1
 801 729 l 1
594 939 m 1
 706 939 l 1
 526 791 l 1
 466 791 l 1
 594 939 l 1
EndSplineSet
EndChar

StartChar: Ncaron
Encoding: 327 327 260
Width: 722
Flags: MW
HStem: 0 20 709 20<231 335 335 335 712 801 801 801>
LayerCount: 2
Fore
SplineSet
801 729 m 1
 646 0 l 1
 540 0 l 1
 291 591 l 1
 165 0 l 1
 76 0 l 1
 231 729 l 1
 335 729 l 1
 585 131 l 1
 712 729 l 1
 801 729 l 1
570 791 m 1
 475 791 l 1
 411 939 l 1
 474 939 l 1
 530 841 l 1
 634 939 l 1
 698 939 l 1
 570 791 l 1
EndSplineSet
EndChar

StartChar: Ohungarumlaut
Encoding: 336 336 261
Width: 778
Flags: MW
HStem: -23 81<371.5 438> 660 81<480.5 559>
VStem: 104 96<241.5 317 241.5 327> 732 96<400 476>
LayerCount: 2
Fore
SplineSet
537 741 m 0
 628 741 707 713 756 664 c 0
 800 619 828 543 828 464 c 0
 828 306 752 144 635 54 c 0
 570 4 485 -23 391 -23 c 0
 306 -23 225 6 177 54 c 0
 131 100 104 176 104 263 c 0
 104 391 157 522 246 614 c 0
 327 699 424 741 537 741 c 0
525 660 m 0
 431 660 342 613 284 534 c 1
 231 460 200 363 200 271 c 0
 200 212 214 165 241 130 c 0
 276 86 339 58 404 58 c 0
 501 58 589 104 648 185 c 0
 701 258 732 354 732 446 c 0
 732 506 718 553 691 588 c 0
 657 632 593 660 525 660 c 0
555 939 m 1
 667 939 l 1
 487 789 l 1
 427 789 l 1
 555 939 l 1
729 939 m 1
 841 939 l 1
 661 789 l 1
 601 789 l 1
 729 939 l 1
EndSplineSet
EndChar

StartChar: Racute
Encoding: 340 340 262
Width: 722
Flags: W
HStem: 0 20 314 82<254 502 271 493> 647 82<325 555 325 325>
VStem: 562 101<40 81> 594 96<254 263.5> 674 96<544 570>
LayerCount: 2
Fore
SplineSet
254 314 m 1xe8
 187 0 l 1
 93 0 l 1
 248 729 l 1
 584 729 l 2
 712 729 770 681 770 575 c 0xe4
 770 513 743 446 703 409 c 0
 685 393 669 382 630 360 c 1
 677 329 690 309 690 264 c 0xe8
 690 244 689 236 669 126 c 0
 665 104 663 86 663 76 c 0
 663 54 671 35 684 23 c 1
 679 0 l 1
 566 0 l 1
 563 21 562 32 562 48 c 0xf0
 562 79 562 79 586 179 c 0
 591 200 594 221 594 239 c 0
 594 288 559 314 493 314 c 2
 254 314 l 1xe8
271 396 m 1
 502 396 l 2
 566 396 608 413 638 449 c 1
 660 477 674 520 674 558 c 0
 674 582 666 605 653 619 c 0
 634 640 608 647 555 647 c 2
 325 647 l 1
 271 396 l 1
577 939 m 1
 689 939 l 1
 509 791 l 1
 449 791 l 1
 577 939 l 1
EndSplineSet
EndChar

StartChar: Rcaron
Encoding: 344 344 263
Width: 722
Flags: W
HStem: 0 20 314 82<254 502 271 493> 647 82<325 555 325 325>
VStem: 562 101<40 81> 594 96<254 263.5> 674 96<544 570>
LayerCount: 2
Fore
SplineSet
254 314 m 1xe8
 187 0 l 1
 93 0 l 1
 248 729 l 1
 584 729 l 2
 712 729 770 681 770 575 c 0xe4
 770 513 743 446 703 409 c 0
 685 393 669 382 630 360 c 1
 677 329 690 309 690 264 c 0xe8
 690 244 689 236 669 126 c 0
 665 104 663 86 663 76 c 0
 663 54 671 35 684 23 c 1
 679 0 l 1
 566 0 l 1
 563 21 562 32 562 48 c 0xf0
 562 79 562 79 586 179 c 0
 591 200 594 221 594 239 c 0
 594 288 559 314 493 314 c 2
 254 314 l 1xe8
271 396 m 1
 502 396 l 2
 566 396 608 413 638 449 c 1
 660 477 674 520 674 558 c 0
 674 582 666 605 653 619 c 0
 634 640 608 647 555 647 c 2
 325 647 l 1
 271 396 l 1
556 791 m 1
 461 791 l 1
 397 939 l 1
 460 939 l 1
 516 841 l 1
 620 939 l 1
 684 939 l 1
 556 791 l 1
EndSplineSet
EndChar

StartChar: Sacute
Encoding: 346 346 264
Width: 667
Flags: W
HStem: -23 81<289.5 382.5> 660 81<436.5 498>
VStem: 89 92<145.5 179.5> 178 96<496 517.5> 573 96<208.5 233.5> 622 92<563 565.5>
LayerCount: 2
Fore
SplineSet
706 515 m 1xd4
 618 515 l 1
 621 534 622 542 622 551 c 0
 622 580 609 612 590 629 c 0
 568 649 526 660 470 660 c 0
 403 660 355 644 318 611 c 0
 288 584 274 554 274 518 c 0xd4
 274 474 298 454 375 432 c 2
 547 383 l 2
 594 370 623 350 645 315 c 0
 661 290 669 264 669 237 c 0
 669 180 634 108 582 61 c 1
 523 6 435 -23 330 -23 c 0
 179 -23 89 48 89 169 c 0
 89 190 91 206 98 232 c 1
 185 232 l 1
 182 213 181 204 181 191 c 0
 181 100 233 58 346 58 c 0
 426 58 485 76 526 114 c 0
 554 140 573 178 573 209 c 0xe8
 573 258 541 286 460 309 c 2
 289 357 l 2
 222 376 178 429 178 492 c 0
 178 543 209 614 250 656 c 0
 304 712 385 741 488 741 c 0
 566 741 619 725 660 689 c 0
 693 660 714 614 714 571 c 0
 714 555 712 543 706 515 c 1xd4
566 939 m 1
 678 939 l 1
 498 791 l 1
 438 791 l 1
 566 939 l 1
EndSplineSet
EndChar

StartChar: Scedilla
Encoding: 350 350 265
Width: 667
Flags: W
HStem: -214 43<252.5 285.5 252.5 305.5> -94 152<296.5 307.5> 660 81<436.5 498>
VStem: 89 92<145.5 179.5> 178 96<496 517.5> 330 78<-132 -110> 573 96<201 233.5> 622 92<563 565.5>
LayerCount: 2
Fore
SplineSet
338 -22 m 1xea
 320 -56 l 1
 333 -54 336 -54 341 -54 c 0
 378 -54 408 -77 408 -105 c 0
 408 -169 348 -214 263 -214 c 0
 224 -214 197 -206 145 -180 c 1
 173 -142 l 1
 214 -164 238 -171 267 -171 c 0
 304 -171 330 -148 330 -116 c 0
 330 -104 316 -94 299 -94 c 0
 294 -94 293 -94 283 -96 c 0
 277 -97 277 -97 272 -98 c 1
 259 -92 l 1
 296 -22 l 1
 227 -13 199 -4 169 15 c 0
 118 49 89 105 89 169 c 0
 89 190 91 206 98 232 c 1
 185 232 l 1
 182 213 181 204 181 191 c 0
 181 100 233 58 346 58 c 0
 426 58 485 76 526 114 c 0
 554 140 573 178 573 209 c 0xf6
 573 258 541 286 460 309 c 2
 289 357 l 2
 222 376 178 429 178 492 c 0
 178 543 209 614 250 656 c 0
 304 712 385 741 488 741 c 0
 566 741 619 725 660 689 c 0
 693 660 714 614 714 571 c 0
 714 555 712 543 706 515 c 1
 618 515 l 1
 621 534 622 542 622 551 c 0xe9
 622 580 609 612 590 629 c 0
 568 649 526 660 470 660 c 0
 403 660 355 644 318 611 c 0
 288 584 274 554 274 518 c 0
 274 474 298 454 375 432 c 2
 547 383 l 2
 594 370 623 350 645 315 c 0
 661 290 669 264 669 237 c 0
 669 165 616 78 545 32 c 0
 489 -4 422 -22 338 -22 c 1xea
EndSplineSet
EndChar

StartChar: Tcaron
Encoding: 356 356 266
Width: 611
Flags: MW
HStem: 0 20 647 82<175 399 158 748 493 731 493 493>
LayerCount: 2
Fore
SplineSet
493 647 m 1
 355 0 l 1
 261 0 l 1
 399 647 l 1
 158 647 l 1
 175 729 l 1
 748 729 l 1
 731 647 l 1
 493 647 l 1
524 791 m 1
 429 791 l 1
 365 939 l 1
 428 939 l 1
 484 841 l 1
 588 939 l 1
 652 939 l 1
 524 791 l 1
EndSplineSet
EndChar

StartChar: Uring
Encoding: 366 366 267
Width: 722
Flags: MW
HStem: -23 81<332.5 438 332.5 447> 709 20<240 334 334 334 706 800 800 800> 778 44<529.5 553.5 529.5 558.5> 909 44<545.5 570>
VStem: 124 96<139 163.5> 459 46<846 869.5 846 874.5> 594 45<861 884>
LayerCount: 2
Fore
SplineSet
706 729 m 1
 800 729 l 1
 691 217 l 2
 660 71 531 -23 363 -23 c 0
 286 -23 220 -2 179 35 c 0
 147 64 124 114 124 155 c 0
 124 172 130 215 138 251 c 2
 240 729 l 1
 334 729 l 1
 225 217 l 2
 222 202 220 187 220 174 c 0
 220 104 284 58 381 58 c 0
 495 58 576 118 597 217 c 2
 706 729 l 1
567 953 m 0
 609 953 639 925 639 886 c 0
 639 829 587 778 530 778 c 0
 490 778 459 809 459 848 c 0
 459 901 513 953 567 953 c 0
560 909 m 0
 531 909 505 883 505 856 c 0
 505 836 519 822 540 822 c 0
 567 822 594 848 594 874 c 0
 594 894 580 909 560 909 c 0
EndSplineSet
EndChar

StartChar: Uhungarumlaut
Encoding: 368 368 268
Width: 722
Flags: MW
HStem: -23 81<332.5 438 332.5 447> 709 20<240 334 334 334 706 800 800 800>
VStem: 124 96<139 163.5>
LayerCount: 2
Fore
SplineSet
706 729 m 1
 800 729 l 1
 691 217 l 2
 660 71 531 -23 363 -23 c 0
 286 -23 220 -2 179 35 c 0
 147 64 124 114 124 155 c 0
 124 172 130 215 138 251 c 2
 240 729 l 1
 334 729 l 1
 225 217 l 2
 222 202 220 187 220 174 c 0
 220 104 284 58 381 58 c 0
 495 58 576 118 597 217 c 2
 706 729 l 1
520 939 m 1
 632 939 l 1
 452 789 l 1
 392 789 l 1
 520 939 l 1
694 939 m 1
 806 939 l 1
 626 789 l 1
 566 789 l 1
 694 939 l 1
EndSplineSet
EndChar

StartChar: Zacute
Encoding: 377 377 269
Width: 611
Flags: MW
HStem: 0 82<163 584> 647 82<212 601 195 737>
LayerCount: 2
Fore
SplineSet
737 729 m 1
 719 645 l 1
 163 82 l 1
 601 82 l 1
 584 0 l 1
 28 0 l 1
 46 84 l 1
 601 647 l 1
 195 647 l 1
 212 729 l 1
 737 729 l 1
552 939 m 1
 664 939 l 1
 484 791 l 1
 424 791 l 1
 552 939 l 1
EndSplineSet
EndChar

StartChar: Zdotaccent
Encoding: 379 379 270
Width: 611
Flags: MW
HStem: 0 82<163 584> 647 82<212 601 195 737> 811 103<458 540 436 562>
LayerCount: 2
Fore
SplineSet
737 729 m 1
 719 645 l 1
 163 82 l 1
 601 82 l 1
 584 0 l 1
 28 0 l 1
 46 84 l 1
 601 647 l 1
 195 647 l 1
 212 729 l 1
 737 729 l 1
562 914 m 1
 540 811 l 1
 436 811 l 1
 458 914 l 1
 562 914 l 1
EndSplineSet
EndChar

StartChar: Amacron
Encoding: 256 256 271
Width: 667
Flags: MW
HStem: 0 20 219 78<283 514 283 524 239 514> 709 20<432 552 552 552> 826 69<389 647 373 663>
LayerCount: 2
Fore
SplineSet
524 219 m 1
 239 219 l 1
 116 0 l 1
 17 0 l 1
 432 729 l 1
 552 729 l 1
 653 0 l 1
 551 0 l 1
 524 219 l 1
514 297 m 1
 474 630 l 1
 283 297 l 1
 514 297 l 1
663 895 m 1
 647 826 l 1
 373 826 l 1
 389 895 l 1
 663 895 l 1
EndSplineSet
EndChar

StartChar: Tcommaaccent
Encoding: 354 354 272
Width: 611
Flags: MW
HStem: -158 98<244 278 223 344> 0 20 647 82<175 399 158 748 493 731 493 493>
LayerCount: 2
Fore
SplineSet
493 647 m 1
 355 0 l 1
 261 0 l 1
 399 647 l 1
 158 647 l 1
 175 729 l 1
 748 729 l 1
 731 647 l 1
 493 647 l 1
244 -60 m 1
 344 -60 l 1
 325 -153 l 1
 307 -235 259 -284 196 -284 c 1
 204 -246 l 1
 243 -246 267 -217 278 -158 c 1
 223 -158 l 1
 244 -60 l 1
EndSplineSet
EndChar

StartChar: uni021A
Encoding: 538 538 273
Width: 611
Flags: MW
HStem: -158 98<244 278 223 344> 0 20 647 82<175 399 158 748 493 731 493 493>
LayerCount: 2
Fore
SplineSet
493 647 m 1
 355 0 l 1
 261 0 l 1
 399 647 l 1
 158 647 l 1
 175 729 l 1
 748 729 l 1
 731 647 l 1
 493 647 l 1
244 -60 m 1
 344 -60 l 1
 325 -153 l 1
 307 -235 259 -284 196 -284 c 1
 204 -246 l 1
 243 -246 267 -217 278 -158 c 1
 223 -158 l 1
 244 -60 l 1
EndSplineSet
EndChar

StartChar: Ccircumflex
Encoding: 264 264 274
Width: 722
Flags: MW
HStem: -23 81<329 420> 660 81<473.5 565.5>
VStem: 112 96<207 305>
LayerCount: 2
Fore
SplineSet
770 503 m 1
 674 503 l 1
 666 611 616 660 515 660 c 0
 423 660 350 617 289 527 c 0
 238 451 208 352 208 260 c 0
 208 139 277 58 381 58 c 0
 460 58 536 95 578 154 c 0
 596 179 612 209 637 266 c 1
 735 266 l 1
 701 185 669 130 630 87 c 0
 565 16 473 -23 367 -23 c 0
 278 -23 215 4 169 62 c 0
 132 109 112 172 112 242 c 0
 112 368 161 505 240 600 c 0
 318 694 415 741 532 741 c 0
 627 741 697 704 738 634 c 0
 757 600 767 562 770 503 c 1
513 940 m 1
 608 940 l 1
 672 790 l 1
 609 790 l 1
 553 889 l 1
 449 790 l 1
 385 790 l 1
 513 940 l 1
EndSplineSet
EndChar

StartChar: Wcircumflex
Encoding: 372 372 275
Width: 944
Flags: MW
HStem: 0 20 709 20<177 277 277 277 580 676 676 676 980 1084 1084 1084>
LayerCount: 2
Fore
SplineSet
744 0 m 1
 642 0 l 1
 601 592 l 1
 311 0 l 1
 209 0 l 1
 177 729 l 1
 277 729 l 1
 292 137 l 1
 580 729 l 1
 676 729 l 1
 717 137 l 1
 980 729 l 1
 1084 729 l 1
 744 0 l 1
611 940 m 1
 706 940 l 1
 770 790 l 1
 707 790 l 1
 651 889 l 1
 547 790 l 1
 483 790 l 1
 611 940 l 1
EndSplineSet
EndChar

StartChar: Wdieresis
Encoding: 7812 7812 276
Width: 944
Flags: MW
HStem: 0 20 709 20<177 277 277 277 580 676 676 676 980 1084 1084 1084> 811 103<527 609 505 631 527 666 688 770>
LayerCount: 2
Fore
SplineSet
744 0 m 1
 642 0 l 1
 601 592 l 1
 311 0 l 1
 209 0 l 1
 177 729 l 1
 277 729 l 1
 292 137 l 1
 580 729 l 1
 676 729 l 1
 717 137 l 1
 980 729 l 1
 1084 729 l 1
 744 0 l 1
631 914 m 1
 609 811 l 1
 505 811 l 1
 527 914 l 1
 631 914 l 1
792 914 m 1
 770 811 l 1
 666 811 l 1
 688 914 l 1
 792 914 l 1
EndSplineSet
EndChar

StartChar: Ycircumflex
Encoding: 374 374 277
Width: 667
Flags: MW
HStem: 0 20 709 20<168 280 280 280 705 816 816 816>
LayerCount: 2
Fore
SplineSet
448 286 m 1
 387 0 l 1
 293 0 l 1
 354 286 l 1
 168 729 l 1
 280 729 l 1
 416 372 l 1
 705 729 l 1
 816 729 l 1
 448 286 l 1
476 940 m 1
 571 940 l 1
 635 790 l 1
 572 790 l 1
 516 889 l 1
 412 790 l 1
 348 790 l 1
 476 940 l 1
EndSplineSet
EndChar

StartChar: Hbar
Encoding: 294 294 278
Width: 722
Flags: MW
HStem: 0 20 332 82<264 622 248 639> 502 70<130 190 115 204 297 658 765 826> 709 20<238 331 331 331 706 799 799 799>
LayerCount: 2
Fore
SplineSet
190 502 m 1
 115 502 l 1
 130 572 l 1
 204 572 l 1
 238 729 l 1
 331 729 l 1
 297 572 l 1
 672 572 l 1
 706 729 l 1
 799 729 l 1
 765 572 l 1
 840 572 l 1
 826 502 l 1
 751 502 l 1
 644 0 l 1
 551 0 l 1
 622 332 l 1
 248 332 l 1
 177 0 l 1
 83 0 l 1
 190 502 l 1
283 502 m 1
 264 414 l 1
 639 414 l 1
 658 502 l 1
 283 502 l 1
EndSplineSet
EndChar

StartChar: Emacron
Encoding: 274 274 279
Width: 667
Flags: MW
HStem: 0 82<201 613> 332 82<255 668 272 650> 647 82<322 734 322 322> 826 69<392 651 377 666>
LayerCount: 2
Fore
SplineSet
255 332 m 1
 201 82 l 1
 630 82 l 1
 613 0 l 1
 90 0 l 1
 245 729 l 1
 751 729 l 1
 734 647 l 1
 322 647 l 1
 272 414 l 1
 668 414 l 1
 650 332 l 1
 255 332 l 1
666 895 m 1
 651 826 l 1
 377 826 l 1
 392 895 l 1
 666 895 l 1
EndSplineSet
EndChar

StartChar: Gcircumflex
Encoding: 284 284 280
Width: 778
Flags: MW
HStem: -23 81<374 410.5> 303 82<489 693 471 793> 660 81<497 567.5>
VStem: 109 96<248.5 321 248.5 326>
LayerCount: 2
Fore
SplineSet
793 385 m 1
 710 -4 l 1
 651 -4 l 1
 647 86 l 1
 609 54 590 40 566 26 c 0
 512 -5 443 -23 378 -23 c 0
 310 -23 244 -2 199 35 c 0
 143 81 109 167 109 261 c 0
 109 391 167 527 263 623 c 0
 341 701 439 741 555 741 c 0
 712 741 809 658 809 525 c 2
 809 519 l 1
 809 515 l 1
 809 508 l 1
 718 508 l 1
 717 554 707 581 681 608 c 0
 648 642 598 660 537 660 c 0
 440 660 354 617 293 538 c 0
 240 468 205 365 205 277 c 0
 205 220 218 167 242 132 c 0
 273 86 337 58 411 58 c 0
 480 58 538 79 592 123 c 0
 643 165 672 211 687 277 c 2
 693 303 l 1
 471 303 l 1
 489 385 l 1
 793 385 l 1
533 940 m 1
 628 940 l 1
 692 790 l 1
 629 790 l 1
 573 889 l 1
 469 790 l 1
 405 790 l 1
 533 940 l 1
EndSplineSet
EndChar

StartChar: Hcircumflex
Encoding: 292 292 281
Width: 722
Flags: MW
HStem: 0 20 332 82<265 621 248 638> 709 20<238 332 332 332 705 799 799 799>
LayerCount: 2
Fore
SplineSet
621 332 m 1
 248 332 l 1
 177 0 l 1
 83 0 l 1
 238 729 l 1
 332 729 l 1
 265 414 l 1
 638 414 l 1
 705 729 l 1
 799 729 l 1
 644 0 l 1
 550 0 l 1
 621 332 l 1
501 940 m 1
 596 940 l 1
 660 790 l 1
 597 790 l 1
 541 889 l 1
 437 790 l 1
 373 790 l 1
 501 940 l 1
EndSplineSet
EndChar

StartChar: Imacron
Encoding: 298 298 282
Width: 278
Flags: MW
HStem: 0 20 709 20<255 349 349 349> 826 69<211 443 195 458>
LayerCount: 2
Fore
SplineSet
349 729 m 1
 194 0 l 1
 100 0 l 1
 255 729 l 1
 349 729 l 1
458 895 m 1
 443 826 l 1
 195 826 l 1
 211 895 l 1
 458 895 l 1
EndSplineSet
EndChar

StartChar: Iogonek
Encoding: 302 302 283
Width: 278
Flags: MW
HStem: -205 46<144.5 153.5> 0 20 709 20<255 349 349 349>
VStem: 28 75<-128.5 -112>
LayerCount: 2
Fore
SplineSet
349 729 m 1
 194 0 l 1
 190 -3 184 -8 178 -12 c 0
 128 -51 103 -85 103 -115 c 0
 103 -142 126 -159 163 -159 c 0
 178 -159 182 -158 209 -150 c 1
 200 -195 l 1
 176 -203 164 -205 143 -205 c 0
 76 -205 28 -174 28 -129 c 0
 28 -95 43 -71 85 -35 c 0
 103 -20 112 -13 135 0 c 1
 100 0 l 1
 255 729 l 1
 349 729 l 1
EndSplineSet
EndChar

StartChar: Jcircumflex
Encoding: 308 308 284
Width: 500
Flags: MW
HStem: -23 81<206 251.5 206 279.5> 709 20<487 581 581 581>
VStem: 47 96<111 129>
LayerCount: 2
Fore
SplineSet
487 729 m 1
 581 729 l 1
 465 182 l 2
 437 51 346 -23 213 -23 c 0
 164 -23 129 -13 102 9 c 0
 68 37 47 79 47 122 c 0
 47 136 49 153 53 170 c 2
 67 234 l 1
 161 234 l 1
 147 168 l 2
 144 156 143 145 143 134 c 0
 143 88 179 58 233 58 c 0
 270 58 307 75 331 102 c 0
 353 127 366 160 378 216 c 2
 487 729 l 1
520 940 m 1
 615 940 l 1
 679 790 l 1
 616 790 l 1
 560 889 l 1
 456 790 l 1
 392 790 l 1
 520 940 l 1
EndSplineSet
EndChar

StartChar: Kcommaaccent
Encoding: 310 310 285
Width: 667
Flags: MW
HStem: -158 98<286 320 265 386> 0 20 709 20<234 328 328 328 693 813 813 813>
LayerCount: 2
Fore
SplineSet
226 249 m 1
 173 0 l 1
 79 0 l 1
 234 729 l 1
 328 729 l 1
 249 356 l 1
 693 729 l 1
 813 729 l 1
 452 431 l 1
 658 0 l 1
 548 0 l 1
 380 376 l 1
 226 249 l 1
286 -60 m 1
 386 -60 l 1
 367 -153 l 1
 348 -236 301 -284 238 -284 c 1
 246 -246 l 1
 285 -246 309 -217 320 -158 c 1
 265 -158 l 1
 286 -60 l 1
EndSplineSet
EndChar

StartChar: Lcommaaccent
Encoding: 315 315 286
Width: 556
Flags: MW
HStem: -158 98<245 278 224 345> 0 82<191 534> 709 20<235 329 329 329>
LayerCount: 2
Fore
SplineSet
329 729 m 1
 191 82 l 1
 551 82 l 1
 534 0 l 1
 80 0 l 1
 235 729 l 1
 329 729 l 1
245 -60 m 1
 345 -60 l 1
 325 -153 l 2
 307 -236 260 -284 196 -284 c 1
 204 -246 l 1
 243 -246 267 -217 278 -158 c 1
 224 -158 l 1
 245 -60 l 1
EndSplineSet
EndChar

StartChar: Ncommaaccent
Encoding: 325 325 287
Width: 722
Flags: MW
HStem: -158 98<282 316 261 382> 0 20 709 20<231 335 335 335 712 801 801 801>
LayerCount: 2
Fore
SplineSet
801 729 m 1
 646 0 l 1
 540 0 l 1
 291 591 l 1
 165 0 l 1
 76 0 l 1
 231 729 l 1
 335 729 l 1
 585 131 l 1
 712 729 l 1
 801 729 l 1
282 -60 m 1
 382 -60 l 1
 362 -153 l 2
 344 -236 297 -284 234 -284 c 1
 242 -246 l 1
 281 -246 305 -217 316 -158 c 1
 261 -158 l 1
 282 -60 l 1
EndSplineSet
EndChar

StartChar: Omacron
Encoding: 332 332 288
Width: 778
Flags: MW
HStem: -23 81<371.5 438> 660 81<480.5 559> 826 69<438 697 423 712>
VStem: 104 96<241.5 317 241.5 327> 732 96<400 476>
LayerCount: 2
Fore
SplineSet
537 741 m 0
 628 741 707 713 756 664 c 0
 800 619 828 543 828 464 c 0
 828 306 752 144 635 54 c 0
 570 4 485 -23 391 -23 c 0
 306 -23 225 6 177 54 c 0
 131 100 104 176 104 263 c 0
 104 391 157 522 246 614 c 0
 327 699 424 741 537 741 c 0
525 660 m 0
 431 660 342 613 284 534 c 1
 231 460 200 363 200 271 c 0
 200 212 214 165 241 130 c 0
 276 86 339 58 404 58 c 0
 501 58 589 104 648 185 c 0
 701 258 732 354 732 446 c 0
 732 506 718 553 691 588 c 0
 657 632 593 660 525 660 c 0
712 895 m 1
 697 826 l 1
 423 826 l 1
 438 895 l 1
 712 895 l 1
EndSplineSet
EndChar

StartChar: Rcommaaccent
Encoding: 342 342 289
Width: 722
Flags: W
HStem: -158 98<310 344 289 410> 0 20 314 82<254 502 271 493> 647 82<325 555 325 325>
VStem: 562 101<40 81> 594 96<254 263.5> 674 96<544 570>
LayerCount: 2
Fore
SplineSet
254 314 m 1xf4
 187 0 l 1
 93 0 l 1
 248 729 l 1
 584 729 l 2
 712 729 770 681 770 575 c 0xf2
 770 513 743 446 703 409 c 0
 685 393 669 382 630 360 c 1
 677 329 690 309 690 264 c 0xf4
 690 244 689 236 669 126 c 0
 665 104 663 86 663 76 c 0
 663 54 671 35 684 23 c 1
 679 0 l 1
 566 0 l 1
 563 21 562 32 562 48 c 0xf8
 562 79 562 79 586 179 c 0
 591 200 594 221 594 239 c 0
 594 288 559 314 493 314 c 2
 254 314 l 1xf4
271 396 m 1
 502 396 l 2
 566 396 608 413 638 449 c 1
 660 477 674 520 674 558 c 0
 674 582 666 605 653 619 c 0
 634 640 608 647 555 647 c 2
 325 647 l 1
 271 396 l 1
310 -60 m 1
 410 -60 l 1
 391 -153 l 1
 373 -236 325 -284 262 -284 c 1
 270 -246 l 1
 309 -246 333 -217 344 -158 c 1
 289 -158 l 1
 310 -60 l 1
EndSplineSet
EndChar

StartChar: Scircumflex
Encoding: 348 348 290
Width: 667
Flags: W
HStem: -23 81<289.5 383> 660 81<436.5 498>
VStem: 89 92<145 179.5> 178 96<496 517.5> 573 96<208.5 233.5> 622 92<563.5 565.5>
LayerCount: 2
Fore
SplineSet
706 515 m 1xd4
 618 515 l 1
 621 535 622 542 622 551 c 0
 622 580 609 612 590 629 c 0
 568 649 526 660 470 660 c 0
 403 660 355 644 318 611 c 0
 288 584 274 554 274 518 c 0xd4
 274 474 298 454 375 432 c 2
 547 383 l 2
 594 370 623 350 645 315 c 0
 661 290 669 264 669 237 c 0
 669 180 634 108 582 61 c 1
 523 6 436 -23 330 -23 c 0
 179 -23 89 48 89 169 c 0
 89 190 91 206 98 232 c 1
 185 232 l 1
 182 213 181 204 181 191 c 0
 181 99 233 58 346 58 c 0
 426 58 485 76 526 114 c 0
 555 141 573 178 573 209 c 0xe8
 573 258 541 286 460 309 c 2
 289 357 l 2
 222 376 178 429 178 492 c 0
 178 543 209 614 250 656 c 0
 304 712 385 741 488 741 c 0
 566 741 619 725 660 689 c 0
 693 660 714 615 714 571 c 0
 714 556 712 543 706 515 c 1xd4
473 940 m 1
 568 940 l 1
 632 790 l 1
 569 790 l 1
 513 889 l 1
 409 790 l 1
 345 790 l 1
 473 940 l 1
EndSplineSet
EndChar

StartChar: Gcommaaccent
Encoding: 290 290 291
Width: 778
Flags: MW
HStem: -158 98<332 365 311 432> -23 81<374 410.5> 303 82<489 693 471 793> 660 81<497 567.5>
VStem: 109 96<248.5 321 248.5 326>
LayerCount: 2
Fore
SplineSet
793 385 m 1
 710 -4 l 1
 651 -4 l 1
 647 86 l 1
 609 54 590 40 566 26 c 0
 512 -5 443 -23 378 -23 c 0
 310 -23 244 -2 199 35 c 0
 143 81 109 167 109 261 c 0
 109 391 167 527 263 623 c 0
 341 701 439 741 555 741 c 0
 712 741 809 658 809 525 c 2
 809 519 l 1
 809 515 l 1
 809 508 l 1
 718 508 l 1
 717 555 707 581 681 608 c 0
 648 642 598 660 537 660 c 0
 440 660 354 617 293 538 c 0
 240 468 205 365 205 277 c 0
 205 220 218 167 242 132 c 0
 273 86 337 58 411 58 c 0
 480 58 538 79 592 123 c 0
 643 165 672 211 687 277 c 2
 693 303 l 1
 471 303 l 1
 489 385 l 1
 793 385 l 1
332 -60 m 1
 432 -60 l 1
 412 -153 l 2
 394 -236 347 -284 283 -284 c 1
 292 -246 l 1
 330 -246 354 -217 365 -158 c 1
 311 -158 l 1
 332 -60 l 1
EndSplineSet
EndChar

StartChar: Umacron
Encoding: 362 362 292
Width: 722
Flags: MW
HStem: -23 81<332.5 438 332.5 447> 709 20<240 334 334 334 706 800 800 800> 826 69<418 677 403 692>
VStem: 124 96<139 163.5>
LayerCount: 2
Fore
SplineSet
706 729 m 1
 800 729 l 1
 691 217 l 2
 660 71 531 -23 363 -23 c 0
 286 -23 220 -2 179 35 c 0
 147 64 124 114 124 155 c 0
 124 172 130 215 138 251 c 2
 240 729 l 1
 334 729 l 1
 225 217 l 2
 222 202 220 187 220 174 c 0
 220 104 284 58 381 58 c 0
 495 58 576 118 597 217 c 2
 706 729 l 1
692 895 m 1
 677 826 l 1
 403 826 l 1
 418 895 l 1
 692 895 l 1
EndSplineSet
EndChar

StartChar: Uogonek
Encoding: 370 370 293
Width: 722
Flags: MW
HStem: -205 45<477 503> -23 81<332.5 381.5> 709 20<240 334 334 334 706 800 800 800>
VStem: 124 96<138.5 163> 356 75<-129 -105.5>
LayerCount: 2
Fore
SplineSet
568 -150 m 1
 559 -195 l 1
 537 -203 519 -205 487 -205 c 0
 403 -205 356 -177 356 -127 c 0
 356 -84 388 -47 453 -13 c 1
 415 -21 397 -23 366 -23 c 0
 285 -23 221 -3 179 35 c 0
 147 64 124 114 124 155 c 0
 124 171 131 217 138 251 c 2
 240 729 l 1
 334 729 l 1
 225 217 l 2
 222 202 220 187 220 173 c 0
 220 104 284 58 381 58 c 0
 495 58 576 118 597 217 c 2
 706 729 l 1
 800 729 l 1
 691 217 l 1
 668 121 624 65 514 -6 c 1
 463 -41 431 -84 431 -116 c 0
 431 -142 457 -160 497 -160 c 0
 525 -160 549 -157 568 -150 c 1
EndSplineSet
EndChar

StartChar: Ebreve
Encoding: 276 276 294
Width: 667
Flags: MW
HStem: 0 82<201 613> 332 82<255 668 272 650> 647 82<322 734 322 322> 793 72<493.5 530.5>
LayerCount: 2
Fore
SplineSet
255 332 m 1
 201 82 l 1
 630 82 l 1
 613 0 l 1
 90 0 l 1
 245 729 l 1
 751 729 l 1
 734 647 l 1
 322 647 l 1
 272 414 l 1
 668 414 l 1
 650 332 l 1
 255 332 l 1
384 928 m 1
 437 928 l 1
 437 920 l 1
 437 915 l 2
 437 885 469 865 518 865 c 0
 578 865 619 888 629 928 c 1
 685 928 l 1
 674 884 662 863 639 842 c 0
 606 812 555 793 506 793 c 0
 431 793 379 833 379 892 c 0
 379 902 380 910 384 928 c 1
EndSplineSet
EndChar

StartChar: Ibreve
Encoding: 300 300 295
Width: 278
Flags: MW
HStem: 0 20 709 20<255 349 349 349> 793 72<298.5 334.5>
LayerCount: 2
Fore
SplineSet
349 729 m 1
 194 0 l 1
 100 0 l 1
 255 729 l 1
 349 729 l 1
188 928 m 1
 241 928 l 1
 241 920 l 1
 241 915 l 2
 241 885 274 865 323 865 c 0
 383 865 423 888 433 928 c 1
 489 928 l 1
 478 884 467 863 443 842 c 0
 410 812 359 793 310 793 c 0
 235 793 183 833 183 892 c 0
 183 902 184 910 188 928 c 1
EndSplineSet
EndChar

StartChar: ij
Encoding: 307 307 296
Width: 444
Flags: MW
HStem: -218 72<182 210.5 182 220.5> 0 20 504 20<191 275 275 275 390 474 474 474> 626 103<235 297 213 319 235 411 434 495>
LayerCount: 2
Fore
SplineSet
275 524 m 1
 164 0 l 1
 80 0 l 1
 191 524 l 1
 275 524 l 1
319 729 m 1
 297 626 l 1
 213 626 l 1
 235 729 l 1
 319 729 l 1
390 524 m 1
 474 524 l 1
 340 -109 l 2
 322 -191 278 -218 163 -218 c 0
 154 -218 151 -218 145 -215 c 1
 160 -144 l 1
 173 -146 179 -146 185 -146 c 0
 236 -146 251 -132 263 -76 c 2
 390 524 l 1
518 729 m 1
 495 626 l 1
 411 626 l 1
 434 729 l 1
 518 729 l 1
EndSplineSet
EndChar

StartChar: longs
Encoding: 383 383 297
Width: 222
Flags: MW
HStem: 0 20 457 67<102 158 88 172> 660 72<321 346.5>
LayerCount: 2
Fore
SplineSet
145 0 m 1
 61 0 l 1
 158 457 l 1
 88 457 l 1
 102 524 l 1
 172 524 l 1
 191 613 l 2
 207 687 263 732 340 732 c 0
 356 732 367 731 385 727 c 1
 370 658 l 1
 357 660 350 660 343 660 c 0
 299 660 282 644 271 593 c 2
 145 0 l 1
EndSplineSet
EndChar

StartChar: abreve
Encoding: 259 259 298
Width: 556
Flags: MW
HStem: -23 72<213.5 227> 462 77<350.5 402.5> 594 72<388 428.5> 709 20<282 335 335 335 527 583 583 583>
VStem: 65 88<93.5 131.5 93.5 134> 478 90<395.5 460>
LayerCount: 2
Fore
SplineSet
552 51 m 1
 539 -14 l 1
 533 -15 527 -17 525 -17 c 0
 501 -23 498 -23 486 -23 c 0
 438 -23 410 1 410 43 c 2
 410 47 l 1
 410 54 l 1
 368 18 353 8 322 -3 c 0
 285 -16 245 -23 209 -23 c 0
 119 -23 65 25 65 105 c 0
 65 163 95 216 147 249 c 0
 196 280 238 290 372 302 c 0
 445 309 464 320 473 361 c 1
 476 379 l 2
 477 387 478 393 478 398 c 0
 478 435 433 462 372 462 c 0
 329 462 287 448 265 425 c 0
 251 411 244 397 235 369 c 1
 151 369 l 1
 170 480 254 539 394 539 c 0
 499 539 568 494 568 426 c 0
 568 415 568 415 562 389 c 2
 498 88 l 2
 497 85 497 81 497 78 c 0
 497 58 509 49 535 49 c 0
 539 49 543 49 552 51 c 1
431 164 m 2
 451 258 l 1
 407 243 399 242 304 229 c 0
 255 222 227 214 202 199 c 0
 172 181 153 148 153 115 c 0
 153 72 185 49 242 49 c 0
 330 49 418 102 431 164 c 2
282 729 m 1
 335 729 l 1
 333 687 360 666 416 666 c 0
 476 666 516 689 527 729 c 1
 583 729 l 1
 571 685 560 664 536 643 c 1
 504 613 453 594 404 594 c 0
 329 594 277 634 277 693 c 0
 277 703 278 711 282 729 c 1
EndSplineSet
EndChar

StartChar: aogonek
Encoding: 261 261 299
Width: 556
Flags: MW
HStem: -205 45<482.5 502> -23 72<213.5 226.5> 462 77<350.5 402>
VStem: 65 88<94 131.5 94 134> 360 75<-129.5 -105.5> 478 90<396 460>
LayerCount: 2
Fore
SplineSet
552 51 m 1
 539 -14 l 1
 484 -27 435 -75 435 -116 c 0
 435 -143 462 -160 503 -160 c 0
 528 -160 550 -157 571 -150 c 1
 562 -195 l 1
 521 -204 514 -205 490 -205 c 0
 408 -205 360 -177 360 -128 c 0
 360 -83 384 -56 455 -19 c 1
 428 -13 410 11 410 43 c 2
 410 47 l 1
 410 54 l 1
 369 18 353 8 322 -3 c 0
 285 -16 245 -23 208 -23 c 0
 119 -23 65 25 65 105 c 0
 65 163 95 216 147 249 c 0
 196 280 238 290 372 302 c 0
 445 309 464 320 473 361 c 1
 476 379 l 2
 477 387 478 394 478 398 c 0
 478 435 432 462 372 462 c 0
 329 462 287 448 265 425 c 0
 251 411 244 397 235 369 c 1
 151 369 l 1
 170 480 254 539 394 539 c 0
 499 539 568 494 568 426 c 0
 568 416 568 416 562 389 c 2
 498 88 l 2
 497 85 497 81 497 78 c 0
 497 58 509 49 535 49 c 0
 539 49 543 49 552 51 c 1
431 164 m 2
 451 258 l 1
 407 243 399 242 305 229 c 0
 255 222 226 214 202 199 c 0
 172 181 153 148 153 115 c 0
 153 73 185 49 242 49 c 0
 330 49 418 102 431 164 c 2
EndSplineSet
EndChar

StartChar: cacute
Encoding: 263 263 300
Width: 500
Flags: MW
HStem: -23 77<242.5 304> 462 77<336 397.5> 720 20<463 575 575 575>
VStem: 76 88<146 213 142 216> 468 86<391.5 398.5>
LayerCount: 2
Fore
SplineSet
551 348 m 1
 467 348 l 1
 468 357 468 364 468 370 c 0
 468 427 429 462 366 462 c 0
 305 462 256 432 218 373 c 0
 185 321 164 245 164 181 c 0
 164 103 208 54 277 54 c 0
 349 54 404 98 434 180 c 1
 518 180 l 1
 502 124 486 90 460 60 c 0
 414 6 345 -23 263 -23 c 0
 198 -23 154 -4 120 39 c 0
 92 74 76 122 76 170 c 0
 76 262 110 371 157 432 c 0
 210 501 291 539 381 539 c 0
 438 539 479 524 510 492 c 0
 536 465 554 425 554 393 c 0
 554 390 553 379 552 363 c 2
 551 348 l 1
463 740 m 1
 575 740 l 1
 395 592 l 1
 335 592 l 1
 463 740 l 1
EndSplineSet
EndChar

StartChar: ccaron
Encoding: 269 269 301
Width: 500
Flags: MW
HStem: -23 77<242.5 304> 462 77<336 397.5> 720 20<276 339 339 339 499 563 563 563>
VStem: 76 88<146 213 142 216> 468 86<391.5 398.5>
LayerCount: 2
Fore
SplineSet
551 348 m 1
 467 348 l 1
 468 357 468 364 468 370 c 0
 468 427 429 462 366 462 c 0
 305 462 256 432 218 373 c 0
 185 321 164 245 164 181 c 0
 164 103 208 54 277 54 c 0
 349 54 404 98 434 180 c 1
 518 180 l 1
 502 124 486 90 460 60 c 0
 414 6 345 -23 263 -23 c 0
 198 -23 154 -4 120 39 c 0
 92 74 76 122 76 170 c 0
 76 262 110 371 157 432 c 0
 210 501 291 539 381 539 c 0
 438 539 479 524 510 492 c 0
 536 465 554 425 554 393 c 0
 554 390 553 379 552 363 c 2
 551 348 l 1
435 592 m 1
 340 592 l 1
 276 740 l 1
 339 740 l 1
 395 642 l 1
 499 740 l 1
 563 740 l 1
 435 592 l 1
EndSplineSet
EndChar

StartChar: cdotaccent
Encoding: 267 267 302
Width: 500
Flags: MW
HStem: -23 77<242.5 304> 462 77<336 397.5> 612 103<367 449 345 471>
VStem: 76 88<146 213 142 216> 468 86<391.5 398.5>
LayerCount: 2
Fore
SplineSet
551 348 m 1
 467 348 l 1
 468 357 468 364 468 370 c 0
 468 427 429 462 366 462 c 0
 305 462 256 432 218 373 c 0
 185 321 164 245 164 181 c 0
 164 103 208 54 277 54 c 0
 349 54 404 98 434 180 c 1
 518 180 l 1
 502 124 486 90 460 60 c 0
 414 6 345 -23 263 -23 c 0
 198 -23 154 -4 120 39 c 0
 92 74 76 122 76 170 c 0
 76 262 110 371 157 432 c 0
 210 501 291 539 381 539 c 0
 438 539 479 524 510 492 c 0
 536 465 554 425 554 393 c 0
 554 390 553 379 552 363 c 2
 551 348 l 1
471 715 m 1
 449 612 l 1
 345 612 l 1
 367 715 l 1
 471 715 l 1
EndSplineSet
EndChar

StartChar: dcaron
Encoding: 271 271 303
Width: 643
Flags: W
HStem: -23 77<237 262> 0 20 462 77<319 388.5> 631 98<706 740 562 685>
VStem: 69 88<147 218.5 147 275.5>
LayerCount: 2
Fore
SplineSet
646 729 m 1xb8
 491 0 l 1
 410 0 l 1x78
 426 76 l 1
 412 48 399 33 369 15 c 0
 329 -10 284 -23 240 -23 c 0
 136 -23 69 53 69 170 c 0
 69 381 193 539 359 539 c 0
 430 539 470 513 502 448 c 1
 562 729 l 1
 646 729 l 1xb8
351 462 m 0
 287 462 239 430 201 361 c 0
 173 310 157 247 157 190 c 0
 157 104 200 54 274 54 c 0xb8
 335 54 384 88 423 155 c 0
 453 207 469 267 469 327 c 0
 469 412 426 462 351 462 c 0
706 729 m 1
 806 729 l 1
 786 636 l 2
 769 554 721 505 658 505 c 1
 666 543 l 1
 705 543 729 572 740 631 c 1
 685 631 l 1
 706 729 l 1
EndSplineSet
EndChar

StartChar: dcroat
Encoding: 273 273 304
Width: 556
Flags: W
HStem: -23 77<241 266> 0 20 462 77<323 392.5> 600 53<400 538 388 550 634 684> 709 20<566 650 650 650>
VStem: 73 88<147 218.5 147 275.5>
LayerCount: 2
Fore
SplineSet
550 653 m 1xb4
 566 729 l 1
 650 729 l 1
 634 653 l 1
 695 653 l 1
 684 600 l 1
 622 600 l 1
 495 0 l 1
 414 0 l 1x7c
 430 76 l 1
 416 48 403 33 373 15 c 0
 333 -10 288 -23 244 -23 c 0
 140 -23 73 53 73 170 c 0
 73 381 197 539 363 539 c 0
 434 539 474 513 506 448 c 1
 538 600 l 1
 388 600 l 1
 400 653 l 1
 550 653 l 1xb4
355 462 m 0
 291 462 243 430 205 361 c 0
 177 310 161 247 161 190 c 0
 161 104 204 54 278 54 c 0xa4
 339 54 388 88 427 155 c 0
 457 207 473 267 473 327 c 0
 473 412 430 462 355 462 c 0
EndSplineSet
EndChar

StartChar: ecaron
Encoding: 283 283 305
Width: 556
Flags: MW
HStem: -23 77<256.5 329.5 256.5 342> 234 72<195 489 195 563 177 489> 462 77<345.5 411.5> 720 20<291 354 354 354 514 578 578 578>
VStem: 84 88<146 198 145 214> 492 88<351 376.5>
LayerCount: 2
Fore
SplineSet
563 234 m 1
 177 234 l 1
 173 219 172 209 172 187 c 0
 172 103 217 54 296 54 c 0
 363 54 416 90 452 159 c 1
 536 159 l 1
 505 51 402 -23 282 -23 c 0
 225 -23 181 -7 146 27 c 0
 108 64 84 119 84 173 c 0
 84 255 121 368 168 431 c 0
 219 498 302 539 389 539 c 0
 497 539 580 465 580 367 c 0
 580 335 577 309 563 234 c 1
195 306 m 1
 489 306 l 1
 491 322 492 329 492 339 c 0
 492 414 447 462 376 462 c 0
 295 462 221 398 195 306 c 1
450 592 m 1
 355 592 l 1
 291 740 l 1
 354 740 l 1
 410 642 l 1
 514 740 l 1
 578 740 l 1
 450 592 l 1
EndSplineSet
EndChar

StartChar: edotaccent
Encoding: 279 279 306
Width: 556
Flags: MW
HStem: -23 77<256.5 329.5 256.5 342> 234 72<195 489 195 563 177 489> 462 77<345.5 411.5> 612 103<378 460 356 482>
VStem: 84 88<146 198 145 214> 492 88<351 376.5>
LayerCount: 2
Fore
SplineSet
563 234 m 1
 177 234 l 1
 173 219 172 209 172 187 c 0
 172 103 217 54 296 54 c 0
 363 54 416 90 452 159 c 1
 536 159 l 1
 505 51 402 -23 282 -23 c 0
 225 -23 181 -7 146 27 c 0
 108 64 84 119 84 173 c 0
 84 255 121 368 168 431 c 0
 219 498 302 539 389 539 c 0
 497 539 580 465 580 367 c 0
 580 335 577 309 563 234 c 1
195 306 m 1
 489 306 l 1
 491 322 492 329 492 339 c 0
 492 414 447 462 376 462 c 0
 295 462 221 398 195 306 c 1
482 715 m 1
 460 612 l 1
 356 612 l 1
 378 715 l 1
 482 715 l 1
EndSplineSet
EndChar

StartChar: eogonek
Encoding: 281 281 307
Width: 556
Flags: MW
HStem: -205 45<374 401.5> -23 77<256.5 290> 234 72<195 489 195 563 177 489> 462 77<345.5 411.5>
VStem: 84 88<146 199 145.5 214> 253 74<-127.5 -106.5> 492 88<352 376.5>
LayerCount: 2
Fore
SplineSet
464 -150 m 1
 455 -195 l 1
 434 -202 416 -205 387 -205 c 0
 350 -205 311 -197 289 -186 c 0
 265 -174 253 -154 253 -127 c 0
 253 -86 276 -58 346 -16 c 1
 315 -22 300 -23 280 -23 c 0
 225 -23 181 -7 146 27 c 0
 108 64 84 119 84 173 c 0
 84 255 121 368 168 431 c 0
 219 498 302 539 389 539 c 0
 497 539 580 465 580 368 c 0
 580 336 577 312 563 234 c 1
 177 234 l 1
 173 219 172 210 172 188 c 0
 172 103 217 54 296 54 c 0
 363 54 416 90 452 159 c 1
 536 159 l 1
 519 99 480 51 395 -14 c 0
 354 -46 327 -86 327 -114 c 0
 327 -141 354 -160 394 -160 c 0
 421 -160 446 -157 464 -150 c 1
195 306 m 1
 489 306 l 1
 491 322 492 330 492 339 c 0
 492 414 447 462 376 462 c 0
 295 462 221 398 195 306 c 1
EndSplineSet
EndChar

StartChar: gbreve
Encoding: 287 287 308
Width: 556
Flags: W
HStem: -218 72<192 249> -17 72<237.5 278.5> 462 77<331 386 330.5 395> 504 20<525 601 601 601> 594 72<398 435> 709 20<288 341 341 341 533 589 589 589>
VStem: 74 88<144 214 144 214.5>
LayerCount: 2
Fore
SplineSet
525 524 m 1x12
 601 524 l 1x12
 508 85 l 2
 481 -42 454 -103 404 -151 c 0
 359 -194 289 -218 209 -218 c 0
 101 -218 32 -168 32 -91 c 0
 32 -85 32 -84 34 -60 c 1
 118 -60 l 1
 118 -68 l 1
 118 -74 l 2
 118 -119 158 -146 226 -146 c 0
 333 -146 386 -93 415 44 c 2
 419 63 l 1
 368 10 310 -17 247 -17 c 0
 145 -17 74 59 74 168 c 0
 74 261 111 372 165 439 c 0
 214 501 292 539 369 539 c 0xe2
 403 539 435 528 461 509 c 0
 483 493 493 479 508 446 c 1
 525 524 l 1x12
363 462 m 0x6e
 299 462 244 425 207 360 c 0
 178 308 162 244 162 184 c 0
 162 104 204 55 271 55 c 0
 331 55 390 93 423 154 c 1
 451 203 469 277 469 340 c 0
 469 414 427 462 363 462 c 0x6e
288 729 m 1
 341 729 l 1
 341 722 l 1
 341 717 l 2
 341 686 373 666 423 666 c 0
 483 666 524 689 533 729 c 1
 589 729 l 1
 578 685 567 664 543 643 c 0
 510 613 459 594 411 594 c 0
 335 594 283 634 283 693 c 0
 283 703 284 711 288 729 c 1
EndSplineSet
EndChar

StartChar: gdotaccent
Encoding: 289 289 309
Width: 556
Flags: W
HStem: -218 70<192 248> -23 77<236.5 275.5> 462 77<328.5 395.5> 504 20<523 600 600 600> 612 103<378 460 356 482>
VStem: 32 86<-98.5 -79> 74 88<139 217>
LayerCount: 2
Fore
SplineSet
523 524 m 1x12
 600 524 l 1x12
 507 86 l 2
 480 -39 451 -109 405 -153 c 0
 364 -193 288 -218 208 -218 c 0
 100 -218 32 -165 32 -81 c 0
 32 -77 32 -69 33 -60 c 1
 118 -60 l 1
 118 -76 l 2xe4
 118 -121 158 -148 226 -148 c 0
 277 -148 322 -130 352 -98 c 0
 380 -67 398 -26 413 44 c 2
 419 71 l 1
 365 6 311 -23 240 -23 c 0
 144 -23 74 59 74 172 c 0
 74 262 111 370 165 439 c 0
 214 501 290 539 367 539 c 0xe2
 430 539 470 513 507 448 c 1
 523 524 l 1x12
362 462 m 0x6a
 252 462 162 334 162 178 c 0
 162 100 202 54 271 54 c 0
 380 54 468 183 468 340 c 0
 468 417 429 462 362 462 c 0x6a
482 715 m 1
 460 612 l 1
 356 612 l 1
 378 715 l 1
 482 715 l 1
EndSplineSet
EndChar

StartChar: lacute
Encoding: 314 314 310
Width: 222
Flags: MW
HStem: 0 20 709 20<223 307 307 307>
LayerCount: 2
Fore
SplineSet
307 729 m 1
 152 0 l 1
 68 0 l 1
 223 729 l 1
 307 729 l 1
351 939 m 1
 463 939 l 1
 283 791 l 1
 223 791 l 1
 351 939 l 1
EndSplineSet
EndChar

StartChar: lcaron
Encoding: 318 318 311
Width: 299
Flags: MW
HStem: 0 20 631 98<363 397 219 342>
LayerCount: 2
Fore
SplineSet
303 729 m 1
 148 0 l 1
 64 0 l 1
 219 729 l 1
 303 729 l 1
363 729 m 1
 463 729 l 1
 443 636 l 2
 426 554 378 505 315 505 c 1
 323 543 l 1
 362 543 386 572 397 631 c 1
 342 631 l 1
 363 729 l 1
EndSplineSet
EndChar

StartChar: nacute
Encoding: 324 324 312
Width: 556
Flags: W
HStem: 0 20 467 72<400 424> 504 20<181 257 257 257> 720 20<468 580 580 580>
VStem: 486 88<407.5 409>
LayerCount: 2
Fore
SplineSet
181 524 m 1xa8
 257 524 l 1x38
 244 459 l 1
 296 512 362 539 438 539 c 0
 521 539 574 490 574 414 c 0
 574 401 573 389 570 376 c 2
 490 0 l 1
 406 0 l 1
 480 349 l 2
 484 366 486 380 486 386 c 0
 486 432 449 467 399 467 c 0xc8
 309 467 239 399 215 289 c 2
 154 0 l 1
 70 0 l 1
 181 524 l 1xa8
468 740 m 1
 580 740 l 1
 400 592 l 1
 340 592 l 1
 468 740 l 1
EndSplineSet
EndChar

StartChar: ncaron
Encoding: 328 328 313
Width: 556
Flags: W
HStem: 0 20 467 72<400 424> 504 20<181 257 257 257> 720 20<291 354 354 354 514 578 578 578>
VStem: 486 88<407.5 409>
LayerCount: 2
Fore
SplineSet
181 524 m 1xa8
 257 524 l 1x38
 244 459 l 1
 296 512 362 539 438 539 c 0
 521 539 574 490 574 414 c 0
 574 401 573 389 570 376 c 2
 490 0 l 1
 406 0 l 1
 480 349 l 2
 484 366 486 380 486 386 c 0
 486 432 449 467 399 467 c 0xc8
 309 467 239 399 215 289 c 2
 154 0 l 1
 70 0 l 1
 181 524 l 1xa8
450 592 m 1
 355 592 l 1
 291 740 l 1
 354 740 l 1
 410 642 l 1
 514 740 l 1
 578 740 l 1
 450 592 l 1
EndSplineSet
EndChar

StartChar: ohungarumlaut
Encoding: 337 337 314
Width: 556
Flags: MW
HStem: -23 77<247.5 317> 462 77<338 408> 720 20<397 509 509 509 571 683 683 683>
VStem: 80 88<143.5 206.5> 488 88<308.5 373.5>
LayerCount: 2
Fore
SplineSet
384 539 m 0
 442 539 488 523 521 490 c 1
 556 457 576 405 576 352 c 0
 576 265 543 156 497 93 c 0
 441 16 365 -23 269 -23 c 0
 157 -23 80 53 80 164 c 0
 80 249 113 359 158 423 c 0
 209 497 291 539 384 539 c 0
371 462 m 0
 305 462 248 425 212 357 c 0
 185 307 168 242 168 184 c 0
 168 103 212 54 283 54 c 0
 352 54 406 90 444 159 c 0
 472 209 488 274 488 333 c 0
 488 414 445 462 371 462 c 0
397 740 m 1
 509 740 l 1
 329 590 l 1
 269 590 l 1
 397 740 l 1
571 740 m 1
 683 740 l 1
 503 590 l 1
 443 590 l 1
 571 740 l 1
EndSplineSet
EndChar

StartChar: racute
Encoding: 341 341 315
Width: 333
Flags: W
HStem: 0 20 504 20<180 256 256 256> 519 20<375 409.5> 720 20<386 498 498 498>
LayerCount: 2
Fore
SplineSet
180 524 m 1xc0
 256 524 l 1x50
 239 442 l 1
 302 513 346 539 404 539 c 0x20
 415 539 423 538 436 536 c 1
 418 451 l 1
 408 451 l 1
 403 451 l 1
 303 450 234 387 211 272 c 1
 153 0 l 1
 69 0 l 1
 180 524 l 1xc0
386 740 m 1
 498 740 l 1
 318 592 l 1
 258 592 l 1
 386 740 l 1
EndSplineSet
EndChar

StartChar: sacute
Encoding: 347 347 316
Width: 500
Flags: W
HStem: -23 77<227 283.5 227 321.5> 462 77<320.5 368.5> 720 20<433 545 545 545>
VStem: 61 93<106 113> 123 88<354 368.5> 405 88<140.5 154.5>
LayerCount: 2
Fore
SplineSet
514 378 m 1xec
 430 378 l 1
 431 389 l 1
 431 394 l 1
 431 400 l 2
 431 440 398 462 339 462 c 0
 295 462 265 452 241 429 c 0
 223 412 211 387 211 367 c 0xe8
 211 341 240 321 296 307 c 2
 372 288 l 2
 460 266 493 234 493 173 c 0
 493 54 396 -23 247 -23 c 0
 130 -23 61 25 61 105 c 0
 61 121 62 133 67 156 c 1
 156 156 l 1
 155 146 154 137 154 131 c 0xf4
 154 81 192 54 262 54 c 0
 305 54 348 67 373 88 c 0
 390 101 405 131 405 150 c 0
 405 159 399 174 392 183 c 0
 383 194 368 200 335 209 c 2
 261 228 l 2
 158 255 123 284 123 345 c 0
 123 392 146 444 183 479 c 0
 224 518 285 539 356 539 c 0
 454 539 520 491 520 421 c 0
 520 408 519 399 514 378 c 1xec
433 740 m 1
 545 740 l 1
 365 592 l 1
 305 592 l 1
 433 740 l 1
EndSplineSet
EndChar

StartChar: scircumflex
Encoding: 349 349 317
Width: 500
Flags: W
HStem: -23 77<227 283.5 227 321.5> 462 77<320.5 368.5> 721 20<355 450 450 450>
VStem: 61 93<106 113> 123 88<354 368.5> 405 88<140.5 154.5>
LayerCount: 2
Fore
SplineSet
514 378 m 1xec
 430 378 l 1
 431 389 l 1
 431 394 l 1
 431 400 l 2
 431 440 398 462 339 462 c 0
 295 462 265 452 241 429 c 0
 223 411 211 387 211 367 c 0xe8
 211 341 240 321 296 307 c 2
 372 288 l 2
 460 266 493 234 493 173 c 0
 493 54 396 -23 247 -23 c 0
 130 -23 61 25 61 105 c 0
 61 121 62 133 67 156 c 1
 156 156 l 1
 155 146 154 137 154 131 c 0xf4
 154 81 192 54 262 54 c 0
 305 54 348 67 373 88 c 0
 390 101 405 131 405 150 c 0
 405 159 399 174 392 183 c 0
 383 194 368 200 335 209 c 2
 261 228 l 2
 158 255 123 284 123 345 c 0
 123 392 146 444 183 479 c 0
 224 518 285 539 356 539 c 0
 453 539 520 491 520 421 c 0
 520 408 519 399 514 378 c 1xec
355 741 m 1
 450 741 l 1
 514 591 l 1
 451 591 l 1
 395 690 l 1
 291 591 l 1
 227 591 l 1
 355 741 l 1
EndSplineSet
EndChar

StartChar: scommaaccent
Encoding: 537 537 318
Width: 500
Flags: W
HStem: -158 98<191 225 170 291> -23 77<227 283.5 227 321.5> 462 77<320.5 368.5>
VStem: 61 93<106 113> 123 88<354 368.5> 405 88<140.5 154.5>
LayerCount: 2
Fore
SplineSet
514 378 m 1xec
 430 378 l 1
 431 389 l 1
 431 394 l 1
 431 400 l 2
 431 440 398 462 339 462 c 0
 295 462 265 452 241 429 c 0
 223 412 211 387 211 367 c 0xe8
 211 341 240 321 296 307 c 2
 372 288 l 2
 460 266 493 234 493 173 c 0
 493 54 396 -23 247 -23 c 0
 130 -23 61 25 61 105 c 0
 61 121 62 133 67 156 c 1
 156 156 l 1
 155 146 154 137 154 131 c 0xf4
 154 81 192 54 262 54 c 0
 305 54 348 67 373 88 c 0
 390 101 405 131 405 150 c 0
 405 159 399 174 392 183 c 0
 383 194 368 200 335 209 c 2
 261 228 l 2
 158 255 123 284 123 345 c 0
 123 392 146 444 183 479 c 0
 224 518 285 539 356 539 c 0
 454 539 520 491 520 421 c 0
 520 408 519 399 514 378 c 1xec
191 -60 m 1
 291 -60 l 1
 272 -153 l 1
 253 -236 206 -284 143 -284 c 1
 151 -246 l 1
 190 -246 214 -217 225 -158 c 1
 170 -158 l 1
 191 -60 l 1
EndSplineSet
EndChar

StartChar: tcaron
Encoding: 357 357 319
Width: 317
Flags: MW
HStem: -23 72<157.5 224.5> 457 67<121 178 107 192 276 351> 703 98<391 425 370 491>
VStem: 96 86<31.5 77.5>
LayerCount: 2
Fore
SplineSet
365 524 m 1
 351 457 l 1
 262 457 l 1
 184 90 l 2
 183 84 182 79 182 76 c 0
 182 60 196 49 218 49 c 0
 231 49 233 49 266 57 c 1
 250 -16 l 1
 235 -20 206 -23 185 -23 c 0
 130 -23 96 7 96 56 c 0
 96 66 97 77 99 87 c 2
 178 457 l 1
 107 457 l 1
 121 524 l 1
 192 524 l 1
 223 668 l 1
 307 668 l 1
 276 524 l 1
 365 524 l 1
391 801 m 1
 491 801 l 1
 472 708 l 1
 454 626 406 577 343 577 c 1
 351 615 l 1
 390 615 414 644 425 703 c 1
 370 703 l 1
 391 801 l 1
EndSplineSet
EndChar

StartChar: uring
Encoding: 367 367 320
Width: 556
Flags: W
HStem: -23 72<240.5 265> 0 20 504 20<177 261 261 261 510 594 594 594> 579 44<395 419 395 423.5> 710 44<410.5 434.5>
VStem: 88 91<52 130> 324 46<647.5 671 647.5 675.5> 459 45<662.5 686>
LayerCount: 2
Fore
SplineSet
483 0 m 1x67
 407 0 l 1x5f
 419 57 l 1
 361 1 304 -23 226 -23 c 0
 140 -23 88 18 88 86 c 0
 88 99 89 110 91 120 c 2
 177 524 l 1
 261 524 l 1
 182 153 l 2
 180 144 179 134 179 126 c 0
 179 78 213 49 268 49 c 0xa7
 353 49 424 119 447 227 c 2
 510 524 l 1
 594 524 l 1
 483 0 l 1x67
432 754 m 0
 473 754 504 726 504 687 c 0
 504 630 452 579 395 579 c 0
 355 579 324 610 324 649 c 0
 324 702 378 754 432 754 c 0
424 710 m 0
 397 710 370 684 370 658 c 0
 370 637 385 623 405 623 c 0
 433 623 459 649 459 676 c 0
 459 696 445 710 424 710 c 0
EndSplineSet
EndChar

StartChar: uhungarumlaut
Encoding: 369 369 321
Width: 556
Flags: W
HStem: -23 72<240.5 265> 0 20 504 20<177 261 261 261 510 594 594 594> 720 20<397 509 509 509 571 683 683 683>
VStem: 88 91<52 130>
LayerCount: 2
Fore
SplineSet
483 0 m 1x68
 407 0 l 1x58
 419 57 l 1
 361 1 304 -23 226 -23 c 0
 140 -23 88 18 88 86 c 0
 88 99 89 110 91 120 c 2
 177 524 l 1
 261 524 l 1
 182 153 l 2
 180 144 179 134 179 126 c 0
 179 78 213 49 268 49 c 0xa8
 353 49 424 119 447 227 c 2
 510 524 l 1
 594 524 l 1
 483 0 l 1x68
397 740 m 1
 509 740 l 1
 329 590 l 1
 269 590 l 1
 397 740 l 1
571 740 m 1
 683 740 l 1
 503 590 l 1
 443 590 l 1
 571 740 l 1
EndSplineSet
EndChar

StartChar: zacute
Encoding: 378 378 322
Width: 500
Flags: MW
HStem: 0 72<147 458> 452 72<165 444 150 557> 720 20<440 552 552 552>
LayerCount: 2
Fore
SplineSet
557 524 m 1
 539 449 l 1
 147 72 l 1
 473 72 l 1
 458 0 l 1
 31 0 l 1
 49 74 l 1
 444 452 l 1
 150 452 l 1
 165 524 l 1
 557 524 l 1
440 740 m 1
 552 740 l 1
 372 592 l 1
 312 592 l 1
 440 740 l 1
EndSplineSet
EndChar

StartChar: zdotaccent
Encoding: 380 380 323
Width: 500
Flags: MW
HStem: 0 72<147 458> 452 72<165 444 150 557> 612 103<346 428 324 450>
LayerCount: 2
Fore
SplineSet
557 524 m 1
 539 449 l 1
 147 72 l 1
 473 72 l 1
 458 0 l 1
 31 0 l 1
 49 74 l 1
 444 452 l 1
 150 452 l 1
 165 524 l 1
 557 524 l 1
450 715 m 1
 428 612 l 1
 324 612 l 1
 346 715 l 1
 450 715 l 1
EndSplineSet
EndChar

StartChar: hbar
Encoding: 295 295 324
Width: 556
Flags: MW
HStem: 0 20 466 73<396 420.5> 600 53<149 197 137 209 292 487> 709 20<225 308 308 308>
VStem: 483 90<389 461.5>
LayerCount: 2
Fore
SplineSet
292 653 m 1
 499 653 l 1
 487 600 l 1
 280 600 l 1
 249 452 l 1
 303 514 357 539 435 539 c 0
 522 539 573 497 573 426 c 0
 573 414 572 405 570 396 c 2
 486 0 l 1
 403 0 l 1
 480 363 l 2
 482 373 483 381 483 397 c 0
 483 438 447 466 394 466 c 0
 311 466 237 393 214 289 c 1
 153 0 l 1
 70 0 l 1
 197 600 l 1
 137 600 l 1
 149 653 l 1
 209 653 l 1
 225 729 l 1
 308 729 l 1
 292 653 l 1
EndSplineSet
EndChar

StartChar: tcommaaccent
Encoding: 355 355 325
Width: 278
Flags: MW
HStem: -158 98<103 137 82 203> -23 72<158.5 224.5> 457 67<122 179 108 193 277 351>
VStem: 97 86<31.5 78>
LayerCount: 2
Fore
SplineSet
366 524 m 1
 351 457 l 1
 263 457 l 1
 185 90 l 2
 184 85 183 80 183 76 c 0
 183 60 197 49 218 49 c 0
 231 49 235 50 267 57 c 1
 251 -16 l 1
 236 -20 206 -23 186 -23 c 0
 131 -23 97 7 97 56 c 0
 97 68 98 77 100 87 c 2
 179 457 l 1
 108 457 l 1
 122 524 l 1
 193 524 l 1
 224 668 l 1
 308 668 l 1
 277 524 l 1
 366 524 l 1
103 -60 m 1
 203 -60 l 1
 184 -153 l 1
 166 -235 118 -284 55 -284 c 1
 63 -246 l 1
 102 -246 126 -217 137 -158 c 1
 82 -158 l 1
 103 -60 l 1
EndSplineSet
EndChar

StartChar: uni021B
Encoding: 539 539 326
Width: 278
Flags: MW
HStem: -158 98<103 137 82 203> -23 72<158.5 224.5> 457 67<122 179 108 193 277 351>
VStem: 97 86<31.5 78>
LayerCount: 2
Fore
SplineSet
366 524 m 1
 351 457 l 1
 263 457 l 1
 185 90 l 2
 184 85 183 80 183 76 c 0
 183 60 197 49 218 49 c 0
 231 49 235 50 267 57 c 1
 251 -16 l 1
 236 -20 206 -23 186 -23 c 0
 131 -23 97 7 97 56 c 0
 97 68 98 77 100 87 c 2
 179 457 l 1
 108 457 l 1
 122 524 l 1
 193 524 l 1
 224 668 l 1
 308 668 l 1
 277 524 l 1
 366 524 l 1
103 -60 m 1
 203 -60 l 1
 184 -153 l 1
 166 -235 118 -284 55 -284 c 1
 63 -246 l 1
 102 -246 126 -217 137 -158 c 1
 82 -158 l 1
 103 -60 l 1
EndSplineSet
EndChar

StartChar: wcircumflex
Encoding: 373 373 327
Width: 722
Flags: MW
HStem: 0 20 504 20<118 209 209 209 417 522 522 522 729 820 820 820> 721 20<453 548 548 548>
LayerCount: 2
Fore
SplineSet
556 0 m 1
 461 0 l 1
 449 418 l 1
 254 0 l 1
 158 0 l 1
 118 524 l 1
 209 524 l 1
 228 116 l 1
 417 524 l 1
 522 524 l 1
 533 116 l 1
 729 524 l 1
 820 524 l 1
 556 0 l 1
453 741 m 1
 548 741 l 1
 612 591 l 1
 549 591 l 1
 493 690 l 1
 389 591 l 1
 325 591 l 1
 453 741 l 1
EndSplineSet
EndChar

StartChar: wdieresis
Encoding: 7813 7813 328
Width: 722
Flags: MW
HStem: 0 20 504 20<118 209 209 209 417 522 522 522 729 820 820 820> 612 103<369 451 347 473 369 508 530 612>
LayerCount: 2
Fore
SplineSet
556 0 m 1
 461 0 l 1
 449 418 l 1
 254 0 l 1
 158 0 l 1
 118 524 l 1
 209 524 l 1
 228 116 l 1
 417 524 l 1
 522 524 l 1
 533 116 l 1
 729 524 l 1
 820 524 l 1
 556 0 l 1
473 715 m 1
 451 612 l 1
 347 612 l 1
 369 715 l 1
 473 715 l 1
634 715 m 1
 612 612 l 1
 508 612 l 1
 530 715 l 1
 634 715 l 1
EndSplineSet
EndChar

StartChar: amacron
Encoding: 257 257 329
Width: 556
Flags: MW
HStem: -23 72<213 227> 462 77<350.5 402.5> 627 69<292 551 277 566>
VStem: 65 88<93.5 131.5 93.5 134> 478 90<395.5 460>
LayerCount: 2
Fore
SplineSet
552 51 m 1
 539 -14 l 1
 533 -15 527 -17 525 -17 c 0
 501 -23 498 -23 486 -23 c 0
 438 -23 410 1 410 43 c 2
 410 47 l 1
 410 54 l 1
 368 18 353 8 322 -3 c 0
 285 -16 245 -23 209 -23 c 0
 119 -23 65 25 65 105 c 0
 65 163 95 216 147 249 c 0
 196 280 238 290 372 302 c 0
 445 309 464 320 473 361 c 1
 476 379 l 2
 477 386 478 393 478 398 c 0
 478 435 433 462 372 462 c 0
 329 462 287 448 265 425 c 0
 251 411 244 397 235 369 c 1
 151 369 l 1
 170 480 254 539 394 539 c 0
 500 539 568 494 568 426 c 0
 568 415 568 415 562 389 c 2
 498 88 l 2
 497 85 497 81 497 78 c 0
 497 58 509 49 535 49 c 0
 539 49 543 49 552 51 c 1
431 164 m 2
 451 258 l 1
 407 243 398 242 304 229 c 0
 255 222 227 214 202 199 c 0
 172 181 153 148 153 115 c 0
 153 72 184 49 242 49 c 0
 330 49 418 102 431 164 c 2
566 696 m 1
 551 627 l 1
 277 627 l 1
 292 696 l 1
 566 696 l 1
EndSplineSet
EndChar

StartChar: ycircumflex
Encoding: 375 375 330
Width: 500
Flags: MW
HStem: -218 81<62 86.5 62 92.5> 504 20<132 222 222 222 501 590 590 590> 721 20<344 439 439 439>
LayerCount: 2
Fore
SplineSet
501 524 m 1
 590 524 l 1
 222 -110 l 2
 179 -185 128 -218 57 -218 c 0
 38 -218 26 -216 8 -208 c 1
 24 -133 l 1
 53 -137 57 -137 67 -137 c 0
 106 -137 121 -127 148 -85 c 2
 200 -4 l 1
 132 524 l 1
 222 524 l 1
 268 117 l 1
 501 524 l 1
344 741 m 1
 439 741 l 1
 503 591 l 1
 440 591 l 1
 384 690 l 1
 280 591 l 1
 216 591 l 1
 344 741 l 1
EndSplineSet
EndChar

StartChar: ccircumflex
Encoding: 265 265 331
Width: 500
Flags: MW
HStem: -23 77<242 304> 462 77<336 397.5> 721 20<371 466 466 466>
VStem: 76 88<146 213 142 216> 468 86<390.5 398.5>
LayerCount: 2
Fore
SplineSet
551 348 m 1
 467 348 l 1
 468 357 468 364 468 370 c 0
 468 427 429 462 366 462 c 0
 305 462 256 432 218 373 c 0
 185 321 164 245 164 181 c 0
 164 103 207 54 277 54 c 0
 349 54 404 98 434 180 c 1
 518 180 l 1
 502 124 486 90 460 60 c 0
 414 6 345 -23 263 -23 c 0
 198 -23 154 -4 120 39 c 0
 92 74 76 122 76 170 c 0
 76 262 110 371 157 432 c 0
 210 501 291 539 381 539 c 0
 438 539 479 524 510 492 c 0
 536 465 554 425 554 392 c 0
 554 389 553 378 552 363 c 2
 551 348 l 1
371 741 m 1
 466 741 l 1
 530 591 l 1
 467 591 l 1
 411 690 l 1
 307 591 l 1
 243 591 l 1
 371 741 l 1
EndSplineSet
EndChar

StartChar: emacron
Encoding: 275 275 332
Width: 556
Flags: MW
HStem: -23 77<256.5 329.5 256.5 342> 234 72<195 489 195 563 177 489> 462 77<345.5 411.5> 627 69<288 547 273 562>
VStem: 84 88<146 198 145 214> 492 88<351 376.5>
LayerCount: 2
Fore
SplineSet
563 234 m 1
 177 234 l 1
 173 219 172 209 172 187 c 0
 172 103 217 54 296 54 c 0
 363 54 416 90 452 159 c 1
 536 159 l 1
 505 51 402 -23 282 -23 c 0
 225 -23 181 -7 146 27 c 0
 108 64 84 119 84 173 c 0
 84 255 121 368 168 431 c 0
 219 498 302 539 389 539 c 0
 497 539 580 465 580 367 c 0
 580 335 577 309 563 234 c 1
195 306 m 1
 489 306 l 1
 491 322 492 329 492 339 c 0
 492 414 447 462 376 462 c 0
 295 462 221 398 195 306 c 1
562 696 m 1
 547 627 l 1
 273 627 l 1
 288 696 l 1
 562 696 l 1
EndSplineSet
EndChar

StartChar: gcircumflex
Encoding: 285 285 333
Width: 556
Flags: W
HStem: -218 72<192 249> -17 72<237.5 278.5> 462 77<331 386 330.5 395.5> 504 20<525 601 601 601> 721 20<353 448 448 448>
VStem: 74 88<144 214 144 214.5>
LayerCount: 2
Fore
SplineSet
525 524 m 1x14
 601 524 l 1x14
 508 85 l 2
 481 -42 454 -103 404 -151 c 0
 359 -194 289 -218 209 -218 c 0
 101 -218 32 -168 32 -91 c 0
 32 -88 33 -78 34 -60 c 1
 118 -60 l 1
 118 -68 l 1
 118 -74 l 2
 118 -119 158 -146 226 -146 c 0
 333 -146 386 -92 415 44 c 2
 419 63 l 1
 368 10 310 -17 247 -17 c 0
 145 -17 74 59 74 168 c 0
 74 261 111 372 165 439 c 0
 214 501 292 539 369 539 c 0xe4
 403 539 435 528 461 509 c 0
 483 493 493 479 508 446 c 1
 525 524 l 1x14
363 462 m 0x6c
 299 462 244 426 208 360 c 1
 178 308 162 244 162 184 c 0
 162 104 204 55 271 55 c 0
 331 55 390 93 423 154 c 0
 451 204 469 277 469 339 c 0
 469 414 428 462 363 462 c 0x6c
353 741 m 1
 448 741 l 1
 512 591 l 1
 449 591 l 1
 393 690 l 1
 289 591 l 1
 225 591 l 1
 353 741 l 1
EndSplineSet
EndChar

StartChar: ibreve
Encoding: 301 301 334
Width: 278
Flags: MW
HStem: 0 20 594 72<252.5 289.5> 709 20<143 196 196 196 388 444 444 444>
LayerCount: 2
Fore
SplineSet
290 527 m 1
 178 0 l 1
 94 0 l 1
 206 527 l 1
 290 527 l 1
143 729 m 1
 196 729 l 1
 196 721 l 1
 196 716 l 2
 196 686 228 666 277 666 c 0
 337 666 378 689 388 729 c 1
 444 729 l 1
 432 685 421 664 397 643 c 1
 365 613 314 594 265 594 c 0
 190 594 138 634 138 693 c 0
 138 703 139 711 143 729 c 1
EndSplineSet
EndChar

StartChar: imacron
Encoding: 299 299 335
Width: 278
Flags: MW
HStem: 0 20 504 20<205 289 289 289> 627 69<167 386 152 401>
LayerCount: 2
Fore
SplineSet
289 524 m 1
 178 0 l 1
 94 0 l 1
 205 524 l 1
 289 524 l 1
401 696 m 1
 386 627 l 1
 152 627 l 1
 167 696 l 1
 401 696 l 1
EndSplineSet
EndChar

StartChar: jcircumflex
Encoding: 309 309 336
Width: 222
Flags: MW
HStem: -218 72<-28 0.5 -28 11.5> 504 20<180 264 264 264> 721 20<210 305 305 305>
LayerCount: 2
Fore
SplineSet
180 524 m 1
 264 524 l 1
 130 -109 l 2
 112 -191 69 -218 -46 -218 c 0
 -55 -218 -58 -218 -65 -215 c 1
 -50 -144 l 1
 -36 -146 -31 -146 -25 -146 c 0
 26 -146 41 -132 53 -76 c 2
 180 524 l 1
210 741 m 1
 305 741 l 1
 369 591 l 1
 306 591 l 1
 250 690 l 1
 146 591 l 1
 82 591 l 1
 210 741 l 1
EndSplineSet
EndChar

StartChar: kcommaaccent
Encoding: 311 311 337
Width: 500
Flags: MW
HStem: -158 98<208 241 187 308> 0 20 504 20<476 584 584 584> 709 20<213 297 297 297>
LayerCount: 2
Fore
SplineSet
297 729 m 1
 207 306 l 1
 476 524 l 1
 584 524 l 1
 362 343 l 1
 502 0 l 1
 406 0 l 1
 292 291 l 1
 185 203 l 1
 142 0 l 1
 58 0 l 1
 213 729 l 1
 297 729 l 1
208 -60 m 1
 308 -60 l 1
 288 -153 l 2
 270 -236 223 -284 159 -284 c 1
 167 -246 l 1
 206 -246 230 -217 241 -158 c 1
 187 -158 l 1
 208 -60 l 1
EndSplineSet
EndChar

StartChar: lcommaaccent
Encoding: 316 316 338
Width: 222
Flags: MW
HStem: -158 98<47 81 26 147> 0 20 709 20<223 307 307 307>
LayerCount: 2
Fore
SplineSet
307 729 m 1
 152 0 l 1
 68 0 l 1
 223 729 l 1
 307 729 l 1
47 -60 m 1
 147 -60 l 1
 128 -153 l 1
 110 -235 62 -284 -1 -284 c 1
 7 -246 l 1
 46 -246 70 -217 81 -158 c 1
 26 -158 l 1
 47 -60 l 1
EndSplineSet
EndChar

StartChar: ncommaaccent
Encoding: 326 326 339
Width: 556
Flags: W
HStem: -158 98<218 251 197 318> 0 20 467 72<400 424> 504 20<181 257 257 257>
VStem: 486 88<407.5 409>
LayerCount: 2
Fore
SplineSet
181 524 m 1x58
 257 524 l 1x98
 244 459 l 1
 296 512 362 539 438 539 c 0
 521 539 574 490 574 414 c 0
 574 401 573 389 570 376 c 2
 490 0 l 1
 406 0 l 1
 480 349 l 2
 484 366 486 380 486 386 c 0
 486 432 449 467 399 467 c 0x68
 309 467 239 399 215 289 c 2
 154 0 l 1
 70 0 l 1
 181 524 l 1x58
218 -60 m 1
 318 -60 l 1
 298 -153 l 2
 280 -236 233 -284 169 -284 c 1
 177 -246 l 1
 216 -246 240 -217 251 -158 c 1
 197 -158 l 1
 218 -60 l 1
EndSplineSet
EndChar

StartChar: omacron
Encoding: 333 333 340
Width: 556
Flags: MW
HStem: -23 77<247.5 317> 462 77<338 408> 627 69<284 543 269 558>
VStem: 80 88<143.5 206.5> 488 88<308.5 373.5>
LayerCount: 2
Fore
SplineSet
384 539 m 0
 442 539 488 523 521 490 c 1
 556 457 576 405 576 352 c 0
 576 265 543 156 497 93 c 0
 441 16 365 -23 269 -23 c 0
 157 -23 80 53 80 164 c 0
 80 249 113 359 158 423 c 0
 209 497 291 539 384 539 c 0
371 462 m 0
 305 462 248 425 212 357 c 0
 185 307 168 242 168 184 c 0
 168 103 212 54 283 54 c 0
 352 54 406 90 444 159 c 0
 472 209 488 274 488 333 c 0
 488 414 445 462 371 462 c 0
558 696 m 1
 543 627 l 1
 269 627 l 1
 284 696 l 1
 558 696 l 1
EndSplineSet
EndChar

StartChar: rcommaaccent
Encoding: 343 343 341
Width: 333
Flags: W
HStem: -158 98<53 87 32 153> 0 20 504 20<181 256 256 256> 519 20<375 409.5>
LayerCount: 2
Fore
SplineSet
181 524 m 1x60
 256 524 l 1xa0
 239 442 l 1
 302 513 346 539 404 539 c 0x10
 415 539 423 538 436 536 c 1
 418 451 l 1
 408 451 l 1
 403 451 l 1
 303 450 234 386 211 272 c 1
 153 0 l 1
 69 0 l 1
 181 524 l 1x60
53 -60 m 1
 153 -60 l 1
 134 -153 l 1
 116 -235 68 -284 5 -284 c 1
 13 -246 l 1
 52 -246 76 -217 87 -158 c 1
 32 -158 l 1
 53 -60 l 1
EndSplineSet
EndChar

